<?xml version="1.0" encoding="utf-8" standalone="no"?>
<!DOCTYPE svg PUBLIC "-//W3C//DTD SVG 1.1//EN"
  "http://www.w3.org/Graphics/SVG/1.1/DTD/svg11.dtd">
<svg xmlns:xlink="http://www.w3.org/1999/xlink" width="864pt" height="432pt" viewBox="0 0 864 432" xmlns="http://www.w3.org/2000/svg" version="1.1">
 <metadata>
  <rdf:RDF xmlns:dc="http://purl.org/dc/elements/1.1/" xmlns:cc="http://creativecommons.org/ns#" xmlns:rdf="http://www.w3.org/1999/02/22-rdf-syntax-ns#">
   <cc:Work>
    <dc:type rdf:resource="http://purl.org/dc/dcmitype/StillImage"/>
    <dc:date>2022-09-07T16:05:12.328139</dc:date>
    <dc:format>image/svg+xml</dc:format>
    <dc:creator>
     <cc:Agent>
      <dc:title>Matplotlib v3.5.1, https://matplotlib.org/</dc:title>
     </cc:Agent>
    </dc:creator>
   </cc:Work>
  </rdf:RDF>
 </metadata>
 <defs>
  <style type="text/css">*{stroke-linejoin: round; stroke-linecap: butt}</style>
 </defs>
 <g id="figure_1">
  <g id="patch_1">
   <path d="M 0 432 
L 864 432 
L 864 0 
L 0 0 
z
" style="fill: #ffffff"/>
  </g>
  <g id="axes_1">
   <g id="patch_2">
    <path d="M 42.765865 415.321635 
L 860.99976 415.321635 
L 860.99976 3.00024 
L 42.765865 3.00024 
z
" style="fill: #ffffff"/>
   </g>
   <g id="patch_3">
    <path d="M 79.958315 415.321635 
L 82.951671 415.321635 
L 82.951671 415.321635 
L 79.958315 415.321635 
z
" clip-path="url(#p842b23d7c7)" style="fill: #008000"/>
   </g>
   <g id="patch_4">
    <path d="M 83.70001 415.321635 
L 86.693366 415.321635 
L 86.693366 399.737834 
L 83.70001 399.737834 
z
" clip-path="url(#p842b23d7c7)" style="fill: #008000"/>
   </g>
   <g id="patch_5">
    <path d="M 87.441705 415.321635 
L 90.435061 415.321635 
L 90.435061 406.88041 
L 87.441705 406.88041 
z
" clip-path="url(#p842b23d7c7)" style="fill: #008000"/>
   </g>
   <g id="patch_6">
    <path d="M 91.183399 415.321635 
L 94.176755 415.321635 
L 94.176755 402.984459 
L 91.183399 402.984459 
z
" clip-path="url(#p842b23d7c7)" style="fill: #008000"/>
   </g>
   <g id="patch_7">
    <path d="M 94.925094 415.321635 
L 97.918451 415.321635 
L 97.918451 399.088509 
L 94.925094 399.088509 
z
" clip-path="url(#p842b23d7c7)" style="fill: #008000"/>
   </g>
   <g id="patch_8">
    <path d="M 98.666789 415.321635 
L 101.660146 415.321635 
L 101.660146 394.543234 
L 98.666789 394.543234 
z
" clip-path="url(#p842b23d7c7)" style="fill: #008000"/>
   </g>
   <g id="patch_9">
    <path d="M 102.408484 415.321635 
L 105.401841 415.321635 
L 105.401841 395.841884 
L 102.408484 395.841884 
z
" clip-path="url(#p842b23d7c7)" style="fill: #008000"/>
   </g>
   <g id="patch_10">
    <path d="M 106.150179 415.321635 
L 109.143536 415.321635 
L 109.143536 388.699309 
L 106.150179 388.699309 
z
" clip-path="url(#p842b23d7c7)" style="fill: #008000"/>
   </g>
   <g id="patch_11">
    <path d="M 109.891874 415.321635 
L 112.885229 415.321635 
L 112.885229 386.102009 
L 109.891874 386.102009 
z
" clip-path="url(#p842b23d7c7)" style="fill: #008000"/>
   </g>
   <g id="patch_12">
    <path d="M 113.633571 415.321635 
L 116.626928 415.321635 
L 116.626928 384.154033 
L 113.633571 384.154033 
z
" clip-path="url(#p842b23d7c7)" style="fill: #008000"/>
   </g>
   <g id="patch_13">
    <path d="M 117.375266 415.321635 
L 120.368623 415.321635 
L 120.368623 386.751334 
L 117.375266 386.751334 
z
" clip-path="url(#p842b23d7c7)" style="fill: #008000"/>
   </g>
   <g id="patch_14">
    <path d="M 121.116961 415.321635 
L 124.110318 415.321635 
L 124.110318 383.504708 
L 121.116961 383.504708 
z
" clip-path="url(#p842b23d7c7)" style="fill: #008000"/>
   </g>
   <g id="patch_15">
    <path d="M 124.858656 415.321635 
L 127.852013 415.321635 
L 127.852013 369.219558 
L 124.858656 369.219558 
z
" clip-path="url(#p842b23d7c7)" style="fill: #008000"/>
   </g>
   <g id="patch_16">
    <path d="M 128.600351 415.321635 
L 131.593708 415.321635 
L 131.593708 369.868883 
L 128.600351 369.868883 
z
" clip-path="url(#p842b23d7c7)" style="fill: #008000"/>
   </g>
   <g id="patch_17">
    <path d="M 132.342046 415.321635 
L 135.335403 415.321635 
L 135.335403 368.570233 
L 132.342046 368.570233 
z
" clip-path="url(#p842b23d7c7)" style="fill: #008000"/>
   </g>
   <g id="patch_18">
    <path d="M 136.083741 415.321635 
L 139.077098 415.321635 
L 139.077098 356.882382 
L 136.083741 356.882382 
z
" clip-path="url(#p842b23d7c7)" style="fill: #008000"/>
   </g>
   <g id="patch_19">
    <path d="M 139.825436 415.321635 
L 142.818789 415.321635 
L 142.818789 352.337107 
L 139.825436 352.337107 
z
" clip-path="url(#p842b23d7c7)" style="fill: #008000"/>
   </g>
   <g id="patch_20">
    <path d="M 143.567131 415.321635 
L 146.560484 415.321635 
L 146.560484 342.597231 
L 143.567131 342.597231 
z
" clip-path="url(#p842b23d7c7)" style="fill: #008000"/>
   </g>
   <g id="patch_21">
    <path d="M 147.308826 415.321635 
L 150.302179 415.321635 
L 150.302179 334.156006 
L 147.308826 334.156006 
z
" clip-path="url(#p842b23d7c7)" style="fill: #008000"/>
   </g>
   <g id="patch_22">
    <path d="M 151.050521 415.321635 
L 154.043874 415.321635 
L 154.043874 338.701281 
L 151.050521 338.701281 
z
" clip-path="url(#p842b23d7c7)" style="fill: #008000"/>
   </g>
   <g id="patch_23">
    <path d="M 154.792216 415.321635 
L 157.785569 415.321635 
L 157.785569 318.572205 
L 154.792216 318.572205 
z
" clip-path="url(#p842b23d7c7)" style="fill: #008000"/>
   </g>
   <g id="patch_24">
    <path d="M 158.533911 415.321635 
L 161.527264 415.321635 
L 161.527264 315.32558 
L 158.533911 315.32558 
z
" clip-path="url(#p842b23d7c7)" style="fill: #008000"/>
   </g>
   <g id="patch_25">
    <path d="M 162.275606 415.321635 
L 165.268959 415.321635 
L 165.268959 314.676255 
L 162.275606 314.676255 
z
" clip-path="url(#p842b23d7c7)" style="fill: #008000"/>
   </g>
   <g id="patch_26">
    <path d="M 166.017301 415.321635 
L 169.010654 415.321635 
L 169.010654 310.13098 
L 166.017301 310.13098 
z
" clip-path="url(#p842b23d7c7)" style="fill: #008000"/>
   </g>
   <g id="patch_27">
    <path d="M 169.758996 415.321635 
L 172.752349 415.321635 
L 172.752349 285.456629 
L 169.758996 285.456629 
z
" clip-path="url(#p842b23d7c7)" style="fill: #008000"/>
   </g>
   <g id="patch_28">
    <path d="M 173.500691 415.321635 
L 176.494044 415.321635 
L 176.494044 290.001904 
L 173.500691 290.001904 
z
" clip-path="url(#p842b23d7c7)" style="fill: #008000"/>
   </g>
   <g id="patch_29">
    <path d="M 177.242386 415.321635 
L 180.235739 415.321635 
L 180.235739 283.508654 
L 177.242386 283.508654 
z
" clip-path="url(#p842b23d7c7)" style="fill: #008000"/>
   </g>
   <g id="patch_30">
    <path d="M 180.984081 415.321635 
L 183.977434 415.321635 
L 183.977434 258.184977 
L 180.984081 258.184977 
z
" clip-path="url(#p842b23d7c7)" style="fill: #008000"/>
   </g>
   <g id="patch_31">
    <path d="M 184.725776 415.321635 
L 187.719129 415.321635 
L 187.719129 243.899827 
L 184.725776 243.899827 
z
" clip-path="url(#p842b23d7c7)" style="fill: #008000"/>
   </g>
   <g id="patch_32">
    <path d="M 188.467471 415.321635 
L 191.460824 415.321635 
L 191.460824 210.134925 
L 188.467471 210.134925 
z
" clip-path="url(#p842b23d7c7)" style="fill: #008000"/>
   </g>
   <g id="patch_33">
    <path d="M 192.209165 415.321635 
L 195.202519 415.321635 
L 195.202519 214.6802 
L 192.209165 214.6802 
z
" clip-path="url(#p842b23d7c7)" style="fill: #008000"/>
   </g>
   <g id="patch_34">
    <path d="M 195.95086 415.321635 
L 198.944214 415.321635 
L 198.944214 180.265974 
L 195.95086 180.265974 
z
" clip-path="url(#p842b23d7c7)" style="fill: #008000"/>
   </g>
   <g id="patch_35">
    <path d="M 199.692555 415.321635 
L 202.685916 415.321635 
L 202.685916 171.175423 
L 199.692555 171.175423 
z
" clip-path="url(#p842b23d7c7)" style="fill: #008000"/>
   </g>
   <g id="patch_36">
    <path d="M 203.434243 415.321635 
L 206.427596 415.321635 
L 206.427596 183.512599 
L 203.434243 183.512599 
z
" clip-path="url(#p842b23d7c7)" style="fill: #008000"/>
   </g>
   <g id="patch_37">
    <path d="M 207.175938 415.321635 
L 210.169291 415.321635 
L 210.169291 154.942297 
L 207.175938 154.942297 
z
" clip-path="url(#p842b23d7c7)" style="fill: #008000"/>
   </g>
   <g id="patch_38">
    <path d="M 210.917633 415.321635 
L 213.910986 415.321635 
L 213.910986 140.657147 
L 210.917633 140.657147 
z
" clip-path="url(#p842b23d7c7)" style="fill: #008000"/>
   </g>
   <g id="patch_39">
    <path d="M 214.659328 415.321635 
L 217.652681 415.321635 
L 217.652681 123.774696 
L 214.659328 123.774696 
z
" clip-path="url(#p842b23d7c7)" style="fill: #008000"/>
   </g>
   <g id="patch_40">
    <path d="M 218.401023 415.321635 
L 221.394376 415.321635 
L 221.394376 131.566596 
L 218.401023 131.566596 
z
" clip-path="url(#p842b23d7c7)" style="fill: #008000"/>
   </g>
   <g id="patch_41">
    <path d="M 222.142718 415.321635 
L 225.136071 415.321635 
L 225.136071 70.530043 
L 222.142718 70.530043 
z
" clip-path="url(#p842b23d7c7)" style="fill: #008000"/>
   </g>
   <g id="patch_42">
    <path d="M 225.884413 415.321635 
L 228.877766 415.321635 
L 228.877766 80.269919 
L 225.884413 80.269919 
z
" clip-path="url(#p842b23d7c7)" style="fill: #008000"/>
   </g>
   <g id="patch_43">
    <path d="M 229.626108 415.321635 
L 232.619461 415.321635 
L 232.619461 54.946243 
L 229.626108 54.946243 
z
" clip-path="url(#p842b23d7c7)" style="fill: #008000"/>
   </g>
   <g id="patch_44">
    <path d="M 233.367803 415.321635 
L 236.361156 415.321635 
L 236.361156 45.855692 
L 233.367803 45.855692 
z
" clip-path="url(#p842b23d7c7)" style="fill: #008000"/>
   </g>
   <g id="patch_45">
    <path d="M 237.109498 415.321635 
L 240.102851 415.321635 
L 240.102851 27.674591 
L 237.109498 27.674591 
z
" clip-path="url(#p842b23d7c7)" style="fill: #008000"/>
   </g>
   <g id="patch_46">
    <path d="M 240.851193 415.321635 
L 243.844546 415.321635 
L 243.844546 41.959742 
L 240.851193 41.959742 
z
" clip-path="url(#p842b23d7c7)" style="fill: #008000"/>
   </g>
   <g id="patch_47">
    <path d="M 244.592888 415.321635 
L 247.586241 415.321635 
L 247.586241 35.466492 
L 244.592888 35.466492 
z
" clip-path="url(#p842b23d7c7)" style="fill: #008000"/>
   </g>
   <g id="patch_48">
    <path d="M 248.334583 415.321635 
L 251.327936 415.321635 
L 251.327936 3.00024 
L 248.334583 3.00024 
z
" clip-path="url(#p842b23d7c7)" style="fill: #008000"/>
   </g>
   <g id="patch_49">
    <path d="M 252.076278 415.321635 
L 255.069631 415.321635 
L 255.069631 20.532016 
L 252.076278 20.532016 
z
" clip-path="url(#p842b23d7c7)" style="fill: #008000"/>
   </g>
   <g id="patch_50">
    <path d="M 255.817973 415.321635 
L 258.811326 415.321635 
L 258.811326 8.844165 
L 255.817973 8.844165 
z
" clip-path="url(#p842b23d7c7)" style="fill: #008000"/>
   </g>
   <g id="patch_51">
    <path d="M 259.559668 415.321635 
L 262.553021 415.321635 
L 262.553021 41.310417 
L 259.559668 41.310417 
z
" clip-path="url(#p842b23d7c7)" style="fill: #008000"/>
   </g>
   <g id="patch_52">
    <path d="M 263.301363 415.321635 
L 266.294716 415.321635 
L 266.294716 3.649565 
L 263.301363 3.649565 
z
" clip-path="url(#p842b23d7c7)" style="fill: #008000"/>
   </g>
   <g id="patch_53">
    <path d="M 267.043058 415.321635 
L 270.036411 415.321635 
L 270.036411 6.89619 
L 267.043058 6.89619 
z
" clip-path="url(#p842b23d7c7)" style="fill: #008000"/>
   </g>
   <g id="patch_54">
    <path d="M 270.784753 415.321635 
L 273.778106 415.321635 
L 273.778106 34.167842 
L 270.784753 34.167842 
z
" clip-path="url(#p842b23d7c7)" style="fill: #008000"/>
   </g>
   <g id="patch_55">
    <path d="M 274.526448 415.321635 
L 277.519801 415.321635 
L 277.519801 31.570541 
L 274.526448 31.570541 
z
" clip-path="url(#p842b23d7c7)" style="fill: #008000"/>
   </g>
   <g id="patch_56">
    <path d="M 278.268143 415.321635 
L 281.261496 415.321635 
L 281.261496 51.699617 
L 278.268143 51.699617 
z
" clip-path="url(#p842b23d7c7)" style="fill: #008000"/>
   </g>
   <g id="patch_57">
    <path d="M 282.009838 415.321635 
L 285.003191 415.321635 
L 285.003191 46.505017 
L 282.009838 46.505017 
z
" clip-path="url(#p842b23d7c7)" style="fill: #008000"/>
   </g>
   <g id="patch_58">
    <path d="M 285.751533 415.321635 
L 288.744886 415.321635 
L 288.744886 71.828693 
L 285.751533 71.828693 
z
" clip-path="url(#p842b23d7c7)" style="fill: #008000"/>
   </g>
   <g id="patch_59">
    <path d="M 289.493228 415.321635 
L 292.486581 415.321635 
L 292.486581 43.907717 
L 289.493228 43.907717 
z
" clip-path="url(#p842b23d7c7)" style="fill: #008000"/>
   </g>
   <g id="patch_60">
    <path d="M 293.234923 415.321635 
L 296.228276 415.321635 
L 296.228276 86.763169 
L 293.234923 86.763169 
z
" clip-path="url(#p842b23d7c7)" style="fill: #008000"/>
   </g>
   <g id="patch_61">
    <path d="M 296.976618 415.321635 
L 299.969971 415.321635 
L 299.969971 103.64562 
L 296.976618 103.64562 
z
" clip-path="url(#p842b23d7c7)" style="fill: #008000"/>
   </g>
   <g id="patch_62">
    <path d="M 300.718313 415.321635 
L 303.711666 415.321635 
L 303.711666 96.503045 
L 300.718313 96.503045 
z
" clip-path="url(#p842b23d7c7)" style="fill: #008000"/>
   </g>
   <g id="patch_63">
    <path d="M 304.460008 415.321635 
L 307.453361 415.321635 
L 307.453361 118.580096 
L 304.460008 118.580096 
z
" clip-path="url(#p842b23d7c7)" style="fill: #008000"/>
   </g>
   <g id="patch_64">
    <path d="M 308.201703 415.321635 
L 311.195056 415.321635 
L 311.195056 110.788195 
L 308.201703 110.788195 
z
" clip-path="url(#p842b23d7c7)" style="fill: #008000"/>
   </g>
   <g id="patch_65">
    <path d="M 311.943398 415.321635 
L 314.936751 415.321635 
L 314.936751 154.942297 
L 311.943398 154.942297 
z
" clip-path="url(#p842b23d7c7)" style="fill: #008000"/>
   </g>
   <g id="patch_66">
    <path d="M 315.685093 415.321635 
L 318.678446 415.321635 
L 318.678446 185.460574 
L 315.685093 185.460574 
z
" clip-path="url(#p842b23d7c7)" style="fill: #008000"/>
   </g>
   <g id="patch_67">
    <path d="M 319.426788 415.321635 
L 322.420155 415.321635 
L 322.420155 184.161924 
L 319.426788 184.161924 
z
" clip-path="url(#p842b23d7c7)" style="fill: #008000"/>
   </g>
   <g id="patch_68">
    <path d="M 323.168483 415.321635 
L 326.16185 415.321635 
L 326.16185 190.655174 
L 323.168483 190.655174 
z
" clip-path="url(#p842b23d7c7)" style="fill: #008000"/>
   </g>
   <g id="patch_69">
    <path d="M 326.910177 415.321635 
L 329.903545 415.321635 
L 329.903545 206.8883 
L 326.910177 206.8883 
z
" clip-path="url(#p842b23d7c7)" style="fill: #008000"/>
   </g>
   <g id="patch_70">
    <path d="M 330.651872 415.321635 
L 333.64524 415.321635 
L 333.64524 214.6802 
L 330.651872 214.6802 
z
" clip-path="url(#p842b23d7c7)" style="fill: #008000"/>
   </g>
   <g id="patch_71">
    <path d="M 334.393567 415.321635 
L 337.386935 415.321635 
L 337.386935 230.264001 
L 334.393567 230.264001 
z
" clip-path="url(#p842b23d7c7)" style="fill: #008000"/>
   </g>
   <g id="patch_72">
    <path d="M 338.135262 415.321635 
L 341.12863 415.321635 
L 341.12863 238.705226 
L 338.135262 238.705226 
z
" clip-path="url(#p842b23d7c7)" style="fill: #008000"/>
   </g>
   <g id="patch_73">
    <path d="M 341.876957 415.321635 
L 344.870325 415.321635 
L 344.870325 260.782278 
L 341.876957 260.782278 
z
" clip-path="url(#p842b23d7c7)" style="fill: #008000"/>
   </g>
   <g id="patch_74">
    <path d="M 345.618652 415.321635 
L 348.61202 415.321635 
L 348.61202 267.275528 
L 345.618652 267.275528 
z
" clip-path="url(#p842b23d7c7)" style="fill: #008000"/>
   </g>
   <g id="patch_75">
    <path d="M 349.360347 415.321635 
L 352.353715 415.321635 
L 352.353715 288.053929 
L 349.360347 288.053929 
z
" clip-path="url(#p842b23d7c7)" style="fill: #008000"/>
   </g>
   <g id="patch_76">
    <path d="M 353.102042 415.321635 
L 356.09541 415.321635 
L 356.09541 283.508654 
L 353.102042 283.508654 
z
" clip-path="url(#p842b23d7c7)" style="fill: #008000"/>
   </g>
   <g id="patch_77">
    <path d="M 356.843737 415.321635 
L 359.837105 415.321635 
L 359.837105 297.144479 
L 356.843737 297.144479 
z
" clip-path="url(#p842b23d7c7)" style="fill: #008000"/>
   </g>
   <g id="patch_78">
    <path d="M 360.585432 415.321635 
L 363.5788 415.321635 
L 363.5788 304.287055 
L 360.585432 304.287055 
z
" clip-path="url(#p842b23d7c7)" style="fill: #008000"/>
   </g>
   <g id="patch_79">
    <path d="M 364.327127 415.321635 
L 367.320495 415.321635 
L 367.320495 323.766806 
L 364.327127 323.766806 
z
" clip-path="url(#p842b23d7c7)" style="fill: #008000"/>
   </g>
   <g id="patch_80">
    <path d="M 368.068822 415.321635 
L 371.06219 415.321635 
L 371.06219 325.065456 
L 368.068822 325.065456 
z
" clip-path="url(#p842b23d7c7)" style="fill: #008000"/>
   </g>
   <g id="patch_81">
    <path d="M 371.810517 415.321635 
L 374.803885 415.321635 
L 374.803885 327.013431 
L 371.810517 327.013431 
z
" clip-path="url(#p842b23d7c7)" style="fill: #008000"/>
   </g>
   <g id="patch_82">
    <path d="M 375.552212 415.321635 
L 378.54558 415.321635 
L 378.54558 333.506681 
L 375.552212 333.506681 
z
" clip-path="url(#p842b23d7c7)" style="fill: #008000"/>
   </g>
   <g id="patch_83">
    <path d="M 379.293907 415.321635 
L 382.287275 415.321635 
L 382.287275 338.051956 
L 379.293907 338.051956 
z
" clip-path="url(#p842b23d7c7)" style="fill: #008000"/>
   </g>
   <g id="patch_84">
    <path d="M 383.035602 415.321635 
L 386.02897 415.321635 
L 386.02897 341.947906 
L 383.035602 341.947906 
z
" clip-path="url(#p842b23d7c7)" style="fill: #008000"/>
   </g>
   <g id="patch_85">
    <path d="M 386.777297 415.321635 
L 389.770664 415.321635 
L 389.770664 346.493182 
L 386.777297 346.493182 
z
" clip-path="url(#p842b23d7c7)" style="fill: #008000"/>
   </g>
   <g id="patch_86">
    <path d="M 390.518992 415.321635 
L 393.512359 415.321635 
L 393.512359 361.427657 
L 390.518992 361.427657 
z
" clip-path="url(#p842b23d7c7)" style="fill: #008000"/>
   </g>
   <g id="patch_87">
    <path d="M 394.260687 415.321635 
L 397.254054 415.321635 
L 397.254054 363.375632 
L 394.260687 363.375632 
z
" clip-path="url(#p842b23d7c7)" style="fill: #008000"/>
   </g>
   <g id="patch_88">
    <path d="M 398.002382 415.321635 
L 400.995749 415.321635 
L 400.995749 360.778332 
L 398.002382 360.778332 
z
" clip-path="url(#p842b23d7c7)" style="fill: #008000"/>
   </g>
   <g id="patch_89">
    <path d="M 401.744077 415.321635 
L 404.737444 415.321635 
L 404.737444 371.816858 
L 401.744077 371.816858 
z
" clip-path="url(#p842b23d7c7)" style="fill: #008000"/>
   </g>
   <g id="patch_90">
    <path d="M 405.485772 415.321635 
L 408.479139 415.321635 
L 408.479139 379.608758 
L 405.485772 379.608758 
z
" clip-path="url(#p842b23d7c7)" style="fill: #008000"/>
   </g>
   <g id="patch_91">
    <path d="M 409.227467 415.321635 
L 412.220834 415.321635 
L 412.220834 377.660783 
L 409.227467 377.660783 
z
" clip-path="url(#p842b23d7c7)" style="fill: #008000"/>
   </g>
   <g id="patch_92">
    <path d="M 412.969162 415.321635 
L 415.962529 415.321635 
L 415.962529 382.206058 
L 412.969162 382.206058 
z
" clip-path="url(#p842b23d7c7)" style="fill: #008000"/>
   </g>
   <g id="patch_93">
    <path d="M 416.710857 415.321635 
L 419.704224 415.321635 
L 419.704224 378.959433 
L 416.710857 378.959433 
z
" clip-path="url(#p842b23d7c7)" style="fill: #008000"/>
   </g>
   <g id="patch_94">
    <path d="M 420.452552 415.321635 
L 423.445919 415.321635 
L 423.445919 388.699309 
L 420.452552 388.699309 
z
" clip-path="url(#p842b23d7c7)" style="fill: #008000"/>
   </g>
   <g id="patch_95">
    <path d="M 424.194247 415.321635 
L 427.187614 415.321635 
L 427.187614 388.049984 
L 424.194247 388.049984 
z
" clip-path="url(#p842b23d7c7)" style="fill: #008000"/>
   </g>
   <g id="patch_96">
    <path d="M 427.935942 415.321635 
L 430.929309 415.321635 
L 430.929309 389.348634 
L 427.935942 389.348634 
z
" clip-path="url(#p842b23d7c7)" style="fill: #008000"/>
   </g>
   <g id="patch_97">
    <path d="M 431.677637 415.321635 
L 434.671004 415.321635 
L 434.671004 383.504708 
L 431.677637 383.504708 
z
" clip-path="url(#p842b23d7c7)" style="fill: #008000"/>
   </g>
   <g id="patch_98">
    <path d="M 435.419332 415.321635 
L 438.412699 415.321635 
L 438.412699 397.140534 
L 435.419332 397.140534 
z
" clip-path="url(#p842b23d7c7)" style="fill: #008000"/>
   </g>
   <g id="patch_99">
    <path d="M 439.161027 415.321635 
L 442.154394 415.321635 
L 442.154394 397.140534 
L 439.161027 397.140534 
z
" clip-path="url(#p842b23d7c7)" style="fill: #008000"/>
   </g>
   <g id="patch_100">
    <path d="M 442.902722 415.321635 
L 445.896089 415.321635 
L 445.896089 398.439184 
L 442.902722 398.439184 
z
" clip-path="url(#p842b23d7c7)" style="fill: #008000"/>
   </g>
   <g id="patch_101">
    <path d="M 446.644417 415.321635 
L 449.637784 415.321635 
L 449.637784 393.893909 
L 446.644417 393.893909 
z
" clip-path="url(#p842b23d7c7)" style="fill: #008000"/>
   </g>
   <g id="patch_102">
    <path d="M 450.386112 415.321635 
L 453.379479 415.321635 
L 453.379479 399.088509 
L 450.386112 399.088509 
z
" clip-path="url(#p842b23d7c7)" style="fill: #008000"/>
   </g>
   <g id="patch_103">
    <path d="M 454.127807 415.321635 
L 457.121174 415.321635 
L 457.121174 401.036484 
L 454.127807 401.036484 
z
" clip-path="url(#p842b23d7c7)" style="fill: #008000"/>
   </g>
   <g id="patch_104">
    <path d="M 457.869502 415.321635 
L 460.862869 415.321635 
L 460.862869 400.387159 
L 457.869502 400.387159 
z
" clip-path="url(#p842b23d7c7)" style="fill: #008000"/>
   </g>
   <g id="patch_105">
    <path d="M 461.611197 415.321635 
L 464.604564 415.321635 
L 464.604564 402.984459 
L 461.611197 402.984459 
z
" clip-path="url(#p842b23d7c7)" style="fill: #008000"/>
   </g>
   <g id="patch_106">
    <path d="M 465.352892 415.321635 
L 468.346259 415.321635 
L 468.346259 407.529735 
L 465.352892 407.529735 
z
" clip-path="url(#p842b23d7c7)" style="fill: #008000"/>
   </g>
   <g id="patch_107">
    <path d="M 469.094587 415.321635 
L 472.087954 415.321635 
L 472.087954 402.984459 
L 469.094587 402.984459 
z
" clip-path="url(#p842b23d7c7)" style="fill: #008000"/>
   </g>
   <g id="patch_108">
    <path d="M 472.836282 415.321635 
L 475.829649 415.321635 
L 475.829649 405.58176 
L 472.836282 405.58176 
z
" clip-path="url(#p842b23d7c7)" style="fill: #008000"/>
   </g>
   <g id="patch_109">
    <path d="M 476.577977 415.321635 
L 479.571344 415.321635 
L 479.571344 397.789859 
L 476.577977 397.789859 
z
" clip-path="url(#p842b23d7c7)" style="fill: #008000"/>
   </g>
   <g id="patch_110">
    <path d="M 480.319671 415.321635 
L 483.313039 415.321635 
L 483.313039 406.88041 
L 480.319671 406.88041 
z
" clip-path="url(#p842b23d7c7)" style="fill: #008000"/>
   </g>
   <g id="patch_111">
    <path d="M 484.061366 415.321635 
L 487.054734 415.321635 
L 487.054734 408.17906 
L 484.061366 408.17906 
z
" clip-path="url(#p842b23d7c7)" style="fill: #008000"/>
   </g>
   <g id="patch_112">
    <path d="M 487.803061 415.321635 
L 490.796429 415.321635 
L 490.796429 408.828385 
L 487.803061 408.828385 
z
" clip-path="url(#p842b23d7c7)" style="fill: #008000"/>
   </g>
   <g id="patch_113">
    <path d="M 491.544756 415.321635 
L 494.538124 415.321635 
L 494.538124 406.88041 
L 491.544756 406.88041 
z
" clip-path="url(#p842b23d7c7)" style="fill: #008000"/>
   </g>
   <g id="patch_114">
    <path d="M 495.286451 415.321635 
L 498.279819 415.321635 
L 498.279819 410.127035 
L 495.286451 410.127035 
z
" clip-path="url(#p842b23d7c7)" style="fill: #008000"/>
   </g>
   <g id="patch_115">
    <path d="M 499.028146 415.321635 
L 502.021514 415.321635 
L 502.021514 409.47771 
L 499.028146 409.47771 
z
" clip-path="url(#p842b23d7c7)" style="fill: #008000"/>
   </g>
   <g id="patch_116">
    <path d="M 502.769841 415.321635 
L 505.763209 415.321635 
L 505.763209 409.47771 
L 502.769841 409.47771 
z
" clip-path="url(#p842b23d7c7)" style="fill: #008000"/>
   </g>
   <g id="patch_117">
    <path d="M 506.511536 415.321635 
L 509.504904 415.321635 
L 509.504904 410.77636 
L 506.511536 410.77636 
z
" clip-path="url(#p842b23d7c7)" style="fill: #008000"/>
   </g>
   <g id="patch_118">
    <path d="M 510.253231 415.321635 
L 513.246599 415.321635 
L 513.246599 410.127035 
L 510.253231 410.127035 
z
" clip-path="url(#p842b23d7c7)" style="fill: #008000"/>
   </g>
   <g id="patch_119">
    <path d="M 513.994926 415.321635 
L 516.988294 415.321635 
L 516.988294 412.724335 
L 513.994926 412.724335 
z
" clip-path="url(#p842b23d7c7)" style="fill: #008000"/>
   </g>
   <g id="patch_120">
    <path d="M 517.736621 415.321635 
L 520.729989 415.321635 
L 520.729989 410.77636 
L 517.736621 410.77636 
z
" clip-path="url(#p842b23d7c7)" style="fill: #008000"/>
   </g>
   <g id="patch_121">
    <path d="M 521.478316 415.321635 
L 524.471684 415.321635 
L 524.471684 412.724335 
L 521.478316 412.724335 
z
" clip-path="url(#p842b23d7c7)" style="fill: #008000"/>
   </g>
   <g id="patch_122">
    <path d="M 525.220011 415.321635 
L 528.213379 415.321635 
L 528.213379 412.07501 
L 525.220011 412.07501 
z
" clip-path="url(#p842b23d7c7)" style="fill: #008000"/>
   </g>
   <g id="patch_123">
    <path d="M 528.961706 415.321635 
L 531.955074 415.321635 
L 531.955074 414.022985 
L 528.961706 414.022985 
z
" clip-path="url(#p842b23d7c7)" style="fill: #008000"/>
   </g>
   <g id="patch_124">
    <path d="M 532.703401 415.321635 
L 535.696769 415.321635 
L 535.696769 411.425685 
L 532.703401 411.425685 
z
" clip-path="url(#p842b23d7c7)" style="fill: #008000"/>
   </g>
   <g id="patch_125">
    <path d="M 536.445096 415.321635 
L 539.438464 415.321635 
L 539.438464 412.724335 
L 536.445096 412.724335 
z
" clip-path="url(#p842b23d7c7)" style="fill: #008000"/>
   </g>
   <g id="patch_126">
    <path d="M 540.186791 415.321635 
L 543.180159 415.321635 
L 543.180159 410.77636 
L 540.186791 410.77636 
z
" clip-path="url(#p842b23d7c7)" style="fill: #008000"/>
   </g>
   <g id="patch_127">
    <path d="M 543.928486 415.321635 
L 546.921853 415.321635 
L 546.921853 412.724335 
L 543.928486 412.724335 
z
" clip-path="url(#p842b23d7c7)" style="fill: #008000"/>
   </g>
   <g id="patch_128">
    <path d="M 547.670181 415.321635 
L 550.663548 415.321635 
L 550.663548 411.425685 
L 547.670181 411.425685 
z
" clip-path="url(#p842b23d7c7)" style="fill: #008000"/>
   </g>
   <g id="patch_129">
    <path d="M 551.411876 415.321635 
L 554.405243 415.321635 
L 554.405243 414.67231 
L 551.411876 414.67231 
z
" clip-path="url(#p842b23d7c7)" style="fill: #008000"/>
   </g>
   <g id="patch_130">
    <path d="M 555.153571 415.321635 
L 558.146938 415.321635 
L 558.146938 414.022985 
L 555.153571 414.022985 
z
" clip-path="url(#p842b23d7c7)" style="fill: #008000"/>
   </g>
   <g id="patch_131">
    <path d="M 558.895266 415.321635 
L 561.888605 415.321635 
L 561.888605 415.321635 
L 558.895266 415.321635 
z
" clip-path="url(#p842b23d7c7)" style="fill: #008000"/>
   </g>
   <g id="patch_132">
    <path d="M 562.63699 415.321635 
L 565.630357 415.321635 
L 565.630357 412.724335 
L 562.63699 412.724335 
z
" clip-path="url(#p842b23d7c7)" style="fill: #008000"/>
   </g>
   <g id="patch_133">
    <path d="M 566.378684 415.321635 
L 569.372052 415.321635 
L 569.372052 414.022985 
L 566.378684 414.022985 
z
" clip-path="url(#p842b23d7c7)" style="fill: #008000"/>
   </g>
   <g id="patch_134">
    <path d="M 570.120379 415.321635 
L 573.113747 415.321635 
L 573.113747 412.724335 
L 570.120379 412.724335 
z
" clip-path="url(#p842b23d7c7)" style="fill: #008000"/>
   </g>
   <g id="patch_135">
    <path d="M 573.862074 415.321635 
L 576.855442 415.321635 
L 576.855442 414.67231 
L 573.862074 414.67231 
z
" clip-path="url(#p842b23d7c7)" style="fill: #008000"/>
   </g>
   <g id="patch_136">
    <path d="M 577.603769 415.321635 
L 580.597137 415.321635 
L 580.597137 413.37366 
L 577.603769 413.37366 
z
" clip-path="url(#p842b23d7c7)" style="fill: #008000"/>
   </g>
   <g id="patch_137">
    <path d="M 581.345464 415.321635 
L 584.338832 415.321635 
L 584.338832 415.321635 
L 581.345464 415.321635 
z
" clip-path="url(#p842b23d7c7)" style="fill: #008000"/>
   </g>
   <g id="patch_138">
    <path d="M 585.087159 415.321635 
L 588.080527 415.321635 
L 588.080527 414.67231 
L 585.087159 414.67231 
z
" clip-path="url(#p842b23d7c7)" style="fill: #008000"/>
   </g>
   <g id="patch_139">
    <path d="M 588.828854 415.321635 
L 591.822222 415.321635 
L 591.822222 414.67231 
L 588.828854 414.67231 
z
" clip-path="url(#p842b23d7c7)" style="fill: #008000"/>
   </g>
   <g id="patch_140">
    <path d="M 592.570549 415.321635 
L 595.563917 415.321635 
L 595.563917 415.321635 
L 592.570549 415.321635 
z
" clip-path="url(#p842b23d7c7)" style="fill: #008000"/>
   </g>
   <g id="patch_141">
    <path d="M 596.312244 415.321635 
L 599.305612 415.321635 
L 599.305612 415.321635 
L 596.312244 415.321635 
z
" clip-path="url(#p842b23d7c7)" style="fill: #008000"/>
   </g>
   <g id="patch_142">
    <path d="M 600.053939 415.321635 
L 603.047307 415.321635 
L 603.047307 415.321635 
L 600.053939 415.321635 
z
" clip-path="url(#p842b23d7c7)" style="fill: #008000"/>
   </g>
   <g id="patch_143">
    <path d="M 603.795634 415.321635 
L 606.789002 415.321635 
L 606.789002 414.67231 
L 603.795634 414.67231 
z
" clip-path="url(#p842b23d7c7)" style="fill: #008000"/>
   </g>
   <g id="patch_144">
    <path d="M 607.537329 415.321635 
L 610.530697 415.321635 
L 610.530697 414.67231 
L 607.537329 414.67231 
z
" clip-path="url(#p842b23d7c7)" style="fill: #008000"/>
   </g>
   <g id="patch_145">
    <path d="M 611.279024 415.321635 
L 614.272392 415.321635 
L 614.272392 415.321635 
L 611.279024 415.321635 
z
" clip-path="url(#p842b23d7c7)" style="fill: #008000"/>
   </g>
   <g id="patch_146">
    <path d="M 615.020719 415.321635 
L 618.014087 415.321635 
L 618.014087 415.321635 
L 615.020719 415.321635 
z
" clip-path="url(#p842b23d7c7)" style="fill: #008000"/>
   </g>
   <g id="patch_147">
    <path d="M 618.762414 415.321635 
L 621.755782 415.321635 
L 621.755782 415.321635 
L 618.762414 415.321635 
z
" clip-path="url(#p842b23d7c7)" style="fill: #008000"/>
   </g>
   <g id="patch_148">
    <path d="M 622.504109 415.321635 
L 625.497477 415.321635 
L 625.497477 415.321635 
L 622.504109 415.321635 
z
" clip-path="url(#p842b23d7c7)" style="fill: #008000"/>
   </g>
   <g id="patch_149">
    <path d="M 626.245804 415.321635 
L 629.239171 415.321635 
L 629.239171 415.321635 
L 626.245804 415.321635 
z
" clip-path="url(#p842b23d7c7)" style="fill: #008000"/>
   </g>
   <g id="patch_150">
    <path d="M 629.987499 415.321635 
L 632.980866 415.321635 
L 632.980866 415.321635 
L 629.987499 415.321635 
z
" clip-path="url(#p842b23d7c7)" style="fill: #008000"/>
   </g>
   <g id="patch_151">
    <path d="M 633.729194 415.321635 
L 636.722561 415.321635 
L 636.722561 415.321635 
L 633.729194 415.321635 
z
" clip-path="url(#p842b23d7c7)" style="fill: #008000"/>
   </g>
   <g id="patch_152">
    <path d="M 637.470889 415.321635 
L 640.464256 415.321635 
L 640.464256 415.321635 
L 637.470889 415.321635 
z
" clip-path="url(#p842b23d7c7)" style="fill: #008000"/>
   </g>
   <g id="patch_153">
    <path d="M 641.212584 415.321635 
L 644.205951 415.321635 
L 644.205951 415.321635 
L 641.212584 415.321635 
z
" clip-path="url(#p842b23d7c7)" style="fill: #008000"/>
   </g>
   <g id="patch_154">
    <path d="M 644.954279 415.321635 
L 647.947646 415.321635 
L 647.947646 415.321635 
L 644.954279 415.321635 
z
" clip-path="url(#p842b23d7c7)" style="fill: #008000"/>
   </g>
   <g id="patch_155">
    <path d="M 648.695974 415.321635 
L 651.689341 415.321635 
L 651.689341 414.67231 
L 648.695974 414.67231 
z
" clip-path="url(#p842b23d7c7)" style="fill: #008000"/>
   </g>
   <g id="patch_156">
    <path d="M 652.437669 415.321635 
L 655.431036 415.321635 
L 655.431036 415.321635 
L 652.437669 415.321635 
z
" clip-path="url(#p842b23d7c7)" style="fill: #008000"/>
   </g>
   <g id="patch_157">
    <path d="M 656.179364 415.321635 
L 659.172731 415.321635 
L 659.172731 414.67231 
L 656.179364 414.67231 
z
" clip-path="url(#p842b23d7c7)" style="fill: #008000"/>
   </g>
   <g id="patch_158">
    <path d="M 659.921059 415.321635 
L 662.914426 415.321635 
L 662.914426 415.321635 
L 659.921059 415.321635 
z
" clip-path="url(#p842b23d7c7)" style="fill: #008000"/>
   </g>
   <g id="patch_159">
    <path d="M 663.662754 415.321635 
L 666.656121 415.321635 
L 666.656121 415.321635 
L 663.662754 415.321635 
z
" clip-path="url(#p842b23d7c7)" style="fill: #008000"/>
   </g>
   <g id="patch_160">
    <path d="M 667.404449 415.321635 
L 670.397816 415.321635 
L 670.397816 415.321635 
L 667.404449 415.321635 
z
" clip-path="url(#p842b23d7c7)" style="fill: #008000"/>
   </g>
   <g id="patch_161">
    <path d="M 671.146144 415.321635 
L 674.139511 415.321635 
L 674.139511 415.321635 
L 671.146144 415.321635 
z
" clip-path="url(#p842b23d7c7)" style="fill: #008000"/>
   </g>
   <g id="patch_162">
    <path d="M 674.887839 415.321635 
L 677.881206 415.321635 
L 677.881206 415.321635 
L 674.887839 415.321635 
z
" clip-path="url(#p842b23d7c7)" style="fill: #008000"/>
   </g>
   <g id="patch_163">
    <path d="M 678.629534 415.321635 
L 681.622901 415.321635 
L 681.622901 414.67231 
L 678.629534 414.67231 
z
" clip-path="url(#p842b23d7c7)" style="fill: #008000"/>
   </g>
   <g id="patch_164">
    <path d="M 682.371229 415.321635 
L 685.364596 415.321635 
L 685.364596 415.321635 
L 682.371229 415.321635 
z
" clip-path="url(#p842b23d7c7)" style="fill: #008000"/>
   </g>
   <g id="patch_165">
    <path d="M 686.112924 415.321635 
L 689.106291 415.321635 
L 689.106291 415.321635 
L 686.112924 415.321635 
z
" clip-path="url(#p842b23d7c7)" style="fill: #008000"/>
   </g>
   <g id="patch_166">
    <path d="M 689.854619 415.321635 
L 692.847986 415.321635 
L 692.847986 415.321635 
L 689.854619 415.321635 
z
" clip-path="url(#p842b23d7c7)" style="fill: #008000"/>
   </g>
   <g id="patch_167">
    <path d="M 693.596314 415.321635 
L 696.589681 415.321635 
L 696.589681 415.321635 
L 693.596314 415.321635 
z
" clip-path="url(#p842b23d7c7)" style="fill: #008000"/>
   </g>
   <g id="patch_168">
    <path d="M 697.338009 415.321635 
L 700.331376 415.321635 
L 700.331376 414.67231 
L 697.338009 414.67231 
z
" clip-path="url(#p842b23d7c7)" style="fill: #008000"/>
   </g>
   <g id="patch_169">
    <path d="M 701.079704 415.321635 
L 704.073071 415.321635 
L 704.073071 415.321635 
L 701.079704 415.321635 
z
" clip-path="url(#p842b23d7c7)" style="fill: #008000"/>
   </g>
   <g id="patch_170">
    <path d="M 704.821399 415.321635 
L 707.814766 415.321635 
L 707.814766 415.321635 
L 704.821399 415.321635 
z
" clip-path="url(#p842b23d7c7)" style="fill: #008000"/>
   </g>
   <g id="patch_171">
    <path d="M 708.563094 415.321635 
L 711.556461 415.321635 
L 711.556461 415.321635 
L 708.563094 415.321635 
z
" clip-path="url(#p842b23d7c7)" style="fill: #008000"/>
   </g>
   <g id="patch_172">
    <path d="M 712.304789 415.321635 
L 715.298156 415.321635 
L 715.298156 415.321635 
L 712.304789 415.321635 
z
" clip-path="url(#p842b23d7c7)" style="fill: #008000"/>
   </g>
   <g id="patch_173">
    <path d="M 716.046484 415.321635 
L 719.039851 415.321635 
L 719.039851 415.321635 
L 716.046484 415.321635 
z
" clip-path="url(#p842b23d7c7)" style="fill: #008000"/>
   </g>
   <g id="patch_174">
    <path d="M 719.788178 415.321635 
L 722.781546 415.321635 
L 722.781546 415.321635 
L 719.788178 415.321635 
z
" clip-path="url(#p842b23d7c7)" style="fill: #008000"/>
   </g>
   <g id="patch_175">
    <path d="M 723.529873 415.321635 
L 726.523241 415.321635 
L 726.523241 415.321635 
L 723.529873 415.321635 
z
" clip-path="url(#p842b23d7c7)" style="fill: #008000"/>
   </g>
   <g id="patch_176">
    <path d="M 727.271568 415.321635 
L 730.264936 415.321635 
L 730.264936 415.321635 
L 727.271568 415.321635 
z
" clip-path="url(#p842b23d7c7)" style="fill: #008000"/>
   </g>
   <g id="patch_177">
    <path d="M 731.013263 415.321635 
L 734.006631 415.321635 
L 734.006631 415.321635 
L 731.013263 415.321635 
z
" clip-path="url(#p842b23d7c7)" style="fill: #008000"/>
   </g>
   <g id="patch_178">
    <path d="M 734.754958 415.321635 
L 737.748326 415.321635 
L 737.748326 415.321635 
L 734.754958 415.321635 
z
" clip-path="url(#p842b23d7c7)" style="fill: #008000"/>
   </g>
   <g id="patch_179">
    <path d="M 738.496653 415.321635 
L 741.490021 415.321635 
L 741.490021 415.321635 
L 738.496653 415.321635 
z
" clip-path="url(#p842b23d7c7)" style="fill: #008000"/>
   </g>
   <g id="patch_180">
    <path d="M 742.238348 415.321635 
L 745.231716 415.321635 
L 745.231716 415.321635 
L 742.238348 415.321635 
z
" clip-path="url(#p842b23d7c7)" style="fill: #008000"/>
   </g>
   <g id="patch_181">
    <path d="M 745.980043 415.321635 
L 748.973411 415.321635 
L 748.973411 415.321635 
L 745.980043 415.321635 
z
" clip-path="url(#p842b23d7c7)" style="fill: #008000"/>
   </g>
   <g id="patch_182">
    <path d="M 749.721738 415.321635 
L 752.715106 415.321635 
L 752.715106 415.321635 
L 749.721738 415.321635 
z
" clip-path="url(#p842b23d7c7)" style="fill: #008000"/>
   </g>
   <g id="patch_183">
    <path d="M 753.463433 415.321635 
L 756.456801 415.321635 
L 756.456801 415.321635 
L 753.463433 415.321635 
z
" clip-path="url(#p842b23d7c7)" style="fill: #008000"/>
   </g>
   <g id="patch_184">
    <path d="M 757.205128 415.321635 
L 760.198496 415.321635 
L 760.198496 415.321635 
L 757.205128 415.321635 
z
" clip-path="url(#p842b23d7c7)" style="fill: #008000"/>
   </g>
   <g id="patch_185">
    <path d="M 760.946823 415.321635 
L 763.940191 415.321635 
L 763.940191 415.321635 
L 760.946823 415.321635 
z
" clip-path="url(#p842b23d7c7)" style="fill: #008000"/>
   </g>
   <g id="patch_186">
    <path d="M 764.688518 415.321635 
L 767.681886 415.321635 
L 767.681886 415.321635 
L 764.688518 415.321635 
z
" clip-path="url(#p842b23d7c7)" style="fill: #008000"/>
   </g>
   <g id="patch_187">
    <path d="M 768.430213 415.321635 
L 771.423581 415.321635 
L 771.423581 415.321635 
L 768.430213 415.321635 
z
" clip-path="url(#p842b23d7c7)" style="fill: #008000"/>
   </g>
   <g id="patch_188">
    <path d="M 772.171908 415.321635 
L 775.165276 415.321635 
L 775.165276 415.321635 
L 772.171908 415.321635 
z
" clip-path="url(#p842b23d7c7)" style="fill: #008000"/>
   </g>
   <g id="patch_189">
    <path d="M 775.913603 415.321635 
L 778.906971 415.321635 
L 778.906971 415.321635 
L 775.913603 415.321635 
z
" clip-path="url(#p842b23d7c7)" style="fill: #008000"/>
   </g>
   <g id="patch_190">
    <path d="M 779.655298 415.321635 
L 782.648665 415.321635 
L 782.648665 415.321635 
L 779.655298 415.321635 
z
" clip-path="url(#p842b23d7c7)" style="fill: #008000"/>
   </g>
   <g id="patch_191">
    <path d="M 783.396993 415.321635 
L 786.39036 415.321635 
L 786.39036 415.321635 
L 783.396993 415.321635 
z
" clip-path="url(#p842b23d7c7)" style="fill: #008000"/>
   </g>
   <g id="patch_192">
    <path d="M 787.138688 415.321635 
L 790.132055 415.321635 
L 790.132055 415.321635 
L 787.138688 415.321635 
z
" clip-path="url(#p842b23d7c7)" style="fill: #008000"/>
   </g>
   <g id="patch_193">
    <path d="M 790.880383 415.321635 
L 793.87375 415.321635 
L 793.87375 415.321635 
L 790.880383 415.321635 
z
" clip-path="url(#p842b23d7c7)" style="fill: #008000"/>
   </g>
   <g id="patch_194">
    <path d="M 794.622078 415.321635 
L 797.615445 415.321635 
L 797.615445 415.321635 
L 794.622078 415.321635 
z
" clip-path="url(#p842b23d7c7)" style="fill: #008000"/>
   </g>
   <g id="patch_195">
    <path d="M 798.363773 415.321635 
L 801.35714 415.321635 
L 801.35714 415.321635 
L 798.363773 415.321635 
z
" clip-path="url(#p842b23d7c7)" style="fill: #008000"/>
   </g>
   <g id="patch_196">
    <path d="M 802.105468 415.321635 
L 805.098835 415.321635 
L 805.098835 415.321635 
L 802.105468 415.321635 
z
" clip-path="url(#p842b23d7c7)" style="fill: #008000"/>
   </g>
   <g id="patch_197">
    <path d="M 805.847163 415.321635 
L 808.84053 415.321635 
L 808.84053 415.321635 
L 805.847163 415.321635 
z
" clip-path="url(#p842b23d7c7)" style="fill: #008000"/>
   </g>
   <g id="patch_198">
    <path d="M 809.588858 415.321635 
L 812.582225 415.321635 
L 812.582225 415.321635 
L 809.588858 415.321635 
z
" clip-path="url(#p842b23d7c7)" style="fill: #008000"/>
   </g>
   <g id="patch_199">
    <path d="M 813.330553 415.321635 
L 816.32392 415.321635 
L 816.32392 415.321635 
L 813.330553 415.321635 
z
" clip-path="url(#p842b23d7c7)" style="fill: #008000"/>
   </g>
   <g id="patch_200">
    <path d="M 817.072248 415.321635 
L 820.065615 415.321635 
L 820.065615 415.321635 
L 817.072248 415.321635 
z
" clip-path="url(#p842b23d7c7)" style="fill: #008000"/>
   </g>
   <g id="patch_201">
    <path d="M 820.813943 415.321635 
L 823.80731 415.321635 
L 823.80731 415.321635 
L 820.813943 415.321635 
z
" clip-path="url(#p842b23d7c7)" style="fill: #008000"/>
   </g>
   <g id="patch_202">
    <path d="M 79.958315 415.321635 
L 82.951671 415.321635 
L 82.951671 415.321635 
L 79.958315 415.321635 
z
" clip-path="url(#p842b23d7c7)" style="fill: #800080"/>
   </g>
   <g id="patch_203">
    <path d="M 83.70001 399.737834 
L 86.693366 399.737834 
L 86.693366 399.737834 
L 83.70001 399.737834 
z
" clip-path="url(#p842b23d7c7)" style="fill: #800080"/>
   </g>
   <g id="patch_204">
    <path d="M 87.441705 406.88041 
L 90.435061 406.88041 
L 90.435061 406.88041 
L 87.441705 406.88041 
z
" clip-path="url(#p842b23d7c7)" style="fill: #800080"/>
   </g>
   <g id="patch_205">
    <path d="M 91.183399 402.984459 
L 94.176755 402.984459 
L 94.176755 402.984459 
L 91.183399 402.984459 
z
" clip-path="url(#p842b23d7c7)" style="fill: #800080"/>
   </g>
   <g id="patch_206">
    <path d="M 94.925094 399.088509 
L 97.918451 399.088509 
L 97.918451 399.088509 
L 94.925094 399.088509 
z
" clip-path="url(#p842b23d7c7)" style="fill: #800080"/>
   </g>
   <g id="patch_207">
    <path d="M 98.666789 394.543234 
L 101.660146 394.543234 
L 101.660146 394.543234 
L 98.666789 394.543234 
z
" clip-path="url(#p842b23d7c7)" style="fill: #800080"/>
   </g>
   <g id="patch_208">
    <path d="M 102.408484 395.841884 
L 105.401841 395.841884 
L 105.401841 395.841884 
L 102.408484 395.841884 
z
" clip-path="url(#p842b23d7c7)" style="fill: #800080"/>
   </g>
   <g id="patch_209">
    <path d="M 106.150179 388.699309 
L 109.143536 388.699309 
L 109.143536 388.699309 
L 106.150179 388.699309 
z
" clip-path="url(#p842b23d7c7)" style="fill: #800080"/>
   </g>
   <g id="patch_210">
    <path d="M 109.891874 386.102009 
L 112.885229 386.102009 
L 112.885229 386.102009 
L 109.891874 386.102009 
z
" clip-path="url(#p842b23d7c7)" style="fill: #800080"/>
   </g>
   <g id="patch_211">
    <path d="M 113.633571 384.154033 
L 116.626928 384.154033 
L 116.626928 384.154033 
L 113.633571 384.154033 
z
" clip-path="url(#p842b23d7c7)" style="fill: #800080"/>
   </g>
   <g id="patch_212">
    <path d="M 117.375266 386.751334 
L 120.368623 386.751334 
L 120.368623 386.751334 
L 117.375266 386.751334 
z
" clip-path="url(#p842b23d7c7)" style="fill: #800080"/>
   </g>
   <g id="patch_213">
    <path d="M 121.116961 383.504708 
L 124.110318 383.504708 
L 124.110318 383.504708 
L 121.116961 383.504708 
z
" clip-path="url(#p842b23d7c7)" style="fill: #800080"/>
   </g>
   <g id="patch_214">
    <path d="M 124.858656 369.219558 
L 127.852013 369.219558 
L 127.852013 369.219558 
L 124.858656 369.219558 
z
" clip-path="url(#p842b23d7c7)" style="fill: #800080"/>
   </g>
   <g id="patch_215">
    <path d="M 128.600351 369.868883 
L 131.593708 369.868883 
L 131.593708 369.868883 
L 128.600351 369.868883 
z
" clip-path="url(#p842b23d7c7)" style="fill: #800080"/>
   </g>
   <g id="patch_216">
    <path d="M 132.342046 368.570233 
L 135.335403 368.570233 
L 135.335403 368.570233 
L 132.342046 368.570233 
z
" clip-path="url(#p842b23d7c7)" style="fill: #800080"/>
   </g>
   <g id="patch_217">
    <path d="M 136.083741 356.882382 
L 139.077098 356.882382 
L 139.077098 356.882382 
L 136.083741 356.882382 
z
" clip-path="url(#p842b23d7c7)" style="fill: #800080"/>
   </g>
   <g id="patch_218">
    <path d="M 139.825436 352.337107 
L 142.818789 352.337107 
L 142.818789 352.337107 
L 139.825436 352.337107 
z
" clip-path="url(#p842b23d7c7)" style="fill: #800080"/>
   </g>
   <g id="patch_219">
    <path d="M 143.567131 342.597231 
L 146.560484 342.597231 
L 146.560484 342.597231 
L 143.567131 342.597231 
z
" clip-path="url(#p842b23d7c7)" style="fill: #800080"/>
   </g>
   <g id="patch_220">
    <path d="M 147.308826 334.156006 
L 150.302179 334.156006 
L 150.302179 334.156006 
L 147.308826 334.156006 
z
" clip-path="url(#p842b23d7c7)" style="fill: #800080"/>
   </g>
   <g id="patch_221">
    <path d="M 151.050521 338.701281 
L 154.043874 338.701281 
L 154.043874 338.701281 
L 151.050521 338.701281 
z
" clip-path="url(#p842b23d7c7)" style="fill: #800080"/>
   </g>
   <g id="patch_222">
    <path d="M 154.792216 318.572205 
L 157.785569 318.572205 
L 157.785569 318.572205 
L 154.792216 318.572205 
z
" clip-path="url(#p842b23d7c7)" style="fill: #800080"/>
   </g>
   <g id="patch_223">
    <path d="M 158.533911 315.32558 
L 161.527264 315.32558 
L 161.527264 315.32558 
L 158.533911 315.32558 
z
" clip-path="url(#p842b23d7c7)" style="fill: #800080"/>
   </g>
   <g id="patch_224">
    <path d="M 162.275606 314.676255 
L 165.268959 314.676255 
L 165.268959 314.676255 
L 162.275606 314.676255 
z
" clip-path="url(#p842b23d7c7)" style="fill: #800080"/>
   </g>
   <g id="patch_225">
    <path d="M 166.017301 310.13098 
L 169.010654 310.13098 
L 169.010654 310.13098 
L 166.017301 310.13098 
z
" clip-path="url(#p842b23d7c7)" style="fill: #800080"/>
   </g>
   <g id="patch_226">
    <path d="M 169.758996 285.456629 
L 172.752349 285.456629 
L 172.752349 285.456629 
L 169.758996 285.456629 
z
" clip-path="url(#p842b23d7c7)" style="fill: #800080"/>
   </g>
   <g id="patch_227">
    <path d="M 173.500691 290.001904 
L 176.494044 290.001904 
L 176.494044 290.001904 
L 173.500691 290.001904 
z
" clip-path="url(#p842b23d7c7)" style="fill: #800080"/>
   </g>
   <g id="patch_228">
    <path d="M 177.242386 283.508654 
L 180.235739 283.508654 
L 180.235739 283.508654 
L 177.242386 283.508654 
z
" clip-path="url(#p842b23d7c7)" style="fill: #800080"/>
   </g>
   <g id="patch_229">
    <path d="M 180.984081 258.184977 
L 183.977434 258.184977 
L 183.977434 258.184977 
L 180.984081 258.184977 
z
" clip-path="url(#p842b23d7c7)" style="fill: #800080"/>
   </g>
   <g id="patch_230">
    <path d="M 184.725776 243.899827 
L 187.719129 243.899827 
L 187.719129 243.899827 
L 184.725776 243.899827 
z
" clip-path="url(#p842b23d7c7)" style="fill: #800080"/>
   </g>
   <g id="patch_231">
    <path d="M 188.467471 210.134925 
L 191.460824 210.134925 
L 191.460824 210.134925 
L 188.467471 210.134925 
z
" clip-path="url(#p842b23d7c7)" style="fill: #800080"/>
   </g>
   <g id="patch_232">
    <path d="M 192.209165 214.6802 
L 195.202519 214.6802 
L 195.202519 214.6802 
L 192.209165 214.6802 
z
" clip-path="url(#p842b23d7c7)" style="fill: #800080"/>
   </g>
   <g id="patch_233">
    <path d="M 195.95086 180.265974 
L 198.944214 180.265974 
L 198.944214 180.265974 
L 195.95086 180.265974 
z
" clip-path="url(#p842b23d7c7)" style="fill: #800080"/>
   </g>
   <g id="patch_234">
    <path d="M 199.692555 171.175423 
L 202.685916 171.175423 
L 202.685916 171.175423 
L 199.692555 171.175423 
z
" clip-path="url(#p842b23d7c7)" style="fill: #800080"/>
   </g>
   <g id="patch_235">
    <path d="M 203.434243 183.512599 
L 206.427596 183.512599 
L 206.427596 183.512599 
L 203.434243 183.512599 
z
" clip-path="url(#p842b23d7c7)" style="fill: #800080"/>
   </g>
   <g id="patch_236">
    <path d="M 207.175938 154.942297 
L 210.169291 154.942297 
L 210.169291 154.942297 
L 207.175938 154.942297 
z
" clip-path="url(#p842b23d7c7)" style="fill: #800080"/>
   </g>
   <g id="patch_237">
    <path d="M 210.917633 140.657147 
L 213.910986 140.657147 
L 213.910986 140.657147 
L 210.917633 140.657147 
z
" clip-path="url(#p842b23d7c7)" style="fill: #800080"/>
   </g>
   <g id="patch_238">
    <path d="M 214.659328 123.774696 
L 217.652681 123.774696 
L 217.652681 123.774696 
L 214.659328 123.774696 
z
" clip-path="url(#p842b23d7c7)" style="fill: #800080"/>
   </g>
   <g id="patch_239">
    <path d="M 218.401023 131.566596 
L 221.394376 131.566596 
L 221.394376 131.566596 
L 218.401023 131.566596 
z
" clip-path="url(#p842b23d7c7)" style="fill: #800080"/>
   </g>
   <g id="patch_240">
    <path d="M 222.142718 70.530043 
L 225.136071 70.530043 
L 225.136071 70.530043 
L 222.142718 70.530043 
z
" clip-path="url(#p842b23d7c7)" style="fill: #800080"/>
   </g>
   <g id="patch_241">
    <path d="M 225.884413 80.269919 
L 228.877766 80.269919 
L 228.877766 80.269919 
L 225.884413 80.269919 
z
" clip-path="url(#p842b23d7c7)" style="fill: #800080"/>
   </g>
   <g id="patch_242">
    <path d="M 229.626108 54.946243 
L 232.619461 54.946243 
L 232.619461 54.946243 
L 229.626108 54.946243 
z
" clip-path="url(#p842b23d7c7)" style="fill: #800080"/>
   </g>
   <g id="patch_243">
    <path d="M 233.367803 45.855692 
L 236.361156 45.855692 
L 236.361156 45.855692 
L 233.367803 45.855692 
z
" clip-path="url(#p842b23d7c7)" style="fill: #800080"/>
   </g>
   <g id="patch_244">
    <path d="M 237.109498 27.674591 
L 240.102851 27.674591 
L 240.102851 27.674591 
L 237.109498 27.674591 
z
" clip-path="url(#p842b23d7c7)" style="fill: #800080"/>
   </g>
   <g id="patch_245">
    <path d="M 240.851193 41.959742 
L 243.844546 41.959742 
L 243.844546 41.959742 
L 240.851193 41.959742 
z
" clip-path="url(#p842b23d7c7)" style="fill: #800080"/>
   </g>
   <g id="patch_246">
    <path d="M 244.592888 35.466492 
L 247.586241 35.466492 
L 247.586241 35.466492 
L 244.592888 35.466492 
z
" clip-path="url(#p842b23d7c7)" style="fill: #800080"/>
   </g>
   <g id="patch_247">
    <path d="M 248.334583 3.00024 
L 251.327936 3.00024 
L 251.327936 3.00024 
L 248.334583 3.00024 
z
" clip-path="url(#p842b23d7c7)" style="fill: #800080"/>
   </g>
   <g id="patch_248">
    <path d="M 252.076278 20.532016 
L 255.069631 20.532016 
L 255.069631 20.532016 
L 252.076278 20.532016 
z
" clip-path="url(#p842b23d7c7)" style="fill: #800080"/>
   </g>
   <g id="patch_249">
    <path d="M 255.817973 8.844165 
L 258.811326 8.844165 
L 258.811326 8.844165 
L 255.817973 8.844165 
z
" clip-path="url(#p842b23d7c7)" style="fill: #800080"/>
   </g>
   <g id="patch_250">
    <path d="M 259.559668 41.310417 
L 262.553021 41.310417 
L 262.553021 41.310417 
L 259.559668 41.310417 
z
" clip-path="url(#p842b23d7c7)" style="fill: #800080"/>
   </g>
   <g id="patch_251">
    <path d="M 263.301363 3.649565 
L 266.294716 3.649565 
L 266.294716 3.649565 
L 263.301363 3.649565 
z
" clip-path="url(#p842b23d7c7)" style="fill: #800080"/>
   </g>
   <g id="patch_252">
    <path d="M 267.043058 6.89619 
L 270.036411 6.89619 
L 270.036411 6.89619 
L 267.043058 6.89619 
z
" clip-path="url(#p842b23d7c7)" style="fill: #800080"/>
   </g>
   <g id="patch_253">
    <path d="M 270.784753 34.167842 
L 273.778106 34.167842 
L 273.778106 34.167842 
L 270.784753 34.167842 
z
" clip-path="url(#p842b23d7c7)" style="fill: #800080"/>
   </g>
   <g id="patch_254">
    <path d="M 274.526448 31.570541 
L 277.519801 31.570541 
L 277.519801 31.570541 
L 274.526448 31.570541 
z
" clip-path="url(#p842b23d7c7)" style="fill: #800080"/>
   </g>
   <g id="patch_255">
    <path d="M 278.268143 51.699617 
L 281.261496 51.699617 
L 281.261496 51.699617 
L 278.268143 51.699617 
z
" clip-path="url(#p842b23d7c7)" style="fill: #800080"/>
   </g>
   <g id="patch_256">
    <path d="M 282.009838 46.505017 
L 285.003191 46.505017 
L 285.003191 46.505017 
L 282.009838 46.505017 
z
" clip-path="url(#p842b23d7c7)" style="fill: #800080"/>
   </g>
   <g id="patch_257">
    <path d="M 285.751533 71.828693 
L 288.744886 71.828693 
L 288.744886 71.828693 
L 285.751533 71.828693 
z
" clip-path="url(#p842b23d7c7)" style="fill: #800080"/>
   </g>
   <g id="patch_258">
    <path d="M 289.493228 43.907717 
L 292.486581 43.907717 
L 292.486581 43.907717 
L 289.493228 43.907717 
z
" clip-path="url(#p842b23d7c7)" style="fill: #800080"/>
   </g>
   <g id="patch_259">
    <path d="M 293.234923 86.763169 
L 296.228276 86.763169 
L 296.228276 86.763169 
L 293.234923 86.763169 
z
" clip-path="url(#p842b23d7c7)" style="fill: #800080"/>
   </g>
   <g id="patch_260">
    <path d="M 296.976618 103.64562 
L 299.969971 103.64562 
L 299.969971 103.64562 
L 296.976618 103.64562 
z
" clip-path="url(#p842b23d7c7)" style="fill: #800080"/>
   </g>
   <g id="patch_261">
    <path d="M 300.718313 96.503045 
L 303.711666 96.503045 
L 303.711666 96.503045 
L 300.718313 96.503045 
z
" clip-path="url(#p842b23d7c7)" style="fill: #800080"/>
   </g>
   <g id="patch_262">
    <path d="M 304.460008 118.580096 
L 307.453361 118.580096 
L 307.453361 118.580096 
L 304.460008 118.580096 
z
" clip-path="url(#p842b23d7c7)" style="fill: #800080"/>
   </g>
   <g id="patch_263">
    <path d="M 308.201703 110.788195 
L 311.195056 110.788195 
L 311.195056 110.788195 
L 308.201703 110.788195 
z
" clip-path="url(#p842b23d7c7)" style="fill: #800080"/>
   </g>
   <g id="patch_264">
    <path d="M 311.943398 154.942297 
L 314.936751 154.942297 
L 314.936751 154.942297 
L 311.943398 154.942297 
z
" clip-path="url(#p842b23d7c7)" style="fill: #800080"/>
   </g>
   <g id="patch_265">
    <path d="M 315.685093 185.460574 
L 318.678446 185.460574 
L 318.678446 185.460574 
L 315.685093 185.460574 
z
" clip-path="url(#p842b23d7c7)" style="fill: #800080"/>
   </g>
   <g id="patch_266">
    <path d="M 319.426788 184.161924 
L 322.420155 184.161924 
L 322.420155 184.161924 
L 319.426788 184.161924 
z
" clip-path="url(#p842b23d7c7)" style="fill: #800080"/>
   </g>
   <g id="patch_267">
    <path d="M 323.168483 190.655174 
L 326.16185 190.655174 
L 326.16185 190.655174 
L 323.168483 190.655174 
z
" clip-path="url(#p842b23d7c7)" style="fill: #800080"/>
   </g>
   <g id="patch_268">
    <path d="M 326.910177 206.8883 
L 329.903545 206.8883 
L 329.903545 206.8883 
L 326.910177 206.8883 
z
" clip-path="url(#p842b23d7c7)" style="fill: #800080"/>
   </g>
   <g id="patch_269">
    <path d="M 330.651872 214.6802 
L 333.64524 214.6802 
L 333.64524 214.6802 
L 330.651872 214.6802 
z
" clip-path="url(#p842b23d7c7)" style="fill: #800080"/>
   </g>
   <g id="patch_270">
    <path d="M 334.393567 230.264001 
L 337.386935 230.264001 
L 337.386935 230.264001 
L 334.393567 230.264001 
z
" clip-path="url(#p842b23d7c7)" style="fill: #800080"/>
   </g>
   <g id="patch_271">
    <path d="M 338.135262 238.705226 
L 341.12863 238.705226 
L 341.12863 238.705226 
L 338.135262 238.705226 
z
" clip-path="url(#p842b23d7c7)" style="fill: #800080"/>
   </g>
   <g id="patch_272">
    <path d="M 341.876957 260.782278 
L 344.870325 260.782278 
L 344.870325 260.782278 
L 341.876957 260.782278 
z
" clip-path="url(#p842b23d7c7)" style="fill: #800080"/>
   </g>
   <g id="patch_273">
    <path d="M 345.618652 267.275528 
L 348.61202 267.275528 
L 348.61202 267.275528 
L 345.618652 267.275528 
z
" clip-path="url(#p842b23d7c7)" style="fill: #800080"/>
   </g>
   <g id="patch_274">
    <path d="M 349.360347 288.053929 
L 352.353715 288.053929 
L 352.353715 288.053929 
L 349.360347 288.053929 
z
" clip-path="url(#p842b23d7c7)" style="fill: #800080"/>
   </g>
   <g id="patch_275">
    <path d="M 353.102042 283.508654 
L 356.09541 283.508654 
L 356.09541 283.508654 
L 353.102042 283.508654 
z
" clip-path="url(#p842b23d7c7)" style="fill: #800080"/>
   </g>
   <g id="patch_276">
    <path d="M 356.843737 297.144479 
L 359.837105 297.144479 
L 359.837105 297.144479 
L 356.843737 297.144479 
z
" clip-path="url(#p842b23d7c7)" style="fill: #800080"/>
   </g>
   <g id="patch_277">
    <path d="M 360.585432 304.287055 
L 363.5788 304.287055 
L 363.5788 304.287055 
L 360.585432 304.287055 
z
" clip-path="url(#p842b23d7c7)" style="fill: #800080"/>
   </g>
   <g id="patch_278">
    <path d="M 364.327127 323.766806 
L 367.320495 323.766806 
L 367.320495 323.766806 
L 364.327127 323.766806 
z
" clip-path="url(#p842b23d7c7)" style="fill: #800080"/>
   </g>
   <g id="patch_279">
    <path d="M 368.068822 325.065456 
L 371.06219 325.065456 
L 371.06219 325.065456 
L 368.068822 325.065456 
z
" clip-path="url(#p842b23d7c7)" style="fill: #800080"/>
   </g>
   <g id="patch_280">
    <path d="M 371.810517 327.013431 
L 374.803885 327.013431 
L 374.803885 327.013431 
L 371.810517 327.013431 
z
" clip-path="url(#p842b23d7c7)" style="fill: #800080"/>
   </g>
   <g id="patch_281">
    <path d="M 375.552212 333.506681 
L 378.54558 333.506681 
L 378.54558 333.506681 
L 375.552212 333.506681 
z
" clip-path="url(#p842b23d7c7)" style="fill: #800080"/>
   </g>
   <g id="patch_282">
    <path d="M 379.293907 338.051956 
L 382.287275 338.051956 
L 382.287275 336.103981 
L 379.293907 336.103981 
z
" clip-path="url(#p842b23d7c7)" style="fill: #800080"/>
   </g>
   <g id="patch_283">
    <path d="M 383.035602 341.947906 
L 386.02897 341.947906 
L 386.02897 341.947906 
L 383.035602 341.947906 
z
" clip-path="url(#p842b23d7c7)" style="fill: #800080"/>
   </g>
   <g id="patch_284">
    <path d="M 386.777297 346.493182 
L 389.770664 346.493182 
L 389.770664 346.493182 
L 386.777297 346.493182 
z
" clip-path="url(#p842b23d7c7)" style="fill: #800080"/>
   </g>
   <g id="patch_285">
    <path d="M 390.518992 361.427657 
L 393.512359 361.427657 
L 393.512359 359.479682 
L 390.518992 359.479682 
z
" clip-path="url(#p842b23d7c7)" style="fill: #800080"/>
   </g>
   <g id="patch_286">
    <path d="M 394.260687 363.375632 
L 397.254054 363.375632 
L 397.254054 362.726307 
L 394.260687 362.726307 
z
" clip-path="url(#p842b23d7c7)" style="fill: #800080"/>
   </g>
   <g id="patch_287">
    <path d="M 398.002382 360.778332 
L 400.995749 360.778332 
L 400.995749 359.479682 
L 398.002382 359.479682 
z
" clip-path="url(#p842b23d7c7)" style="fill: #800080"/>
   </g>
   <g id="patch_288">
    <path d="M 401.744077 371.816858 
L 404.737444 371.816858 
L 404.737444 369.868883 
L 401.744077 369.868883 
z
" clip-path="url(#p842b23d7c7)" style="fill: #800080"/>
   </g>
   <g id="patch_289">
    <path d="M 405.485772 379.608758 
L 408.479139 379.608758 
L 408.479139 377.011458 
L 405.485772 377.011458 
z
" clip-path="url(#p842b23d7c7)" style="fill: #800080"/>
   </g>
   <g id="patch_290">
    <path d="M 409.227467 377.660783 
L 412.220834 377.660783 
L 412.220834 376.362133 
L 409.227467 376.362133 
z
" clip-path="url(#p842b23d7c7)" style="fill: #800080"/>
   </g>
   <g id="patch_291">
    <path d="M 412.969162 382.206058 
L 415.962529 382.206058 
L 415.962529 380.907408 
L 412.969162 380.907408 
z
" clip-path="url(#p842b23d7c7)" style="fill: #800080"/>
   </g>
   <g id="patch_292">
    <path d="M 416.710857 378.959433 
L 419.704224 378.959433 
L 419.704224 377.660783 
L 416.710857 377.660783 
z
" clip-path="url(#p842b23d7c7)" style="fill: #800080"/>
   </g>
   <g id="patch_293">
    <path d="M 420.452552 388.699309 
L 423.445919 388.699309 
L 423.445919 386.102009 
L 420.452552 386.102009 
z
" clip-path="url(#p842b23d7c7)" style="fill: #800080"/>
   </g>
   <g id="patch_294">
    <path d="M 424.194247 388.049984 
L 427.187614 388.049984 
L 427.187614 385.452684 
L 424.194247 385.452684 
z
" clip-path="url(#p842b23d7c7)" style="fill: #800080"/>
   </g>
   <g id="patch_295">
    <path d="M 427.935942 389.348634 
L 430.929309 389.348634 
L 430.929309 388.699309 
L 427.935942 388.699309 
z
" clip-path="url(#p842b23d7c7)" style="fill: #800080"/>
   </g>
   <g id="patch_296">
    <path d="M 431.677637 383.504708 
L 434.671004 383.504708 
L 434.671004 380.907408 
L 431.677637 380.907408 
z
" clip-path="url(#p842b23d7c7)" style="fill: #800080"/>
   </g>
   <g id="patch_297">
    <path d="M 435.419332 397.140534 
L 438.412699 397.140534 
L 438.412699 395.841884 
L 435.419332 395.841884 
z
" clip-path="url(#p842b23d7c7)" style="fill: #800080"/>
   </g>
   <g id="patch_298">
    <path d="M 439.161027 397.140534 
L 442.154394 397.140534 
L 442.154394 393.244584 
L 439.161027 393.244584 
z
" clip-path="url(#p842b23d7c7)" style="fill: #800080"/>
   </g>
   <g id="patch_299">
    <path d="M 442.902722 398.439184 
L 445.896089 398.439184 
L 445.896089 395.192559 
L 442.902722 395.192559 
z
" clip-path="url(#p842b23d7c7)" style="fill: #800080"/>
   </g>
   <g id="patch_300">
    <path d="M 446.644417 393.893909 
L 449.637784 393.893909 
L 449.637784 393.244584 
L 446.644417 393.244584 
z
" clip-path="url(#p842b23d7c7)" style="fill: #800080"/>
   </g>
   <g id="patch_301">
    <path d="M 450.386112 399.088509 
L 453.379479 399.088509 
L 453.379479 396.491209 
L 450.386112 396.491209 
z
" clip-path="url(#p842b23d7c7)" style="fill: #800080"/>
   </g>
   <g id="patch_302">
    <path d="M 454.127807 401.036484 
L 457.121174 401.036484 
L 457.121174 396.491209 
L 454.127807 396.491209 
z
" clip-path="url(#p842b23d7c7)" style="fill: #800080"/>
   </g>
   <g id="patch_303">
    <path d="M 457.869502 400.387159 
L 460.862869 400.387159 
L 460.862869 399.088509 
L 457.869502 399.088509 
z
" clip-path="url(#p842b23d7c7)" style="fill: #800080"/>
   </g>
   <g id="patch_304">
    <path d="M 461.611197 402.984459 
L 464.604564 402.984459 
L 464.604564 400.387159 
L 461.611197 400.387159 
z
" clip-path="url(#p842b23d7c7)" style="fill: #800080"/>
   </g>
   <g id="patch_305">
    <path d="M 465.352892 407.529735 
L 468.346259 407.529735 
L 468.346259 404.283109 
L 465.352892 404.283109 
z
" clip-path="url(#p842b23d7c7)" style="fill: #800080"/>
   </g>
   <g id="patch_306">
    <path d="M 469.094587 402.984459 
L 472.087954 402.984459 
L 472.087954 399.737834 
L 469.094587 399.737834 
z
" clip-path="url(#p842b23d7c7)" style="fill: #800080"/>
   </g>
   <g id="patch_307">
    <path d="M 472.836282 405.58176 
L 475.829649 405.58176 
L 475.829649 402.984459 
L 472.836282 402.984459 
z
" clip-path="url(#p842b23d7c7)" style="fill: #800080"/>
   </g>
   <g id="patch_308">
    <path d="M 476.577977 397.789859 
L 479.571344 397.789859 
L 479.571344 391.945934 
L 476.577977 391.945934 
z
" clip-path="url(#p842b23d7c7)" style="fill: #800080"/>
   </g>
   <g id="patch_309">
    <path d="M 480.319671 406.88041 
L 483.313039 406.88041 
L 483.313039 404.283109 
L 480.319671 404.283109 
z
" clip-path="url(#p842b23d7c7)" style="fill: #800080"/>
   </g>
   <g id="patch_310">
    <path d="M 484.061366 408.17906 
L 487.054734 408.17906 
L 487.054734 406.231085 
L 484.061366 406.231085 
z
" clip-path="url(#p842b23d7c7)" style="fill: #800080"/>
   </g>
   <g id="patch_311">
    <path d="M 487.803061 408.828385 
L 490.796429 408.828385 
L 490.796429 404.283109 
L 487.803061 404.283109 
z
" clip-path="url(#p842b23d7c7)" style="fill: #800080"/>
   </g>
   <g id="patch_312">
    <path d="M 491.544756 406.88041 
L 494.538124 406.88041 
L 494.538124 403.633784 
L 491.544756 403.633784 
z
" clip-path="url(#p842b23d7c7)" style="fill: #800080"/>
   </g>
   <g id="patch_313">
    <path d="M 495.286451 410.127035 
L 498.279819 410.127035 
L 498.279819 403.633784 
L 495.286451 403.633784 
z
" clip-path="url(#p842b23d7c7)" style="fill: #800080"/>
   </g>
   <g id="patch_314">
    <path d="M 499.028146 409.47771 
L 502.021514 409.47771 
L 502.021514 404.283109 
L 499.028146 404.283109 
z
" clip-path="url(#p842b23d7c7)" style="fill: #800080"/>
   </g>
   <g id="patch_315">
    <path d="M 502.769841 409.47771 
L 505.763209 409.47771 
L 505.763209 406.88041 
L 502.769841 406.88041 
z
" clip-path="url(#p842b23d7c7)" style="fill: #800080"/>
   </g>
   <g id="patch_316">
    <path d="M 506.511536 410.77636 
L 509.504904 410.77636 
L 509.504904 406.88041 
L 506.511536 406.88041 
z
" clip-path="url(#p842b23d7c7)" style="fill: #800080"/>
   </g>
   <g id="patch_317">
    <path d="M 510.253231 410.127035 
L 513.246599 410.127035 
L 513.246599 398.439184 
L 510.253231 398.439184 
z
" clip-path="url(#p842b23d7c7)" style="fill: #800080"/>
   </g>
   <g id="patch_318">
    <path d="M 513.994926 412.724335 
L 516.988294 412.724335 
L 516.988294 404.932434 
L 513.994926 404.932434 
z
" clip-path="url(#p842b23d7c7)" style="fill: #800080"/>
   </g>
   <g id="patch_319">
    <path d="M 517.736621 410.77636 
L 520.729989 410.77636 
L 520.729989 402.984459 
L 517.736621 402.984459 
z
" clip-path="url(#p842b23d7c7)" style="fill: #800080"/>
   </g>
   <g id="patch_320">
    <path d="M 521.478316 412.724335 
L 524.471684 412.724335 
L 524.471684 406.231085 
L 521.478316 406.231085 
z
" clip-path="url(#p842b23d7c7)" style="fill: #800080"/>
   </g>
   <g id="patch_321">
    <path d="M 525.220011 412.07501 
L 528.213379 412.07501 
L 528.213379 402.984459 
L 525.220011 402.984459 
z
" clip-path="url(#p842b23d7c7)" style="fill: #800080"/>
   </g>
   <g id="patch_322">
    <path d="M 528.961706 414.022985 
L 531.955074 414.022985 
L 531.955074 406.231085 
L 528.961706 406.231085 
z
" clip-path="url(#p842b23d7c7)" style="fill: #800080"/>
   </g>
   <g id="patch_323">
    <path d="M 532.703401 411.425685 
L 535.696769 411.425685 
L 535.696769 401.685809 
L 532.703401 401.685809 
z
" clip-path="url(#p842b23d7c7)" style="fill: #800080"/>
   </g>
   <g id="patch_324">
    <path d="M 536.445096 412.724335 
L 539.438464 412.724335 
L 539.438464 405.58176 
L 536.445096 405.58176 
z
" clip-path="url(#p842b23d7c7)" style="fill: #800080"/>
   </g>
   <g id="patch_325">
    <path d="M 540.186791 410.77636 
L 543.180159 410.77636 
L 543.180159 403.633784 
L 540.186791 403.633784 
z
" clip-path="url(#p842b23d7c7)" style="fill: #800080"/>
   </g>
   <g id="patch_326">
    <path d="M 543.928486 412.724335 
L 546.921853 412.724335 
L 546.921853 402.335134 
L 543.928486 402.335134 
z
" clip-path="url(#p842b23d7c7)" style="fill: #800080"/>
   </g>
   <g id="patch_327">
    <path d="M 547.670181 411.425685 
L 550.663548 411.425685 
L 550.663548 405.58176 
L 547.670181 405.58176 
z
" clip-path="url(#p842b23d7c7)" style="fill: #800080"/>
   </g>
   <g id="patch_328">
    <path d="M 551.411876 414.67231 
L 554.405243 414.67231 
L 554.405243 398.439184 
L 551.411876 398.439184 
z
" clip-path="url(#p842b23d7c7)" style="fill: #800080"/>
   </g>
   <g id="patch_329">
    <path d="M 555.153571 414.022985 
L 558.146938 414.022985 
L 558.146938 406.231085 
L 555.153571 406.231085 
z
" clip-path="url(#p842b23d7c7)" style="fill: #800080"/>
   </g>
   <g id="patch_330">
    <path d="M 558.895266 415.321635 
L 561.888605 415.321635 
L 561.888605 405.58176 
L 558.895266 405.58176 
z
" clip-path="url(#p842b23d7c7)" style="fill: #800080"/>
   </g>
   <g id="patch_331">
    <path d="M 562.63699 412.724335 
L 565.630357 412.724335 
L 565.630357 399.737834 
L 562.63699 399.737834 
z
" clip-path="url(#p842b23d7c7)" style="fill: #800080"/>
   </g>
   <g id="patch_332">
    <path d="M 566.378684 414.022985 
L 569.372052 414.022985 
L 569.372052 407.529735 
L 566.378684 407.529735 
z
" clip-path="url(#p842b23d7c7)" style="fill: #800080"/>
   </g>
   <g id="patch_333">
    <path d="M 570.120379 412.724335 
L 573.113747 412.724335 
L 573.113747 401.685809 
L 570.120379 401.685809 
z
" clip-path="url(#p842b23d7c7)" style="fill: #800080"/>
   </g>
   <g id="patch_334">
    <path d="M 573.862074 414.67231 
L 576.855442 414.67231 
L 576.855442 405.58176 
L 573.862074 405.58176 
z
" clip-path="url(#p842b23d7c7)" style="fill: #800080"/>
   </g>
   <g id="patch_335">
    <path d="M 577.603769 413.37366 
L 580.597137 413.37366 
L 580.597137 396.491209 
L 577.603769 396.491209 
z
" clip-path="url(#p842b23d7c7)" style="fill: #800080"/>
   </g>
   <g id="patch_336">
    <path d="M 581.345464 415.321635 
L 584.338832 415.321635 
L 584.338832 403.633784 
L 581.345464 403.633784 
z
" clip-path="url(#p842b23d7c7)" style="fill: #800080"/>
   </g>
   <g id="patch_337">
    <path d="M 585.087159 414.67231 
L 588.080527 414.67231 
L 588.080527 399.737834 
L 585.087159 399.737834 
z
" clip-path="url(#p842b23d7c7)" style="fill: #800080"/>
   </g>
   <g id="patch_338">
    <path d="M 588.828854 414.67231 
L 591.822222 414.67231 
L 591.822222 401.685809 
L 588.828854 401.685809 
z
" clip-path="url(#p842b23d7c7)" style="fill: #800080"/>
   </g>
   <g id="patch_339">
    <path d="M 592.570549 415.321635 
L 595.563917 415.321635 
L 595.563917 399.088509 
L 592.570549 399.088509 
z
" clip-path="url(#p842b23d7c7)" style="fill: #800080"/>
   </g>
   <g id="patch_340">
    <path d="M 596.312244 415.321635 
L 599.305612 415.321635 
L 599.305612 391.296609 
L 596.312244 391.296609 
z
" clip-path="url(#p842b23d7c7)" style="fill: #800080"/>
   </g>
   <g id="patch_341">
    <path d="M 600.053939 415.321635 
L 603.047307 415.321635 
L 603.047307 401.685809 
L 600.053939 401.685809 
z
" clip-path="url(#p842b23d7c7)" style="fill: #800080"/>
   </g>
   <g id="patch_342">
    <path d="M 603.795634 414.67231 
L 606.789002 414.67231 
L 606.789002 397.140534 
L 603.795634 397.140534 
z
" clip-path="url(#p842b23d7c7)" style="fill: #800080"/>
   </g>
   <g id="patch_343">
    <path d="M 607.537329 414.67231 
L 610.530697 414.67231 
L 610.530697 399.088509 
L 607.537329 399.088509 
z
" clip-path="url(#p842b23d7c7)" style="fill: #800080"/>
   </g>
   <g id="patch_344">
    <path d="M 611.279024 415.321635 
L 614.272392 415.321635 
L 614.272392 395.841884 
L 611.279024 395.841884 
z
" clip-path="url(#p842b23d7c7)" style="fill: #800080"/>
   </g>
   <g id="patch_345">
    <path d="M 615.020719 415.321635 
L 618.014087 415.321635 
L 618.014087 402.335134 
L 615.020719 402.335134 
z
" clip-path="url(#p842b23d7c7)" style="fill: #800080"/>
   </g>
   <g id="patch_346">
    <path d="M 618.762414 415.321635 
L 621.755782 415.321635 
L 621.755782 395.192559 
L 618.762414 395.192559 
z
" clip-path="url(#p842b23d7c7)" style="fill: #800080"/>
   </g>
   <g id="patch_347">
    <path d="M 622.504109 415.321635 
L 625.497477 415.321635 
L 625.497477 390.647284 
L 622.504109 390.647284 
z
" clip-path="url(#p842b23d7c7)" style="fill: #800080"/>
   </g>
   <g id="patch_348">
    <path d="M 626.245804 415.321635 
L 629.239171 415.321635 
L 629.239171 388.049984 
L 626.245804 388.049984 
z
" clip-path="url(#p842b23d7c7)" style="fill: #800080"/>
   </g>
   <g id="patch_349">
    <path d="M 629.987499 415.321635 
L 632.980866 415.321635 
L 632.980866 399.088509 
L 629.987499 399.088509 
z
" clip-path="url(#p842b23d7c7)" style="fill: #800080"/>
   </g>
   <g id="patch_350">
    <path d="M 633.729194 415.321635 
L 636.722561 415.321635 
L 636.722561 389.348634 
L 633.729194 389.348634 
z
" clip-path="url(#p842b23d7c7)" style="fill: #800080"/>
   </g>
   <g id="patch_351">
    <path d="M 637.470889 415.321635 
L 640.464256 415.321635 
L 640.464256 395.192559 
L 637.470889 395.192559 
z
" clip-path="url(#p842b23d7c7)" style="fill: #800080"/>
   </g>
   <g id="patch_352">
    <path d="M 641.212584 415.321635 
L 644.205951 415.321635 
L 644.205951 387.400659 
L 641.212584 387.400659 
z
" clip-path="url(#p842b23d7c7)" style="fill: #800080"/>
   </g>
   <g id="patch_353">
    <path d="M 644.954279 415.321635 
L 647.947646 415.321635 
L 647.947646 382.206058 
L 644.954279 382.206058 
z
" clip-path="url(#p842b23d7c7)" style="fill: #800080"/>
   </g>
   <g id="patch_354">
    <path d="M 648.695974 414.67231 
L 651.689341 414.67231 
L 651.689341 379.608758 
L 648.695974 379.608758 
z
" clip-path="url(#p842b23d7c7)" style="fill: #800080"/>
   </g>
   <g id="patch_355">
    <path d="M 652.437669 415.321635 
L 655.431036 415.321635 
L 655.431036 378.959433 
L 652.437669 378.959433 
z
" clip-path="url(#p842b23d7c7)" style="fill: #800080"/>
   </g>
   <g id="patch_356">
    <path d="M 656.179364 414.67231 
L 659.172731 414.67231 
L 659.172731 380.258083 
L 656.179364 380.258083 
z
" clip-path="url(#p842b23d7c7)" style="fill: #800080"/>
   </g>
   <g id="patch_357">
    <path d="M 659.921059 415.321635 
L 662.914426 415.321635 
L 662.914426 390.647284 
L 659.921059 390.647284 
z
" clip-path="url(#p842b23d7c7)" style="fill: #800080"/>
   </g>
   <g id="patch_358">
    <path d="M 663.662754 415.321635 
L 666.656121 415.321635 
L 666.656121 375.063483 
L 663.662754 375.063483 
z
" clip-path="url(#p842b23d7c7)" style="fill: #800080"/>
   </g>
   <g id="patch_359">
    <path d="M 667.404449 415.321635 
L 670.397816 415.321635 
L 670.397816 386.102009 
L 667.404449 386.102009 
z
" clip-path="url(#p842b23d7c7)" style="fill: #800080"/>
   </g>
   <g id="patch_360">
    <path d="M 671.146144 415.321635 
L 674.139511 415.321635 
L 674.139511 374.414158 
L 671.146144 374.414158 
z
" clip-path="url(#p842b23d7c7)" style="fill: #800080"/>
   </g>
   <g id="patch_361">
    <path d="M 674.887839 415.321635 
L 677.881206 415.321635 
L 677.881206 377.660783 
L 674.887839 377.660783 
z
" clip-path="url(#p842b23d7c7)" style="fill: #800080"/>
   </g>
   <g id="patch_362">
    <path d="M 678.629534 414.67231 
L 681.622901 414.67231 
L 681.622901 377.011458 
L 678.629534 377.011458 
z
" clip-path="url(#p842b23d7c7)" style="fill: #800080"/>
   </g>
   <g id="patch_363">
    <path d="M 682.371229 415.321635 
L 685.364596 415.321635 
L 685.364596 376.362133 
L 682.371229 376.362133 
z
" clip-path="url(#p842b23d7c7)" style="fill: #800080"/>
   </g>
   <g id="patch_364">
    <path d="M 686.112924 415.321635 
L 689.106291 415.321635 
L 689.106291 378.959433 
L 686.112924 378.959433 
z
" clip-path="url(#p842b23d7c7)" style="fill: #800080"/>
   </g>
   <g id="patch_365">
    <path d="M 689.854619 415.321635 
L 692.847986 415.321635 
L 692.847986 367.271583 
L 689.854619 367.271583 
z
" clip-path="url(#p842b23d7c7)" style="fill: #800080"/>
   </g>
   <g id="patch_366">
    <path d="M 693.596314 415.321635 
L 696.589681 415.321635 
L 696.589681 366.622258 
L 693.596314 366.622258 
z
" clip-path="url(#p842b23d7c7)" style="fill: #800080"/>
   </g>
   <g id="patch_367">
    <path d="M 697.338009 414.67231 
L 700.331376 414.67231 
L 700.331376 363.375632 
L 697.338009 363.375632 
z
" clip-path="url(#p842b23d7c7)" style="fill: #800080"/>
   </g>
   <g id="patch_368">
    <path d="M 701.079704 415.321635 
L 704.073071 415.321635 
L 704.073071 356.882382 
L 701.079704 356.882382 
z
" clip-path="url(#p842b23d7c7)" style="fill: #800080"/>
   </g>
   <g id="patch_369">
    <path d="M 704.821399 415.321635 
L 707.814766 415.321635 
L 707.814766 378.310108 
L 704.821399 378.310108 
z
" clip-path="url(#p842b23d7c7)" style="fill: #800080"/>
   </g>
   <g id="patch_370">
    <path d="M 708.563094 415.321635 
L 711.556461 415.321635 
L 711.556461 349.090482 
L 708.563094 349.090482 
z
" clip-path="url(#p842b23d7c7)" style="fill: #800080"/>
   </g>
   <g id="patch_371">
    <path d="M 712.304789 415.321635 
L 715.298156 415.321635 
L 715.298156 365.323608 
L 712.304789 365.323608 
z
" clip-path="url(#p842b23d7c7)" style="fill: #800080"/>
   </g>
   <g id="patch_372">
    <path d="M 716.046484 415.321635 
L 719.039851 415.321635 
L 719.039851 362.726307 
L 716.046484 362.726307 
z
" clip-path="url(#p842b23d7c7)" style="fill: #800080"/>
   </g>
   <g id="patch_373">
    <path d="M 719.788178 415.321635 
L 722.781546 415.321635 
L 722.781546 353.635757 
L 719.788178 353.635757 
z
" clip-path="url(#p842b23d7c7)" style="fill: #800080"/>
   </g>
   <g id="patch_374">
    <path d="M 723.529873 415.321635 
L 726.523241 415.321635 
L 726.523241 358.830357 
L 723.529873 358.830357 
z
" clip-path="url(#p842b23d7c7)" style="fill: #800080"/>
   </g>
   <g id="patch_375">
    <path d="M 727.271568 415.321635 
L 730.264936 415.321635 
L 730.264936 338.051956 
L 727.271568 338.051956 
z
" clip-path="url(#p842b23d7c7)" style="fill: #800080"/>
   </g>
   <g id="patch_376">
    <path d="M 731.013263 415.321635 
L 734.006631 415.321635 
L 734.006631 343.246557 
L 731.013263 343.246557 
z
" clip-path="url(#p842b23d7c7)" style="fill: #800080"/>
   </g>
   <g id="patch_377">
    <path d="M 734.754958 415.321635 
L 737.748326 415.321635 
L 737.748326 354.934407 
L 734.754958 354.934407 
z
" clip-path="url(#p842b23d7c7)" style="fill: #800080"/>
   </g>
   <g id="patch_378">
    <path d="M 738.496653 415.321635 
L 741.490021 415.321635 
L 741.490021 339.350606 
L 738.496653 339.350606 
z
" clip-path="url(#p842b23d7c7)" style="fill: #800080"/>
   </g>
   <g id="patch_379">
    <path d="M 742.238348 415.321635 
L 745.231716 415.321635 
L 745.231716 338.701281 
L 742.238348 338.701281 
z
" clip-path="url(#p842b23d7c7)" style="fill: #800080"/>
   </g>
   <g id="patch_380">
    <path d="M 745.980043 415.321635 
L 748.973411 415.321635 
L 748.973411 347.791832 
L 745.980043 347.791832 
z
" clip-path="url(#p842b23d7c7)" style="fill: #800080"/>
   </g>
   <g id="patch_381">
    <path d="M 749.721738 415.321635 
L 752.715106 415.321635 
L 752.715106 330.260056 
L 749.721738 330.260056 
z
" clip-path="url(#p842b23d7c7)" style="fill: #800080"/>
   </g>
   <g id="patch_382">
    <path d="M 753.463433 415.321635 
L 756.456801 415.321635 
L 756.456801 342.597231 
L 753.463433 342.597231 
z
" clip-path="url(#p842b23d7c7)" style="fill: #800080"/>
   </g>
   <g id="patch_383">
    <path d="M 757.205128 415.321635 
L 760.198496 415.321635 
L 760.198496 347.142507 
L 757.205128 347.142507 
z
" clip-path="url(#p842b23d7c7)" style="fill: #800080"/>
   </g>
   <g id="patch_384">
    <path d="M 760.946823 415.321635 
L 763.940191 415.321635 
L 763.940191 338.701281 
L 760.946823 338.701281 
z
" clip-path="url(#p842b23d7c7)" style="fill: #800080"/>
   </g>
   <g id="patch_385">
    <path d="M 764.688518 415.321635 
L 767.681886 415.321635 
L 767.681886 338.701281 
L 764.688518 338.701281 
z
" clip-path="url(#p842b23d7c7)" style="fill: #800080"/>
   </g>
   <g id="patch_386">
    <path d="M 768.430213 415.321635 
L 771.423581 415.321635 
L 771.423581 311.42963 
L 768.430213 311.42963 
z
" clip-path="url(#p842b23d7c7)" style="fill: #800080"/>
   </g>
   <g id="patch_387">
    <path d="M 772.171908 415.321635 
L 775.165276 415.321635 
L 775.165276 327.662756 
L 772.171908 327.662756 
z
" clip-path="url(#p842b23d7c7)" style="fill: #800080"/>
   </g>
   <g id="patch_388">
    <path d="M 775.913603 415.321635 
L 778.906971 415.321635 
L 778.906971 323.117481 
L 775.913603 323.117481 
z
" clip-path="url(#p842b23d7c7)" style="fill: #800080"/>
   </g>
   <g id="patch_389">
    <path d="M 779.655298 415.321635 
L 782.648665 415.321635 
L 782.648665 322.468155 
L 779.655298 322.468155 
z
" clip-path="url(#p842b23d7c7)" style="fill: #800080"/>
   </g>
   <g id="patch_390">
    <path d="M 783.396993 415.321635 
L 786.39036 415.321635 
L 786.39036 322.468155 
L 783.396993 322.468155 
z
" clip-path="url(#p842b23d7c7)" style="fill: #800080"/>
   </g>
   <g id="patch_391">
    <path d="M 787.138688 415.321635 
L 790.132055 415.321635 
L 790.132055 321.169505 
L 787.138688 321.169505 
z
" clip-path="url(#p842b23d7c7)" style="fill: #800080"/>
   </g>
   <g id="patch_392">
    <path d="M 790.880383 415.321635 
L 793.87375 415.321635 
L 793.87375 305.585705 
L 790.880383 305.585705 
z
" clip-path="url(#p842b23d7c7)" style="fill: #800080"/>
   </g>
   <g id="patch_393">
    <path d="M 794.622078 415.321635 
L 797.615445 415.321635 
L 797.615445 323.766806 
L 794.622078 323.766806 
z
" clip-path="url(#p842b23d7c7)" style="fill: #800080"/>
   </g>
   <g id="patch_394">
    <path d="M 798.363773 415.321635 
L 801.35714 415.321635 
L 801.35714 332.208031 
L 798.363773 332.208031 
z
" clip-path="url(#p842b23d7c7)" style="fill: #800080"/>
   </g>
   <g id="patch_395">
    <path d="M 802.105468 415.321635 
L 805.098835 415.321635 
L 805.098835 319.870855 
L 802.105468 319.870855 
z
" clip-path="url(#p842b23d7c7)" style="fill: #800080"/>
   </g>
   <g id="patch_396">
    <path d="M 805.847163 415.321635 
L 808.84053 415.321635 
L 808.84053 312.078955 
L 805.847163 312.078955 
z
" clip-path="url(#p842b23d7c7)" style="fill: #800080"/>
   </g>
   <g id="patch_397">
    <path d="M 809.588858 415.321635 
L 812.582225 415.321635 
L 812.582225 308.83233 
L 809.588858 308.83233 
z
" clip-path="url(#p842b23d7c7)" style="fill: #800080"/>
   </g>
   <g id="patch_398">
    <path d="M 813.330553 415.321635 
L 816.32392 415.321635 
L 816.32392 313.377605 
L 813.330553 313.377605 
z
" clip-path="url(#p842b23d7c7)" style="fill: #800080"/>
   </g>
   <g id="patch_399">
    <path d="M 817.072248 415.321635 
L 820.065615 415.321635 
L 820.065615 305.585705 
L 817.072248 305.585705 
z
" clip-path="url(#p842b23d7c7)" style="fill: #800080"/>
   </g>
   <g id="patch_400">
    <path d="M 820.813943 415.321635 
L 823.80731 415.321635 
L 823.80731 311.42963 
L 820.813943 311.42963 
z
" clip-path="url(#p842b23d7c7)" style="fill: #800080"/>
   </g>
   <g id="matplotlib.axis_1">
    <g id="text_1">
     <!-- Time -->
     <g transform="translate(439.649219 426.920073)scale(0.1 -0.1)">
      <defs>
       <path id="DejaVuSans-54" d="M -19 4666 
L 3928 4666 
L 3928 4134 
L 2272 4134 
L 2272 0 
L 1638 0 
L 1638 4134 
L -19 4134 
L -19 4666 
z
" transform="scale(0.015625)"/>
       <path id="DejaVuSans-69" d="M 603 3500 
L 1178 3500 
L 1178 0 
L 603 0 
L 603 3500 
z
M 603 4863 
L 1178 4863 
L 1178 4134 
L 603 4134 
L 603 4863 
z
" transform="scale(0.015625)"/>
       <path id="DejaVuSans-6d" d="M 3328 2828 
Q 3544 3216 3844 3400 
Q 4144 3584 4550 3584 
Q 5097 3584 5394 3201 
Q 5691 2819 5691 2113 
L 5691 0 
L 5113 0 
L 5113 2094 
Q 5113 2597 4934 2840 
Q 4756 3084 4391 3084 
Q 3944 3084 3684 2787 
Q 3425 2491 3425 1978 
L 3425 0 
L 2847 0 
L 2847 2094 
Q 2847 2600 2669 2842 
Q 2491 3084 2119 3084 
Q 1678 3084 1418 2786 
Q 1159 2488 1159 1978 
L 1159 0 
L 581 0 
L 581 3500 
L 1159 3500 
L 1159 2956 
Q 1356 3278 1631 3431 
Q 1906 3584 2284 3584 
Q 2666 3584 2933 3390 
Q 3200 3197 3328 2828 
z
" transform="scale(0.015625)"/>
       <path id="DejaVuSans-65" d="M 3597 1894 
L 3597 1613 
L 953 1613 
Q 991 1019 1311 708 
Q 1631 397 2203 397 
Q 2534 397 2845 478 
Q 3156 559 3463 722 
L 3463 178 
Q 3153 47 2828 -22 
Q 2503 -91 2169 -91 
Q 1331 -91 842 396 
Q 353 884 353 1716 
Q 353 2575 817 3079 
Q 1281 3584 2069 3584 
Q 2775 3584 3186 3129 
Q 3597 2675 3597 1894 
z
M 3022 2063 
Q 3016 2534 2758 2815 
Q 2500 3097 2075 3097 
Q 1594 3097 1305 2825 
Q 1016 2553 972 2059 
L 3022 2063 
z
" transform="scale(0.015625)"/>
      </defs>
      <use xlink:href="#DejaVuSans-54"/>
      <use xlink:href="#DejaVuSans-69" x="57.958984"/>
      <use xlink:href="#DejaVuSans-6d" x="85.742188"/>
      <use xlink:href="#DejaVuSans-65" x="183.154297"/>
     </g>
    </g>
   </g>
   <g id="matplotlib.axis_2">
    <g id="ytick_1">
     <g id="line2d_1">
      <defs>
       <path id="md08fbe3933" d="M 0 0 
L -3.5 0 
" style="stroke: #000000; stroke-width: 0.8"/>
      </defs>
      <g>
       <use xlink:href="#md08fbe3933" x="42.765865" y="415.321635" style="stroke: #000000; stroke-width: 0.8"/>
      </g>
     </g>
     <g id="text_2">
      <!-- 0 -->
      <g transform="translate(29.403365 419.120854)scale(0.1 -0.1)">
       <defs>
        <path id="DejaVuSans-30" d="M 2034 4250 
Q 1547 4250 1301 3770 
Q 1056 3291 1056 2328 
Q 1056 1369 1301 889 
Q 1547 409 2034 409 
Q 2525 409 2770 889 
Q 3016 1369 3016 2328 
Q 3016 3291 2770 3770 
Q 2525 4250 2034 4250 
z
M 2034 4750 
Q 2819 4750 3233 4129 
Q 3647 3509 3647 2328 
Q 3647 1150 3233 529 
Q 2819 -91 2034 -91 
Q 1250 -91 836 529 
Q 422 1150 422 2328 
Q 422 3509 836 4129 
Q 1250 4750 2034 4750 
z
" transform="scale(0.015625)"/>
       </defs>
       <use xlink:href="#DejaVuSans-30"/>
      </g>
     </g>
    </g>
    <g id="ytick_2">
     <g id="line2d_2">
      <g>
       <use xlink:href="#md08fbe3933" x="42.765865" y="350.389132" style="stroke: #000000; stroke-width: 0.8"/>
      </g>
     </g>
     <g id="text_3">
      <!-- 100 -->
      <g transform="translate(16.678365 354.188351)scale(0.1 -0.1)">
       <defs>
        <path id="DejaVuSans-31" d="M 794 531 
L 1825 531 
L 1825 4091 
L 703 3866 
L 703 4441 
L 1819 4666 
L 2450 4666 
L 2450 531 
L 3481 531 
L 3481 0 
L 794 0 
L 794 531 
z
" transform="scale(0.015625)"/>
       </defs>
       <use xlink:href="#DejaVuSans-31"/>
       <use xlink:href="#DejaVuSans-30" x="63.623047"/>
       <use xlink:href="#DejaVuSans-30" x="127.246094"/>
      </g>
     </g>
    </g>
    <g id="ytick_3">
     <g id="line2d_3">
      <g>
       <use xlink:href="#md08fbe3933" x="42.765865" y="285.456629" style="stroke: #000000; stroke-width: 0.8"/>
      </g>
     </g>
     <g id="text_4">
      <!-- 200 -->
      <g transform="translate(16.678365 289.255847)scale(0.1 -0.1)">
       <defs>
        <path id="DejaVuSans-32" d="M 1228 531 
L 3431 531 
L 3431 0 
L 469 0 
L 469 531 
Q 828 903 1448 1529 
Q 2069 2156 2228 2338 
Q 2531 2678 2651 2914 
Q 2772 3150 2772 3378 
Q 2772 3750 2511 3984 
Q 2250 4219 1831 4219 
Q 1534 4219 1204 4116 
Q 875 4013 500 3803 
L 500 4441 
Q 881 4594 1212 4672 
Q 1544 4750 1819 4750 
Q 2544 4750 2975 4387 
Q 3406 4025 3406 3419 
Q 3406 3131 3298 2873 
Q 3191 2616 2906 2266 
Q 2828 2175 2409 1742 
Q 1991 1309 1228 531 
z
" transform="scale(0.015625)"/>
       </defs>
       <use xlink:href="#DejaVuSans-32"/>
       <use xlink:href="#DejaVuSans-30" x="63.623047"/>
       <use xlink:href="#DejaVuSans-30" x="127.246094"/>
      </g>
     </g>
    </g>
    <g id="ytick_4">
     <g id="line2d_4">
      <g>
       <use xlink:href="#md08fbe3933" x="42.765865" y="220.524126" style="stroke: #000000; stroke-width: 0.8"/>
      </g>
     </g>
     <g id="text_5">
      <!-- 300 -->
      <g transform="translate(16.678365 224.323344)scale(0.1 -0.1)">
       <defs>
        <path id="DejaVuSans-33" d="M 2597 2516 
Q 3050 2419 3304 2112 
Q 3559 1806 3559 1356 
Q 3559 666 3084 287 
Q 2609 -91 1734 -91 
Q 1441 -91 1130 -33 
Q 819 25 488 141 
L 488 750 
Q 750 597 1062 519 
Q 1375 441 1716 441 
Q 2309 441 2620 675 
Q 2931 909 2931 1356 
Q 2931 1769 2642 2001 
Q 2353 2234 1838 2234 
L 1294 2234 
L 1294 2753 
L 1863 2753 
Q 2328 2753 2575 2939 
Q 2822 3125 2822 3475 
Q 2822 3834 2567 4026 
Q 2313 4219 1838 4219 
Q 1578 4219 1281 4162 
Q 984 4106 628 3988 
L 628 4550 
Q 988 4650 1302 4700 
Q 1616 4750 1894 4750 
Q 2613 4750 3031 4423 
Q 3450 4097 3450 3541 
Q 3450 3153 3228 2886 
Q 3006 2619 2597 2516 
z
" transform="scale(0.015625)"/>
       </defs>
       <use xlink:href="#DejaVuSans-33"/>
       <use xlink:href="#DejaVuSans-30" x="63.623047"/>
       <use xlink:href="#DejaVuSans-30" x="127.246094"/>
      </g>
     </g>
    </g>
    <g id="ytick_5">
     <g id="line2d_5">
      <g>
       <use xlink:href="#md08fbe3933" x="42.765865" y="155.591622" style="stroke: #000000; stroke-width: 0.8"/>
      </g>
     </g>
     <g id="text_6">
      <!-- 400 -->
      <g transform="translate(16.678365 159.390841)scale(0.1 -0.1)">
       <defs>
        <path id="DejaVuSans-34" d="M 2419 4116 
L 825 1625 
L 2419 1625 
L 2419 4116 
z
M 2253 4666 
L 3047 4666 
L 3047 1625 
L 3713 1625 
L 3713 1100 
L 3047 1100 
L 3047 0 
L 2419 0 
L 2419 1100 
L 313 1100 
L 313 1709 
L 2253 4666 
z
" transform="scale(0.015625)"/>
       </defs>
       <use xlink:href="#DejaVuSans-34"/>
       <use xlink:href="#DejaVuSans-30" x="63.623047"/>
       <use xlink:href="#DejaVuSans-30" x="127.246094"/>
      </g>
     </g>
    </g>
    <g id="ytick_6">
     <g id="line2d_6">
      <g>
       <use xlink:href="#md08fbe3933" x="42.765865" y="90.659119" style="stroke: #000000; stroke-width: 0.8"/>
      </g>
     </g>
     <g id="text_7">
      <!-- 500 -->
      <g transform="translate(16.678365 94.458338)scale(0.1 -0.1)">
       <defs>
        <path id="DejaVuSans-35" d="M 691 4666 
L 3169 4666 
L 3169 4134 
L 1269 4134 
L 1269 2991 
Q 1406 3038 1543 3061 
Q 1681 3084 1819 3084 
Q 2600 3084 3056 2656 
Q 3513 2228 3513 1497 
Q 3513 744 3044 326 
Q 2575 -91 1722 -91 
Q 1428 -91 1123 -41 
Q 819 9 494 109 
L 494 744 
Q 775 591 1075 516 
Q 1375 441 1709 441 
Q 2250 441 2565 725 
Q 2881 1009 2881 1497 
Q 2881 1984 2565 2268 
Q 2250 2553 1709 2553 
Q 1456 2553 1204 2497 
Q 953 2441 691 2322 
L 691 4666 
z
" transform="scale(0.015625)"/>
       </defs>
       <use xlink:href="#DejaVuSans-35"/>
       <use xlink:href="#DejaVuSans-30" x="63.623047"/>
       <use xlink:href="#DejaVuSans-30" x="127.246094"/>
      </g>
     </g>
    </g>
    <g id="ytick_7">
     <g id="line2d_7">
      <g>
       <use xlink:href="#md08fbe3933" x="42.765865" y="25.726616" style="stroke: #000000; stroke-width: 0.8"/>
      </g>
     </g>
     <g id="text_8">
      <!-- 600 -->
      <g transform="translate(16.678365 29.525835)scale(0.1 -0.1)">
       <defs>
        <path id="DejaVuSans-36" d="M 2113 2584 
Q 1688 2584 1439 2293 
Q 1191 2003 1191 1497 
Q 1191 994 1439 701 
Q 1688 409 2113 409 
Q 2538 409 2786 701 
Q 3034 994 3034 1497 
Q 3034 2003 2786 2293 
Q 2538 2584 2113 2584 
z
M 3366 4563 
L 3366 3988 
Q 3128 4100 2886 4159 
Q 2644 4219 2406 4219 
Q 1781 4219 1451 3797 
Q 1122 3375 1075 2522 
Q 1259 2794 1537 2939 
Q 1816 3084 2150 3084 
Q 2853 3084 3261 2657 
Q 3669 2231 3669 1497 
Q 3669 778 3244 343 
Q 2819 -91 2113 -91 
Q 1303 -91 875 529 
Q 447 1150 447 2328 
Q 447 3434 972 4092 
Q 1497 4750 2381 4750 
Q 2619 4750 2861 4703 
Q 3103 4656 3366 4563 
z
" transform="scale(0.015625)"/>
       </defs>
       <use xlink:href="#DejaVuSans-36"/>
       <use xlink:href="#DejaVuSans-30" x="63.623047"/>
       <use xlink:href="#DejaVuSans-30" x="127.246094"/>
      </g>
     </g>
    </g>
    <g id="text_9">
     <!-- Cases -->
     <g transform="translate(10.598678 224.002344)rotate(-90)scale(0.1 -0.1)">
      <defs>
       <path id="DejaVuSans-43" d="M 4122 4306 
L 4122 3641 
Q 3803 3938 3442 4084 
Q 3081 4231 2675 4231 
Q 1875 4231 1450 3742 
Q 1025 3253 1025 2328 
Q 1025 1406 1450 917 
Q 1875 428 2675 428 
Q 3081 428 3442 575 
Q 3803 722 4122 1019 
L 4122 359 
Q 3791 134 3420 21 
Q 3050 -91 2638 -91 
Q 1578 -91 968 557 
Q 359 1206 359 2328 
Q 359 3453 968 4101 
Q 1578 4750 2638 4750 
Q 3056 4750 3426 4639 
Q 3797 4528 4122 4306 
z
" transform="scale(0.015625)"/>
       <path id="DejaVuSans-61" d="M 2194 1759 
Q 1497 1759 1228 1600 
Q 959 1441 959 1056 
Q 959 750 1161 570 
Q 1363 391 1709 391 
Q 2188 391 2477 730 
Q 2766 1069 2766 1631 
L 2766 1759 
L 2194 1759 
z
M 3341 1997 
L 3341 0 
L 2766 0 
L 2766 531 
Q 2569 213 2275 61 
Q 1981 -91 1556 -91 
Q 1019 -91 701 211 
Q 384 513 384 1019 
Q 384 1609 779 1909 
Q 1175 2209 1959 2209 
L 2766 2209 
L 2766 2266 
Q 2766 2663 2505 2880 
Q 2244 3097 1772 3097 
Q 1472 3097 1187 3025 
Q 903 2953 641 2809 
L 641 3341 
Q 956 3463 1253 3523 
Q 1550 3584 1831 3584 
Q 2591 3584 2966 3190 
Q 3341 2797 3341 1997 
z
" transform="scale(0.015625)"/>
       <path id="DejaVuSans-73" d="M 2834 3397 
L 2834 2853 
Q 2591 2978 2328 3040 
Q 2066 3103 1784 3103 
Q 1356 3103 1142 2972 
Q 928 2841 928 2578 
Q 928 2378 1081 2264 
Q 1234 2150 1697 2047 
L 1894 2003 
Q 2506 1872 2764 1633 
Q 3022 1394 3022 966 
Q 3022 478 2636 193 
Q 2250 -91 1575 -91 
Q 1294 -91 989 -36 
Q 684 19 347 128 
L 347 722 
Q 666 556 975 473 
Q 1284 391 1588 391 
Q 1994 391 2212 530 
Q 2431 669 2431 922 
Q 2431 1156 2273 1281 
Q 2116 1406 1581 1522 
L 1381 1569 
Q 847 1681 609 1914 
Q 372 2147 372 2553 
Q 372 3047 722 3315 
Q 1072 3584 1716 3584 
Q 2034 3584 2315 3537 
Q 2597 3491 2834 3397 
z
" transform="scale(0.015625)"/>
      </defs>
      <use xlink:href="#DejaVuSans-43"/>
      <use xlink:href="#DejaVuSans-61" x="69.824219"/>
      <use xlink:href="#DejaVuSans-73" x="131.103516"/>
      <use xlink:href="#DejaVuSans-65" x="183.203125"/>
      <use xlink:href="#DejaVuSans-73" x="244.726562"/>
     </g>
    </g>
   </g>
   <g id="patch_401">
    <path d="M 42.765865 415.321635 
L 42.765865 3.00024 
" style="fill: none; stroke: #000000; stroke-width: 0.8; stroke-linejoin: miter; stroke-linecap: square"/>
   </g>
   <g id="patch_402">
    <path d="M 42.765865 415.321635 
L 860.99976 415.321635 
" style="fill: none; stroke: #000000; stroke-width: 0.8; stroke-linejoin: miter; stroke-linecap: square"/>
   </g>
  </g>
 </g>
 <defs>
  <clipPath id="p842b23d7c7">
   <rect x="42.765865" y="3.00024" width="818.233895" height="412.321395"/>
  </clipPath>
 </defs>
</svg>
