<?xml version="1.0" encoding="utf-8" standalone="no"?>
<!DOCTYPE svg PUBLIC "-//W3C//DTD SVG 1.1//EN"
  "http://www.w3.org/Graphics/SVG/1.1/DTD/svg11.dtd">
<svg xmlns:xlink="http://www.w3.org/1999/xlink" width="720pt" height="432pt" viewBox="0 0 720 432" xmlns="http://www.w3.org/2000/svg" version="1.1">
 <metadata>
  <rdf:RDF xmlns:dc="http://purl.org/dc/elements/1.1/" xmlns:cc="http://creativecommons.org/ns#" xmlns:rdf="http://www.w3.org/1999/02/22-rdf-syntax-ns#">
   <cc:Work>
    <dc:type rdf:resource="http://purl.org/dc/dcmitype/StillImage"/>
    <dc:date>2024-03-11T12:38:12.662538</dc:date>
    <dc:format>image/svg+xml</dc:format>
    <dc:creator>
     <cc:Agent>
      <dc:title>Matplotlib v3.7.2, https://matplotlib.org/</dc:title>
     </cc:Agent>
    </dc:creator>
   </cc:Work>
  </rdf:RDF>
 </metadata>
 <defs>
  <style type="text/css">*{stroke-linejoin: round; stroke-linecap: butt}</style>
 </defs>
 <g id="figure_1">
  <g id="patch_1">
   <path d="M 0 432 
L 720 432 
L 720 0 
L 0 0 
z
" style="fill: #ffffff"/>
  </g>
  <g id="axes_1">
   <g id="patch_2">
    <path d="M 90 384.48 
L 648 384.48 
L 648 51.84 
L 90 51.84 
z
" style="fill: #ffffff"/>
   </g>
   <g id="PolyCollection_1">
    <defs>
     <path id="m50c0b4beda" d="M 378.703066 -286.798458 
L 359.296934 -286.798458 
L 357.097732 -287.588777 
L 354.614113 -288.379095 
L 351.840847 -289.169414 
L 348.773186 -289.959732 
L 345.406468 -290.750051 
L 341.7365 -291.54037 
L 337.760872 -292.330688 
L 333.480995 -293.121007 
L 328.904363 -293.911325 
L 324.046255 -294.701644 
L 318.930234 -295.491963 
L 313.587045 -296.282281 
L 308.052115 -297.0726 
L 302.362269 -297.862918 
L 296.552367 -298.653237 
L 290.652491 -299.443556 
L 284.685545 -300.233874 
L 278.665307 -301.024193 
L 272.594576 -301.814512 
L 266.463744 -302.60483 
L 260.250882 -303.395149 
L 253.92422 -304.185467 
L 247.447906 -304.975786 
L 240.790714 -305.766105 
L 233.936074 -306.556423 
L 226.891357 -307.346742 
L 219.693964 -308.13706 
L 212.41309 -308.927379 
L 205.146775 -309.717698 
L 198.014661 -310.508016 
L 191.147443 -311.298335 
L 184.673714 -312.088653 
L 178.704787 -312.878972 
L 173.319215 -313.669291 
L 168.549138 -314.459609 
L 164.371955 -315.249928 
L 160.710066 -316.040246 
L 157.440108 -316.830565 
L 154.410298 -317.620884 
L 151.461853 -318.411202 
L 148.449671 -319.201521 
L 145.258553 -319.991839 
L 141.813878 -320.782158 
L 138.088993 -321.572477 
L 134.112424 -322.362795 
L 129.977239 -323.153114 
L 125.851048 -323.943432 
L 121.981832 -324.733751 
L 118.692236 -325.52407 
L 116.357185 -326.314388 
L 115.363636 -327.104707 
L 116.05841 -327.895026 
L 118.69467 -328.685344 
L 123.390141 -329.475663 
L 130.107026 -330.265981 
L 138.658031 -331.0563 
L 148.735037 -331.846619 
L 159.951464 -332.636937 
L 171.887171 -333.427256 
L 184.126537 -334.217574 
L 196.285626 -335.007893 
L 208.029261 -335.798212 
L 219.082657 -336.58853 
L 229.242222 -337.378849 
L 238.387587 -338.169167 
L 246.492802 -338.959486 
L 253.631439 -339.749805 
L 259.969704 -340.540123 
L 265.744321 -341.330442 
L 271.226217 -342.12076 
L 276.676177 -342.911079 
L 282.301587 -343.701398 
L 288.22386 -344.491716 
L 294.463329 -345.282035 
L 300.944013 -346.072353 
L 307.515664 -346.862672 
L 313.987004 -347.652991 
L 320.162238 -348.443309 
L 325.873681 -349.233628 
L 331.005246 -350.023946 
L 335.504225 -350.814265 
L 339.381291 -351.604584 
L 342.700435 -352.394902 
L 345.561736 -353.185221 
L 348.080425 -353.97554 
L 350.365946 -354.765858 
L 352.504549 -355.556177 
L 354.548229 -356.346495 
L 356.511711 -357.136814 
L 358.377428 -357.927133 
L 360.106784 -358.717451 
L 361.65461 -359.50777 
L 362.983222 -360.298088 
L 364.072896 -361.088407 
L 364.926791 -361.878726 
L 365.569939 -362.669044 
L 366.043427 -363.459363 
L 366.395855 -364.249681 
L 366.674474 -365.04 
L 371.325526 -365.04 
L 371.325526 -365.04 
L 371.604145 -364.249681 
L 371.956573 -363.459363 
L 372.430061 -362.669044 
L 373.073209 -361.878726 
L 373.927104 -361.088407 
L 375.016778 -360.298088 
L 376.34539 -359.50777 
L 377.893216 -358.717451 
L 379.622572 -357.927133 
L 381.488289 -357.136814 
L 383.451771 -356.346495 
L 385.495451 -355.556177 
L 387.634054 -354.765858 
L 389.919575 -353.97554 
L 392.438264 -353.185221 
L 395.299565 -352.394902 
L 398.618709 -351.604584 
L 402.495775 -350.814265 
L 406.994754 -350.023946 
L 412.126319 -349.233628 
L 417.837762 -348.443309 
L 424.012996 -347.652991 
L 430.484336 -346.862672 
L 437.055987 -346.072353 
L 443.536671 -345.282035 
L 449.77614 -344.491716 
L 455.698413 -343.701398 
L 461.323823 -342.911079 
L 466.773783 -342.12076 
L 472.255679 -341.330442 
L 478.030296 -340.540123 
L 484.368561 -339.749805 
L 491.507198 -338.959486 
L 499.612413 -338.169167 
L 508.757778 -337.378849 
L 518.917343 -336.58853 
L 529.970739 -335.798212 
L 541.714374 -335.007893 
L 553.873463 -334.217574 
L 566.112829 -333.427256 
L 578.048536 -332.636937 
L 589.264963 -331.846619 
L 599.341969 -331.0563 
L 607.892974 -330.265981 
L 614.609859 -329.475663 
L 619.30533 -328.685344 
L 621.94159 -327.895026 
L 622.636364 -327.104707 
L 621.642815 -326.314388 
L 619.307764 -325.52407 
L 616.018168 -324.733751 
L 612.148952 -323.943432 
L 608.022761 -323.153114 
L 603.887576 -322.362795 
L 599.911007 -321.572477 
L 596.186122 -320.782158 
L 592.741447 -319.991839 
L 589.550329 -319.201521 
L 586.538147 -318.411202 
L 583.589702 -317.620884 
L 580.559892 -316.830565 
L 577.289934 -316.040246 
L 573.628045 -315.249928 
L 569.450862 -314.459609 
L 564.680785 -313.669291 
L 559.295213 -312.878972 
L 553.326286 -312.088653 
L 546.852557 -311.298335 
L 539.985339 -310.508016 
L 532.853225 -309.717698 
L 525.58691 -308.927379 
L 518.306036 -308.13706 
L 511.108643 -307.346742 
L 504.063926 -306.556423 
L 497.209286 -305.766105 
L 490.552094 -304.975786 
L 484.07578 -304.185467 
L 477.749118 -303.395149 
L 471.536256 -302.60483 
L 465.405424 -301.814512 
L 459.334693 -301.024193 
L 453.314455 -300.233874 
L 447.347509 -299.443556 
L 441.447633 -298.653237 
L 435.637731 -297.862918 
L 429.947885 -297.0726 
L 424.412955 -296.282281 
L 419.069766 -295.491963 
L 413.953745 -294.701644 
L 409.095637 -293.911325 
L 404.519005 -293.121007 
L 400.239128 -292.330688 
L 396.2635 -291.54037 
L 392.593532 -290.750051 
L 389.226814 -289.959732 
L 386.159153 -289.169414 
L 383.385887 -288.379095 
L 380.902268 -287.588777 
L 378.703066 -286.798458 
z
" style="stroke: #000000"/>
    </defs>
    <g clip-path="url(#p93ba9aa59b)">
     <use xlink:href="#m50c0b4beda" x="0" y="432" style="fill: #800080; stroke: #000000"/>
    </g>
   </g>
   <g id="LineCollection_1">
    <path d="M 369 135.749481 
L 369 83.687393 
" clip-path="url(#p93ba9aa59b)" style="fill: none; stroke: #000000; stroke-width: 2"/>
   </g>
   <g id="matplotlib.axis_1">
    <g id="xtick_1">
     <g id="line2d_1">
      <defs>
       <path id="m124b92b181" d="M 0 0 
L 0 3.5 
" style="stroke: #000000; stroke-width: 0.8"/>
      </defs>
      <g>
       <use xlink:href="#m124b92b181" x="369" y="384.48" style="stroke: #000000; stroke-width: 0.8"/>
      </g>
     </g>
     <g id="text_1">
      <!-- variant -->
      <g transform="translate(346.490625 404.740156) scale(0.15 -0.15)">
       <defs>
        <path id="Helvetica-76" d="M 688 3347 
L 1581 622 
L 2516 3347 
L 3131 3347 
L 1869 0 
L 1269 0 
L 34 3347 
L 688 3347 
z
" transform="scale(0.015625)"/>
        <path id="Helvetica-61" d="M 844 891 
Q 844 647 1022 506 
Q 1200 366 1444 366 
Q 1741 366 2019 503 
Q 2488 731 2488 1250 
L 2488 1703 
Q 2384 1638 2221 1594 
Q 2059 1550 1903 1531 
L 1563 1488 
Q 1256 1447 1103 1359 
Q 844 1213 844 891 
z
M 2206 2028 
Q 2400 2053 2466 2191 
Q 2503 2266 2503 2406 
Q 2503 2694 2298 2823 
Q 2094 2953 1713 2953 
Q 1272 2953 1088 2716 
Q 984 2584 953 2325 
L 428 2325 
Q 444 2944 830 3186 
Q 1216 3428 1725 3428 
Q 2316 3428 2684 3203 
Q 3050 2978 3050 2503 
L 3050 575 
Q 3050 488 3086 434 
Q 3122 381 3238 381 
Q 3275 381 3322 386 
Q 3369 391 3422 400 
L 3422 -16 
Q 3291 -53 3222 -62 
Q 3153 -72 3034 -72 
Q 2744 -72 2613 134 
Q 2544 244 2516 444 
Q 2344 219 2022 53 
Q 1700 -113 1313 -113 
Q 847 -113 551 170 
Q 256 453 256 878 
Q 256 1344 547 1600 
Q 838 1856 1309 1916 
L 2206 2028 
z
M 1741 3428 
L 1741 3428 
z
" transform="scale(0.015625)"/>
        <path id="Helvetica-72" d="M 428 3347 
L 963 3347 
L 963 2769 
Q 1028 2938 1284 3180 
Q 1541 3422 1875 3422 
Q 1891 3422 1928 3419 
Q 1966 3416 2056 3406 
L 2056 2813 
Q 2006 2822 1964 2825 
Q 1922 2828 1872 2828 
Q 1447 2828 1219 2554 
Q 991 2281 991 1925 
L 991 0 
L 428 0 
L 428 3347 
z
" transform="scale(0.015625)"/>
        <path id="Helvetica-69" d="M 413 3331 
L 984 3331 
L 984 0 
L 413 0 
L 413 3331 
z
M 413 4591 
L 984 4591 
L 984 3953 
L 413 3953 
L 413 4591 
z
" transform="scale(0.015625)"/>
        <path id="Helvetica-6e" d="M 413 3347 
L 947 3347 
L 947 2872 
Q 1184 3166 1450 3294 
Q 1716 3422 2041 3422 
Q 2753 3422 3003 2925 
Q 3141 2653 3141 2147 
L 3141 0 
L 2569 0 
L 2569 2109 
Q 2569 2416 2478 2603 
Q 2328 2916 1934 2916 
Q 1734 2916 1606 2875 
Q 1375 2806 1200 2600 
Q 1059 2434 1017 2257 
Q 975 2081 975 1753 
L 975 0 
L 413 0 
L 413 3347 
z
M 1734 3428 
L 1734 3428 
z
" transform="scale(0.015625)"/>
        <path id="Helvetica-74" d="M 525 4281 
L 1094 4281 
L 1094 3347 
L 1628 3347 
L 1628 2888 
L 1094 2888 
L 1094 703 
Q 1094 528 1213 469 
Q 1278 434 1431 434 
Q 1472 434 1519 436 
Q 1566 438 1628 444 
L 1628 0 
Q 1531 -28 1426 -40 
Q 1322 -53 1200 -53 
Q 806 -53 665 148 
Q 525 350 525 672 
L 525 2888 
L 72 2888 
L 72 3347 
L 525 3347 
L 525 4281 
z
" transform="scale(0.015625)"/>
       </defs>
       <use xlink:href="#Helvetica-76"/>
       <use xlink:href="#Helvetica-61" x="50"/>
       <use xlink:href="#Helvetica-72" x="105.615234"/>
       <use xlink:href="#Helvetica-69" x="138.916016"/>
       <use xlink:href="#Helvetica-61" x="161.132812"/>
       <use xlink:href="#Helvetica-6e" x="216.748047"/>
       <use xlink:href="#Helvetica-74" x="272.363281"/>
      </g>
     </g>
    </g>
   </g>
   <g id="matplotlib.axis_2">
    <g id="ytick_1">
     <g id="line2d_2">
      <defs>
       <path id="m29893b54b0" d="M 0 0 
L -3.5 0 
" style="stroke: #000000; stroke-width: 0.8"/>
      </defs>
      <g>
       <use xlink:href="#m29893b54b0" x="90" y="369.36" style="stroke: #000000; stroke-width: 0.8"/>
      </g>
     </g>
     <g id="text_2">
      <!-- 1.00 -->
      <g transform="translate(51.308594 374.740078) scale(0.15 -0.15)">
       <defs>
        <path id="Helvetica-31" d="M 613 3169 
L 613 3600 
Q 1222 3659 1462 3798 
Q 1703 3938 1822 4456 
L 2266 4456 
L 2266 0 
L 1666 0 
L 1666 3169 
L 613 3169 
z
" transform="scale(0.015625)"/>
        <path id="Helvetica-2e" d="M 547 681 
L 1200 681 
L 1200 0 
L 547 0 
L 547 681 
z
" transform="scale(0.015625)"/>
        <path id="Helvetica-30" d="M 1731 4475 
Q 2600 4475 2988 3759 
Q 3288 3206 3288 2244 
Q 3288 1331 3016 734 
Q 2622 -122 1728 -122 
Q 922 -122 528 578 
Q 200 1163 200 2147 
Q 200 2909 397 3456 
Q 766 4475 1731 4475 
z
M 1725 391 
Q 2163 391 2422 778 
Q 2681 1166 2681 2222 
Q 2681 2984 2493 3476 
Q 2306 3969 1766 3969 
Q 1269 3969 1039 3501 
Q 809 3034 809 2125 
Q 809 1441 956 1025 
Q 1181 391 1725 391 
z
" transform="scale(0.015625)"/>
       </defs>
       <use xlink:href="#Helvetica-31"/>
       <use xlink:href="#Helvetica-2e" x="55.615234"/>
       <use xlink:href="#Helvetica-30" x="83.398438"/>
       <use xlink:href="#Helvetica-30" x="139.013672"/>
      </g>
     </g>
    </g>
    <g id="ytick_2">
     <g id="line2d_3">
      <g>
       <use xlink:href="#m29893b54b0" x="90" y="307.483619" style="stroke: #000000; stroke-width: 0.8"/>
      </g>
     </g>
     <g id="text_3">
      <!-- 1.05 -->
      <g transform="translate(51.308594 312.863697) scale(0.15 -0.15)">
       <defs>
        <path id="Helvetica-35" d="M 791 1141 
Q 847 659 1238 475 
Q 1438 381 1700 381 
Q 2200 381 2440 700 
Q 2681 1019 2681 1406 
Q 2681 1875 2395 2131 
Q 2109 2388 1709 2388 
Q 1419 2388 1211 2275 
Q 1003 2163 856 1963 
L 369 1991 
L 709 4400 
L 3034 4400 
L 3034 3856 
L 1131 3856 
L 941 2613 
Q 1097 2731 1238 2791 
Q 1488 2894 1816 2894 
Q 2431 2894 2859 2497 
Q 3288 2100 3288 1491 
Q 3288 856 2895 371 
Q 2503 -113 1644 -113 
Q 1097 -113 676 195 
Q 256 503 206 1141 
L 791 1141 
z
" transform="scale(0.015625)"/>
       </defs>
       <use xlink:href="#Helvetica-31"/>
       <use xlink:href="#Helvetica-2e" x="55.615234"/>
       <use xlink:href="#Helvetica-30" x="83.398438"/>
       <use xlink:href="#Helvetica-35" x="139.013672"/>
      </g>
     </g>
    </g>
    <g id="ytick_3">
     <g id="line2d_4">
      <g>
       <use xlink:href="#m29893b54b0" x="90" y="245.607238" style="stroke: #000000; stroke-width: 0.8"/>
      </g>
     </g>
     <g id="text_4">
      <!-- 1.10 -->
      <g transform="translate(51.308594 250.987316) scale(0.15 -0.15)">
       <use xlink:href="#Helvetica-31"/>
       <use xlink:href="#Helvetica-2e" x="55.615234"/>
       <use xlink:href="#Helvetica-31" x="83.398438"/>
       <use xlink:href="#Helvetica-30" x="139.013672"/>
      </g>
     </g>
    </g>
    <g id="ytick_4">
     <g id="line2d_5">
      <g>
       <use xlink:href="#m29893b54b0" x="90" y="183.730857" style="stroke: #000000; stroke-width: 0.8"/>
      </g>
     </g>
     <g id="text_5">
      <!-- 1.15 -->
      <g transform="translate(51.308594 189.110935) scale(0.15 -0.15)">
       <use xlink:href="#Helvetica-31"/>
       <use xlink:href="#Helvetica-2e" x="55.615234"/>
       <use xlink:href="#Helvetica-31" x="83.398438"/>
       <use xlink:href="#Helvetica-35" x="139.013672"/>
      </g>
     </g>
    </g>
    <g id="ytick_5">
     <g id="line2d_6">
      <g>
       <use xlink:href="#m29893b54b0" x="90" y="121.854475" style="stroke: #000000; stroke-width: 0.8"/>
      </g>
     </g>
     <g id="text_6">
      <!-- 1.20 -->
      <g transform="translate(51.308594 127.234554) scale(0.15 -0.15)">
       <defs>
        <path id="Helvetica-32" d="M 200 0 
Q 231 578 439 1006 
Q 647 1434 1250 1784 
L 1850 2131 
Q 2253 2366 2416 2531 
Q 2672 2791 2672 3125 
Q 2672 3516 2437 3745 
Q 2203 3975 1813 3975 
Q 1234 3975 1013 3538 
Q 894 3303 881 2888 
L 309 2888 
Q 319 3472 525 3841 
Q 891 4491 1816 4491 
Q 2584 4491 2939 4075 
Q 3294 3659 3294 3150 
Q 3294 2613 2916 2231 
Q 2697 2009 2131 1694 
L 1703 1456 
Q 1397 1288 1222 1134 
Q 909 863 828 531 
L 3272 531 
L 3272 0 
L 200 0 
z
" transform="scale(0.015625)"/>
       </defs>
       <use xlink:href="#Helvetica-31"/>
       <use xlink:href="#Helvetica-2e" x="55.615234"/>
       <use xlink:href="#Helvetica-32" x="83.398438"/>
       <use xlink:href="#Helvetica-30" x="139.013672"/>
      </g>
     </g>
    </g>
    <g id="ytick_6">
     <g id="line2d_7">
      <g>
       <use xlink:href="#m29893b54b0" x="90" y="59.978094" style="stroke: #000000; stroke-width: 0.8"/>
      </g>
     </g>
     <g id="text_7">
      <!-- 1.25 -->
      <g transform="translate(51.308594 65.358172) scale(0.15 -0.15)">
       <use xlink:href="#Helvetica-31"/>
       <use xlink:href="#Helvetica-2e" x="55.615234"/>
       <use xlink:href="#Helvetica-32" x="83.398438"/>
       <use xlink:href="#Helvetica-35" x="139.013672"/>
      </g>
     </g>
    </g>
    <g id="text_8">
     <!-- Growth advantage -->
     <g transform="translate(43.326094 291.70125) rotate(-90) scale(0.18 -0.18)">
      <defs>
       <path id="Helvetica-47" d="M 2472 4709 
Q 3119 4709 3591 4459 
Q 4275 4100 4428 3200 
L 3813 3200 
Q 3700 3703 3347 3933 
Q 2994 4163 2456 4163 
Q 1819 4163 1383 3684 
Q 947 3206 947 2259 
Q 947 1441 1306 927 
Q 1666 413 2478 413 
Q 3100 413 3508 773 
Q 3916 1134 3925 1941 
L 2488 1941 
L 2488 2456 
L 4503 2456 
L 4503 0 
L 4103 0 
L 3953 591 
Q 3638 244 3394 109 
Q 2984 -122 2353 -122 
Q 1538 -122 950 406 
Q 309 1069 309 2225 
Q 309 3378 934 4059 
Q 1528 4709 2472 4709 
z
M 2369 4716 
L 2369 4716 
z
" transform="scale(0.015625)"/>
       <path id="Helvetica-6f" d="M 1741 363 
Q 2300 363 2508 786 
Q 2716 1209 2716 1728 
Q 2716 2197 2566 2491 
Q 2328 2953 1747 2953 
Q 1231 2953 997 2559 
Q 763 2166 763 1609 
Q 763 1075 997 719 
Q 1231 363 1741 363 
z
M 1763 3444 
Q 2409 3444 2856 3012 
Q 3303 2581 3303 1744 
Q 3303 934 2909 406 
Q 2516 -122 1688 -122 
Q 997 -122 590 345 
Q 184 813 184 1600 
Q 184 2444 612 2944 
Q 1041 3444 1763 3444 
z
M 1744 3428 
L 1744 3428 
z
" transform="scale(0.015625)"/>
       <path id="Helvetica-77" d="M 672 3347 
L 1316 709 
L 1969 3347 
L 2600 3347 
L 3256 725 
L 3941 3347 
L 4503 3347 
L 3531 0 
L 2947 0 
L 2266 2591 
L 1606 0 
L 1022 0 
L 56 3347 
L 672 3347 
z
" transform="scale(0.015625)"/>
       <path id="Helvetica-68" d="M 413 4606 
L 975 4606 
L 975 2894 
Q 1175 3147 1334 3250 
Q 1606 3428 2013 3428 
Q 2741 3428 3000 2919 
Q 3141 2641 3141 2147 
L 3141 0 
L 2563 0 
L 2563 2109 
Q 2563 2478 2469 2650 
Q 2316 2925 1894 2925 
Q 1544 2925 1259 2684 
Q 975 2444 975 1775 
L 975 0 
L 413 0 
L 413 4606 
z
" transform="scale(0.015625)"/>
       <path id="Helvetica-20" transform="scale(0.015625)"/>
       <path id="Helvetica-64" d="M 769 1634 
Q 769 1097 997 734 
Q 1225 372 1728 372 
Q 2119 372 2370 708 
Q 2622 1044 2622 1672 
Q 2622 2306 2362 2611 
Q 2103 2916 1722 2916 
Q 1297 2916 1033 2591 
Q 769 2266 769 1634 
z
M 1616 3406 
Q 2000 3406 2259 3244 
Q 2409 3150 2600 2916 
L 2600 4606 
L 3141 4606 
L 3141 0 
L 2634 0 
L 2634 466 
Q 2438 156 2169 18 
Q 1900 -119 1553 -119 
Q 994 -119 584 351 
Q 175 822 175 1603 
Q 175 2334 548 2870 
Q 922 3406 1616 3406 
z
" transform="scale(0.015625)"/>
       <path id="Helvetica-67" d="M 1594 3406 
Q 1988 3406 2281 3213 
Q 2441 3103 2606 2894 
L 2606 3316 
L 3125 3316 
L 3125 272 
Q 3125 -366 2938 -734 
Q 2588 -1416 1616 -1416 
Q 1075 -1416 706 -1173 
Q 338 -931 294 -416 
L 866 -416 
Q 906 -641 1028 -763 
Q 1219 -950 1628 -950 
Q 2275 -950 2475 -494 
Q 2594 -225 2584 466 
Q 2416 209 2178 84 
Q 1941 -41 1550 -41 
Q 1006 -41 598 345 
Q 191 731 191 1622 
Q 191 2463 602 2934 
Q 1013 3406 1594 3406 
z
M 2606 1688 
Q 2606 2309 2350 2609 
Q 2094 2909 1697 2909 
Q 1103 2909 884 2353 
Q 769 2056 769 1575 
Q 769 1009 998 714 
Q 1228 419 1616 419 
Q 2222 419 2469 966 
Q 2606 1275 2606 1688 
z
M 1659 3428 
L 1659 3428 
z
" transform="scale(0.015625)"/>
       <path id="Helvetica-65" d="M 1806 3422 
Q 2163 3422 2497 3255 
Q 2831 3088 3006 2822 
Q 3175 2569 3231 2231 
Q 3281 2000 3281 1494 
L 828 1494 
Q 844 984 1069 676 
Q 1294 369 1766 369 
Q 2206 369 2469 659 
Q 2619 828 2681 1050 
L 3234 1050 
Q 3213 866 3089 639 
Q 2966 413 2813 269 
Q 2556 19 2178 -69 
Q 1975 -119 1719 -119 
Q 1094 -119 659 336 
Q 225 791 225 1609 
Q 225 2416 662 2919 
Q 1100 3422 1806 3422 
z
M 2703 1941 
Q 2669 2306 2544 2525 
Q 2313 2931 1772 2931 
Q 1384 2931 1121 2651 
Q 859 2372 844 1941 
L 2703 1941 
z
M 1753 3428 
L 1753 3428 
z
" transform="scale(0.015625)"/>
      </defs>
      <use xlink:href="#Helvetica-47"/>
      <use xlink:href="#Helvetica-72" x="77.783203"/>
      <use xlink:href="#Helvetica-6f" x="111.083984"/>
      <use xlink:href="#Helvetica-77" x="166.699219"/>
      <use xlink:href="#Helvetica-74" x="238.916016"/>
      <use xlink:href="#Helvetica-68" x="266.699219"/>
      <use xlink:href="#Helvetica-20" x="322.314453"/>
      <use xlink:href="#Helvetica-61" x="350.097656"/>
      <use xlink:href="#Helvetica-64" x="405.712891"/>
      <use xlink:href="#Helvetica-76" x="461.328125"/>
      <use xlink:href="#Helvetica-61" x="511.328125"/>
      <use xlink:href="#Helvetica-6e" x="566.943359"/>
      <use xlink:href="#Helvetica-74" x="622.558594"/>
      <use xlink:href="#Helvetica-61" x="650.341797"/>
      <use xlink:href="#Helvetica-67" x="705.957031"/>
      <use xlink:href="#Helvetica-65" x="761.572266"/>
     </g>
    </g>
   </g>
   <g id="line2d_8">
    <path d="M 90 369.36 
L 648 369.36 
" clip-path="url(#p93ba9aa59b)" style="fill: none; stroke-dasharray: 18.5,8; stroke-dashoffset: 0; stroke: #000000; stroke-width: 5"/>
   </g>
   <g id="LineCollection_2">
    <path d="M 369 118.927525 
L 369 100.598307 
" clip-path="url(#p93ba9aa59b)" style="fill: none; stroke: #000000; stroke-width: 4"/>
   </g>
   <g id="patch_3">
    <path d="M 90 384.48 
L 90 51.84 
" style="fill: none; stroke: #000000; stroke-width: 0.8; stroke-linejoin: miter; stroke-linecap: square"/>
   </g>
   <g id="patch_4">
    <path d="M 90 384.48 
L 648 384.48 
" style="fill: none; stroke: #000000; stroke-width: 0.8; stroke-linejoin: miter; stroke-linecap: square"/>
   </g>
   <g id="PathCollection_1">
    <defs>
     <path id="m69485a84fe" d="M 0 3 
C 0.795609 3 1.55874 2.683901 2.12132 2.12132 
C 2.683901 1.55874 3 0.795609 3 0 
C 3 -0.795609 2.683901 -1.55874 2.12132 -2.12132 
C 1.55874 -2.683901 0.795609 -3 0 -3 
C -0.795609 -3 -1.55874 -2.683901 -2.12132 -2.12132 
C -2.683901 -1.55874 -3 -0.795609 -3 0 
C -3 0.795609 -2.683901 1.55874 -2.12132 2.12132 
C -1.55874 2.683901 -0.795609 3 0 3 
z
" style="stroke: #000000"/>
    </defs>
    <g clip-path="url(#p93ba9aa59b)">
     <use xlink:href="#m69485a84fe" x="369" y="109.150467" style="fill: #ffffff; stroke: #000000"/>
    </g>
   </g>
  </g>
 </g>
 <defs>
  <clipPath id="p93ba9aa59b">
   <rect x="90" y="51.84" width="558" height="332.64"/>
  </clipPath>
 </defs>
</svg>
