<?xml version="1.0" encoding="utf-8" standalone="no"?>
<!DOCTYPE svg PUBLIC "-//W3C//DTD SVG 1.1//EN"
  "http://www.w3.org/Graphics/SVG/1.1/DTD/svg11.dtd">
<svg xmlns:xlink="http://www.w3.org/1999/xlink" width="1008pt" height="216pt" viewBox="0 0 1008 216" xmlns="http://www.w3.org/2000/svg" version="1.1">
 <metadata>
  <rdf:RDF xmlns:dc="http://purl.org/dc/elements/1.1/" xmlns:cc="http://creativecommons.org/ns#" xmlns:rdf="http://www.w3.org/1999/02/22-rdf-syntax-ns#">
   <cc:Work>
    <dc:type rdf:resource="http://purl.org/dc/dcmitype/StillImage"/>
    <dc:date>2024-03-11T11:58:40.588855</dc:date>
    <dc:format>image/svg+xml</dc:format>
    <dc:creator>
     <cc:Agent>
      <dc:title>Matplotlib v3.7.2, https://matplotlib.org/</dc:title>
     </cc:Agent>
    </dc:creator>
   </cc:Work>
  </rdf:RDF>
 </metadata>
 <defs>
  <style type="text/css">*{stroke-linejoin: round; stroke-linecap: butt}</style>
 </defs>
 <g id="figure_1">
  <g id="patch_1">
   <path d="M 0 216 
L 1008 216 
L 1008 0 
L 0 0 
z
" style="fill: #ffffff"/>
  </g>
  <g id="axes_1">
   <g id="patch_2">
    <path d="M 126 192.24 
L 907.2 192.24 
L 907.2 25.92 
L 126 25.92 
z
" style="fill: #ffffff"/>
   </g>
   <g id="PolyCollection_1">
    <path d="M 161.509091 41.76 
L 161.509091 192.24 
L 168.682645 192.24 
L 175.856198 192.24 
L 183.029752 192.24 
L 190.203306 192.24 
L 197.37686 192.24 
L 204.550413 192.24 
L 211.723967 192.24 
L 218.897521 192.24 
L 226.071074 192.24 
L 233.244628 192.24 
L 240.418182 192.24 
L 247.591736 192.24 
L 254.765289 192.24 
L 261.938843 192.24 
L 269.112397 192.24 
L 276.28595 192.24 
L 283.459504 192.24 
L 290.633058 192.24 
L 297.806612 192.24 
L 304.980165 192.24 
L 312.153719 192.24 
L 319.327273 192.24 
L 326.500826 192.24 
L 333.67438 192.24 
L 340.847934 192.24 
L 348.021488 192.24 
L 355.195041 192.24 
L 362.368595 192.24 
L 369.542149 192.24 
L 376.715702 192.24 
L 383.889256 192.24 
L 391.06281 192.24 
L 398.236364 192.24 
L 405.409917 192.24 
L 412.583471 192.24 
L 419.757025 192.24 
L 426.930579 192.24 
L 434.104132 192.24 
L 441.277686 192.24 
L 448.45124 192.24 
L 455.624793 192.24 
L 462.798347 192.24 
L 469.971901 192.24 
L 477.145455 192.24 
L 484.319008 192.24 
L 491.492562 192.24 
L 498.666116 192.24 
L 505.839669 192.24 
L 513.013223 192.24 
L 520.186777 192.24 
L 527.360331 192.24 
L 534.533884 192.24 
L 541.707438 192.24 
L 548.880992 192.24 
L 556.054545 192.24 
L 563.228099 192.24 
L 570.401653 192.24 
L 577.575207 192.24 
L 584.74876 192.24 
L 591.922314 192.24 
L 599.095868 192.24 
L 606.269421 192.24 
L 613.442975 192.24 
L 620.616529 192.24 
L 627.790083 192.24 
L 634.963636 192.24 
L 642.13719 192.24 
L 649.310744 192.24 
L 656.484298 192.24 
L 663.657851 192.24 
L 670.831405 192.24 
L 678.004959 192.24 
L 685.178512 192.24 
L 692.352066 192.24 
L 699.52562 192.24 
L 706.699174 192.24 
L 713.872727 192.24 
L 721.046281 192.24 
L 728.219835 192.24 
L 735.393388 192.24 
L 742.566942 192.24 
L 749.740496 192.24 
L 756.91405 192.24 
L 764.087603 192.24 
L 771.261157 192.24 
L 778.434711 192.24 
L 785.608264 192.24 
L 792.781818 192.24 
L 799.955372 192.24 
L 807.128926 192.24 
L 814.302479 192.24 
L 821.476033 192.24 
L 828.649587 192.24 
L 835.82314 192.24 
L 842.996694 192.24 
L 850.170248 192.24 
L 857.343802 192.24 
L 864.517355 192.24 
L 871.690909 192.24 
L 871.690909 192.24 
L 871.690909 192.24 
L 864.517355 192.24 
L 857.343802 192.24 
L 850.170248 192.24 
L 842.996694 192.24 
L 835.82314 192.24 
L 828.649587 192.24 
L 821.476033 192.24 
L 814.302479 192.24 
L 807.128926 192.24 
L 799.955372 192.24 
L 792.781818 192.24 
L 785.608264 192.24 
L 778.434711 192.24 
L 771.261157 192.24 
L 764.087603 192.24 
L 756.91405 192.24 
L 749.740496 192.24 
L 742.566942 192.24 
L 735.393388 192.24 
L 728.219835 192.24 
L 721.046281 192.24 
L 713.872727 192.24 
L 706.699174 192.24 
L 699.52562 192.24 
L 692.352066 192.24 
L 685.178512 192.24 
L 678.004959 192.24 
L 670.831405 192.24 
L 663.657851 192.24 
L 656.484298 192.24 
L 649.310744 192.24 
L 642.13719 192.24 
L 634.963636 192.24 
L 627.790083 192.24 
L 620.616529 192.24 
L 613.442975 192.22416 
L 606.269421 192.22416 
L 599.095868 192.22416 
L 591.922314 192.20832 
L 584.74876 192.22416 
L 577.575207 192.22416 
L 570.401653 192.19248 
L 563.228099 192.19248 
L 556.054545 192.1608 
L 548.880992 192.19248 
L 541.707438 192.1608 
L 534.533884 192.19248 
L 527.360331 192.19248 
L 520.186777 192.1608 
L 513.013223 192.1608 
L 505.839669 192.17664 
L 498.666116 192.14496 
L 491.492562 192.04992 
L 484.319008 192.01824 
L 477.145455 191.87568 
L 469.971901 191.81232 
L 462.798347 191.6064 
L 455.624793 191.47968 
L 448.45124 191.3688 
L 441.277686 191.27376 
L 434.104132 190.9728 
L 426.930579 190.51344 
L 419.757025 189.83232 
L 412.583471 189.40464 
L 405.409917 188.7552 
L 398.236364 188.1216 
L 391.06281 187.26624 
L 383.889256 185.91984 
L 376.715702 184.9536 
L 369.542149 182.91024 
L 362.368595 180.18576 
L 355.195041 178.58592 
L 348.021488 175.51296 
L 340.847934 171.8064 
L 333.67438 168.44832 
L 326.500826 163.71216 
L 319.327273 158.37408 
L 312.153719 152.0856 
L 304.980165 147.03264 
L 297.806612 140.6016 
L 290.633058 133.28352 
L 283.459504 126.8208 
L 276.28595 117.98208 
L 269.112397 108.88992 
L 261.938843 101.49264 
L 254.765289 93.44592 
L 247.591736 87.39504 
L 240.418182 80.568 
L 233.244628 74.97648 
L 226.071074 69.81264 
L 218.897521 64.90224 
L 211.723967 61.25904 
L 204.550413 56.87136 
L 197.37686 53.18064 
L 190.203306 50.51952 
L 183.029752 47.63664 
L 175.856198 45.33984 
L 168.682645 43.51824 
L 161.509091 41.76 
z
" clip-path="url(#p4cbf5794d0)" style="fill: #008000"/>
   </g>
   <g id="PolyCollection_2">
    <path d="M 161.509091 33.84 
L 161.509091 41.76 
L 168.682645 43.51824 
L 175.856198 45.33984 
L 183.029752 47.63664 
L 190.203306 50.51952 
L 197.37686 53.18064 
L 204.550413 56.87136 
L 211.723967 61.25904 
L 218.897521 64.90224 
L 226.071074 69.81264 
L 233.244628 74.97648 
L 240.418182 80.568 
L 247.591736 87.39504 
L 254.765289 93.44592 
L 261.938843 101.49264 
L 269.112397 108.88992 
L 276.28595 117.98208 
L 283.459504 126.8208 
L 290.633058 133.28352 
L 297.806612 140.6016 
L 304.980165 147.03264 
L 312.153719 152.0856 
L 319.327273 158.37408 
L 326.500826 163.71216 
L 333.67438 168.44832 
L 340.847934 171.8064 
L 348.021488 175.51296 
L 355.195041 178.58592 
L 362.368595 180.18576 
L 369.542149 182.91024 
L 376.715702 184.9536 
L 383.889256 185.91984 
L 391.06281 187.26624 
L 398.236364 188.1216 
L 405.409917 188.7552 
L 412.583471 189.40464 
L 419.757025 189.83232 
L 426.930579 190.51344 
L 434.104132 190.9728 
L 441.277686 191.27376 
L 448.45124 191.3688 
L 455.624793 191.47968 
L 462.798347 191.6064 
L 469.971901 191.81232 
L 477.145455 191.87568 
L 484.319008 192.01824 
L 491.492562 192.04992 
L 498.666116 192.14496 
L 505.839669 192.17664 
L 513.013223 192.1608 
L 520.186777 192.1608 
L 527.360331 192.19248 
L 534.533884 192.19248 
L 541.707438 192.1608 
L 548.880992 192.19248 
L 556.054545 192.1608 
L 563.228099 192.19248 
L 570.401653 192.19248 
L 577.575207 192.22416 
L 584.74876 192.22416 
L 591.922314 192.20832 
L 599.095868 192.22416 
L 606.269421 192.22416 
L 613.442975 192.22416 
L 620.616529 192.24 
L 627.790083 192.24 
L 634.963636 192.24 
L 642.13719 192.24 
L 649.310744 192.24 
L 656.484298 192.24 
L 663.657851 192.24 
L 670.831405 192.24 
L 678.004959 192.24 
L 685.178512 192.24 
L 692.352066 192.24 
L 699.52562 192.24 
L 706.699174 192.24 
L 713.872727 192.24 
L 721.046281 192.24 
L 728.219835 192.24 
L 735.393388 192.24 
L 742.566942 192.24 
L 749.740496 192.24 
L 756.91405 192.24 
L 764.087603 192.24 
L 771.261157 192.24 
L 778.434711 192.24 
L 785.608264 192.24 
L 792.781818 192.24 
L 799.955372 192.24 
L 807.128926 192.24 
L 814.302479 192.24 
L 821.476033 192.24 
L 828.649587 192.24 
L 835.82314 192.24 
L 842.996694 192.24 
L 850.170248 192.24 
L 857.343802 192.24 
L 864.517355 192.24 
L 871.690909 192.24 
L 871.690909 33.84 
L 871.690909 33.84 
L 864.517355 33.84 
L 857.343802 33.84 
L 850.170248 33.84 
L 842.996694 33.84 
L 835.82314 33.84 
L 828.649587 33.84 
L 821.476033 33.84 
L 814.302479 33.84 
L 807.128926 33.84 
L 799.955372 33.84 
L 792.781818 33.84 
L 785.608264 33.84 
L 778.434711 33.84 
L 771.261157 33.84 
L 764.087603 33.84 
L 756.91405 33.84 
L 749.740496 33.84 
L 742.566942 33.84 
L 735.393388 33.84 
L 728.219835 33.84 
L 721.046281 33.84 
L 713.872727 33.84 
L 706.699174 33.84 
L 699.52562 33.84 
L 692.352066 33.84 
L 685.178512 33.84 
L 678.004959 33.84 
L 670.831405 33.84 
L 663.657851 33.84 
L 656.484298 33.84 
L 649.310744 33.84 
L 642.13719 33.84 
L 634.963636 33.84 
L 627.790083 33.84 
L 620.616529 33.84 
L 613.442975 33.84 
L 606.269421 33.84 
L 599.095868 33.84 
L 591.922314 33.84 
L 584.74876 33.84 
L 577.575207 33.84 
L 570.401653 33.84 
L 563.228099 33.84 
L 556.054545 33.84 
L 548.880992 33.84 
L 541.707438 33.84 
L 534.533884 33.84 
L 527.360331 33.84 
L 520.186777 33.84 
L 513.013223 33.84 
L 505.839669 33.84 
L 498.666116 33.84 
L 491.492562 33.84 
L 484.319008 33.84 
L 477.145455 33.84 
L 469.971901 33.84 
L 462.798347 33.84 
L 455.624793 33.84 
L 448.45124 33.84 
L 441.277686 33.84 
L 434.104132 33.84 
L 426.930579 33.84 
L 419.757025 33.84 
L 412.583471 33.84 
L 405.409917 33.84 
L 398.236364 33.84 
L 391.06281 33.84 
L 383.889256 33.84 
L 376.715702 33.84 
L 369.542149 33.84 
L 362.368595 33.84 
L 355.195041 33.84 
L 348.021488 33.84 
L 340.847934 33.84 
L 333.67438 33.84 
L 326.500826 33.84 
L 319.327273 33.84 
L 312.153719 33.84 
L 304.980165 33.84 
L 297.806612 33.84 
L 290.633058 33.84 
L 283.459504 33.84 
L 276.28595 33.84 
L 269.112397 33.84 
L 261.938843 33.84 
L 254.765289 33.84 
L 247.591736 33.84 
L 240.418182 33.84 
L 233.244628 33.84 
L 226.071074 33.84 
L 218.897521 33.84 
L 211.723967 33.84 
L 204.550413 33.84 
L 197.37686 33.84 
L 190.203306 33.84 
L 183.029752 33.84 
L 175.856198 33.84 
L 168.682645 33.84 
L 161.509091 33.84 
z
" clip-path="url(#p4cbf5794d0)" style="fill: #800080"/>
   </g>
   <g id="matplotlib.axis_1">
    <g id="xtick_1">
     <g id="line2d_1">
      <defs>
       <path id="ma6c7c2f366" d="M 0 0 
L 0 3.5 
" style="stroke: #000000; stroke-width: 0.8"/>
      </defs>
      <g>
       <use xlink:href="#ma6c7c2f366" x="161.509091" y="192.24" style="stroke: #000000; stroke-width: 0.8"/>
      </g>
     </g>
     <g id="text_1">
      <!-- 0 -->
      <g transform="translate(157.338388 212.500156) scale(0.15 -0.15)">
       <defs>
        <path id="Helvetica-30" d="M 1731 4475 
Q 2600 4475 2988 3759 
Q 3288 3206 3288 2244 
Q 3288 1331 3016 734 
Q 2622 -122 1728 -122 
Q 922 -122 528 578 
Q 200 1163 200 2147 
Q 200 2909 397 3456 
Q 766 4475 1731 4475 
z
M 1725 391 
Q 2163 391 2422 778 
Q 2681 1166 2681 2222 
Q 2681 2984 2493 3476 
Q 2306 3969 1766 3969 
Q 1269 3969 1039 3501 
Q 809 3034 809 2125 
Q 809 1441 956 1025 
Q 1181 391 1725 391 
z
" transform="scale(0.015625)"/>
       </defs>
       <use xlink:href="#Helvetica-30"/>
      </g>
     </g>
    </g>
    <g id="xtick_2">
     <g id="line2d_2">
      <g>
       <use xlink:href="#ma6c7c2f366" x="304.980165" y="192.24" style="stroke: #000000; stroke-width: 0.8"/>
      </g>
     </g>
     <g id="text_2">
      <!-- 20 -->
      <g transform="translate(296.638759 212.500156) scale(0.15 -0.15)">
       <defs>
        <path id="Helvetica-32" d="M 200 0 
Q 231 578 439 1006 
Q 647 1434 1250 1784 
L 1850 2131 
Q 2253 2366 2416 2531 
Q 2672 2791 2672 3125 
Q 2672 3516 2437 3745 
Q 2203 3975 1813 3975 
Q 1234 3975 1013 3538 
Q 894 3303 881 2888 
L 309 2888 
Q 319 3472 525 3841 
Q 891 4491 1816 4491 
Q 2584 4491 2939 4075 
Q 3294 3659 3294 3150 
Q 3294 2613 2916 2231 
Q 2697 2009 2131 1694 
L 1703 1456 
Q 1397 1288 1222 1134 
Q 909 863 828 531 
L 3272 531 
L 3272 0 
L 200 0 
z
" transform="scale(0.015625)"/>
       </defs>
       <use xlink:href="#Helvetica-32"/>
       <use xlink:href="#Helvetica-30" x="55.615234"/>
      </g>
     </g>
    </g>
    <g id="xtick_3">
     <g id="line2d_3">
      <g>
       <use xlink:href="#ma6c7c2f366" x="448.45124" y="192.24" style="stroke: #000000; stroke-width: 0.8"/>
      </g>
     </g>
     <g id="text_3">
      <!-- 40 -->
      <g transform="translate(440.109833 212.500156) scale(0.15 -0.15)">
       <defs>
        <path id="Helvetica-34" d="M 2116 1584 
L 2116 3613 
L 681 1584 
L 2116 1584 
z
M 2125 0 
L 2125 1094 
L 163 1094 
L 163 1644 
L 2213 4488 
L 2688 4488 
L 2688 1584 
L 3347 1584 
L 3347 1094 
L 2688 1094 
L 2688 0 
L 2125 0 
z
" transform="scale(0.015625)"/>
       </defs>
       <use xlink:href="#Helvetica-34"/>
       <use xlink:href="#Helvetica-30" x="55.615234"/>
      </g>
     </g>
    </g>
    <g id="xtick_4">
     <g id="line2d_4">
      <g>
       <use xlink:href="#ma6c7c2f366" x="591.922314" y="192.24" style="stroke: #000000; stroke-width: 0.8"/>
      </g>
     </g>
     <g id="text_4">
      <!-- 60 -->
      <g transform="translate(583.580908 212.500156) scale(0.15 -0.15)">
       <defs>
        <path id="Helvetica-36" d="M 1872 4494 
Q 2622 4494 2917 4105 
Q 3213 3716 3213 3303 
L 2656 3303 
Q 2606 3569 2497 3719 
Q 2294 4000 1881 4000 
Q 1409 4000 1131 3564 
Q 853 3128 822 2316 
Q 1016 2600 1309 2741 
Q 1578 2866 1909 2866 
Q 2472 2866 2890 2506 
Q 3309 2147 3309 1434 
Q 3309 825 2912 354 
Q 2516 -116 1781 -116 
Q 1153 -116 697 361 
Q 241 838 241 1966 
Q 241 2800 444 3381 
Q 834 4494 1872 4494 
z
M 1831 384 
Q 2275 384 2495 682 
Q 2716 981 2716 1388 
Q 2716 1731 2519 2042 
Q 2322 2353 1803 2353 
Q 1441 2353 1167 2112 
Q 894 1872 894 1388 
Q 894 963 1142 673 
Q 1391 384 1831 384 
z
" transform="scale(0.015625)"/>
       </defs>
       <use xlink:href="#Helvetica-36"/>
       <use xlink:href="#Helvetica-30" x="55.615234"/>
      </g>
     </g>
    </g>
    <g id="xtick_5">
     <g id="line2d_5">
      <g>
       <use xlink:href="#ma6c7c2f366" x="735.393388" y="192.24" style="stroke: #000000; stroke-width: 0.8"/>
      </g>
     </g>
     <g id="text_5">
      <!-- 80 -->
      <g transform="translate(727.051982 212.500156) scale(0.15 -0.15)">
       <defs>
        <path id="Helvetica-38" d="M 1741 2600 
Q 2113 2600 2322 2808 
Q 2531 3016 2531 3303 
Q 2531 3553 2331 3762 
Q 2131 3972 1722 3972 
Q 1316 3972 1134 3762 
Q 953 3553 953 3272 
Q 953 2956 1187 2778 
Q 1422 2600 1741 2600 
z
M 1775 384 
Q 2166 384 2423 595 
Q 2681 806 2681 1225 
Q 2681 1659 2415 1884 
Q 2150 2109 1734 2109 
Q 1331 2109 1076 1879 
Q 822 1650 822 1244 
Q 822 894 1055 639 
Q 1288 384 1775 384 
z
M 975 2384 
Q 741 2484 609 2619 
Q 363 2869 363 3269 
Q 363 3769 725 4128 
Q 1088 4488 1753 4488 
Q 2397 4488 2762 4148 
Q 3128 3809 3128 3356 
Q 3128 2938 2916 2678 
Q 2797 2531 2547 2391 
Q 2825 2263 2984 2097 
Q 3281 1784 3281 1284 
Q 3281 694 2884 283 
Q 2488 -128 1763 -128 
Q 1109 -128 657 226 
Q 206 581 206 1256 
Q 206 1653 400 1942 
Q 594 2231 975 2384 
z
" transform="scale(0.015625)"/>
       </defs>
       <use xlink:href="#Helvetica-38"/>
       <use xlink:href="#Helvetica-30" x="55.615234"/>
      </g>
     </g>
    </g>
    <g id="xtick_6">
     <g id="line2d_6">
      <g>
       <use xlink:href="#ma6c7c2f366" x="878.864463" y="192.24" style="stroke: #000000; stroke-width: 0.8"/>
      </g>
     </g>
     <g id="text_6">
      <!-- 100 -->
      <g transform="translate(866.352353 212.500156) scale(0.15 -0.15)">
       <defs>
        <path id="Helvetica-31" d="M 613 3169 
L 613 3600 
Q 1222 3659 1462 3798 
Q 1703 3938 1822 4456 
L 2266 4456 
L 2266 0 
L 1666 0 
L 1666 3169 
L 613 3169 
z
" transform="scale(0.015625)"/>
       </defs>
       <use xlink:href="#Helvetica-31"/>
       <use xlink:href="#Helvetica-30" x="55.615234"/>
       <use xlink:href="#Helvetica-30" x="111.230469"/>
      </g>
     </g>
    </g>
    <g id="text_7">
     <!-- Generation -->
     <g transform="translate(472.073906 232.538906) scale(0.18 -0.18)">
      <defs>
       <path id="Helvetica-47" d="M 2472 4709 
Q 3119 4709 3591 4459 
Q 4275 4100 4428 3200 
L 3813 3200 
Q 3700 3703 3347 3933 
Q 2994 4163 2456 4163 
Q 1819 4163 1383 3684 
Q 947 3206 947 2259 
Q 947 1441 1306 927 
Q 1666 413 2478 413 
Q 3100 413 3508 773 
Q 3916 1134 3925 1941 
L 2488 1941 
L 2488 2456 
L 4503 2456 
L 4503 0 
L 4103 0 
L 3953 591 
Q 3638 244 3394 109 
Q 2984 -122 2353 -122 
Q 1538 -122 950 406 
Q 309 1069 309 2225 
Q 309 3378 934 4059 
Q 1528 4709 2472 4709 
z
M 2369 4716 
L 2369 4716 
z
" transform="scale(0.015625)"/>
       <path id="Helvetica-65" d="M 1806 3422 
Q 2163 3422 2497 3255 
Q 2831 3088 3006 2822 
Q 3175 2569 3231 2231 
Q 3281 2000 3281 1494 
L 828 1494 
Q 844 984 1069 676 
Q 1294 369 1766 369 
Q 2206 369 2469 659 
Q 2619 828 2681 1050 
L 3234 1050 
Q 3213 866 3089 639 
Q 2966 413 2813 269 
Q 2556 19 2178 -69 
Q 1975 -119 1719 -119 
Q 1094 -119 659 336 
Q 225 791 225 1609 
Q 225 2416 662 2919 
Q 1100 3422 1806 3422 
z
M 2703 1941 
Q 2669 2306 2544 2525 
Q 2313 2931 1772 2931 
Q 1384 2931 1121 2651 
Q 859 2372 844 1941 
L 2703 1941 
z
M 1753 3428 
L 1753 3428 
z
" transform="scale(0.015625)"/>
       <path id="Helvetica-6e" d="M 413 3347 
L 947 3347 
L 947 2872 
Q 1184 3166 1450 3294 
Q 1716 3422 2041 3422 
Q 2753 3422 3003 2925 
Q 3141 2653 3141 2147 
L 3141 0 
L 2569 0 
L 2569 2109 
Q 2569 2416 2478 2603 
Q 2328 2916 1934 2916 
Q 1734 2916 1606 2875 
Q 1375 2806 1200 2600 
Q 1059 2434 1017 2257 
Q 975 2081 975 1753 
L 975 0 
L 413 0 
L 413 3347 
z
M 1734 3428 
L 1734 3428 
z
" transform="scale(0.015625)"/>
       <path id="Helvetica-72" d="M 428 3347 
L 963 3347 
L 963 2769 
Q 1028 2938 1284 3180 
Q 1541 3422 1875 3422 
Q 1891 3422 1928 3419 
Q 1966 3416 2056 3406 
L 2056 2813 
Q 2006 2822 1964 2825 
Q 1922 2828 1872 2828 
Q 1447 2828 1219 2554 
Q 991 2281 991 1925 
L 991 0 
L 428 0 
L 428 3347 
z
" transform="scale(0.015625)"/>
       <path id="Helvetica-61" d="M 844 891 
Q 844 647 1022 506 
Q 1200 366 1444 366 
Q 1741 366 2019 503 
Q 2488 731 2488 1250 
L 2488 1703 
Q 2384 1638 2221 1594 
Q 2059 1550 1903 1531 
L 1563 1488 
Q 1256 1447 1103 1359 
Q 844 1213 844 891 
z
M 2206 2028 
Q 2400 2053 2466 2191 
Q 2503 2266 2503 2406 
Q 2503 2694 2298 2823 
Q 2094 2953 1713 2953 
Q 1272 2953 1088 2716 
Q 984 2584 953 2325 
L 428 2325 
Q 444 2944 830 3186 
Q 1216 3428 1725 3428 
Q 2316 3428 2684 3203 
Q 3050 2978 3050 2503 
L 3050 575 
Q 3050 488 3086 434 
Q 3122 381 3238 381 
Q 3275 381 3322 386 
Q 3369 391 3422 400 
L 3422 -16 
Q 3291 -53 3222 -62 
Q 3153 -72 3034 -72 
Q 2744 -72 2613 134 
Q 2544 244 2516 444 
Q 2344 219 2022 53 
Q 1700 -113 1313 -113 
Q 847 -113 551 170 
Q 256 453 256 878 
Q 256 1344 547 1600 
Q 838 1856 1309 1916 
L 2206 2028 
z
M 1741 3428 
L 1741 3428 
z
" transform="scale(0.015625)"/>
       <path id="Helvetica-74" d="M 525 4281 
L 1094 4281 
L 1094 3347 
L 1628 3347 
L 1628 2888 
L 1094 2888 
L 1094 703 
Q 1094 528 1213 469 
Q 1278 434 1431 434 
Q 1472 434 1519 436 
Q 1566 438 1628 444 
L 1628 0 
Q 1531 -28 1426 -40 
Q 1322 -53 1200 -53 
Q 806 -53 665 148 
Q 525 350 525 672 
L 525 2888 
L 72 2888 
L 72 3347 
L 525 3347 
L 525 4281 
z
" transform="scale(0.015625)"/>
       <path id="Helvetica-69" d="M 413 3331 
L 984 3331 
L 984 0 
L 413 0 
L 413 3331 
z
M 413 4591 
L 984 4591 
L 984 3953 
L 413 3953 
L 413 4591 
z
" transform="scale(0.015625)"/>
       <path id="Helvetica-6f" d="M 1741 363 
Q 2300 363 2508 786 
Q 2716 1209 2716 1728 
Q 2716 2197 2566 2491 
Q 2328 2953 1747 2953 
Q 1231 2953 997 2559 
Q 763 2166 763 1609 
Q 763 1075 997 719 
Q 1231 363 1741 363 
z
M 1763 3444 
Q 2409 3444 2856 3012 
Q 3303 2581 3303 1744 
Q 3303 934 2909 406 
Q 2516 -122 1688 -122 
Q 997 -122 590 345 
Q 184 813 184 1600 
Q 184 2444 612 2944 
Q 1041 3444 1763 3444 
z
M 1744 3428 
L 1744 3428 
z
" transform="scale(0.015625)"/>
      </defs>
      <use xlink:href="#Helvetica-47"/>
      <use xlink:href="#Helvetica-65" x="77.783203"/>
      <use xlink:href="#Helvetica-6e" x="133.398438"/>
      <use xlink:href="#Helvetica-65" x="189.013672"/>
      <use xlink:href="#Helvetica-72" x="244.628906"/>
      <use xlink:href="#Helvetica-61" x="277.929688"/>
      <use xlink:href="#Helvetica-74" x="333.544922"/>
      <use xlink:href="#Helvetica-69" x="361.328125"/>
      <use xlink:href="#Helvetica-6f" x="383.544922"/>
      <use xlink:href="#Helvetica-6e" x="439.160156"/>
     </g>
    </g>
   </g>
   <g id="matplotlib.axis_2">
    <g id="ytick_1">
     <g id="line2d_7">
      <defs>
       <path id="m47a86717c1" d="M 0 0 
L -3.5 0 
" style="stroke: #000000; stroke-width: 0.8"/>
      </defs>
      <g>
       <use xlink:href="#m47a86717c1" x="126" y="192.24" style="stroke: #000000; stroke-width: 0.8"/>
      </g>
     </g>
     <g id="text_8">
      <!-- 0.00 -->
      <g transform="translate(87.308594 197.620078) scale(0.15 -0.15)">
       <defs>
        <path id="Helvetica-2e" d="M 547 681 
L 1200 681 
L 1200 0 
L 547 0 
L 547 681 
z
" transform="scale(0.015625)"/>
       </defs>
       <use xlink:href="#Helvetica-30"/>
       <use xlink:href="#Helvetica-2e" x="55.615234"/>
       <use xlink:href="#Helvetica-30" x="83.398438"/>
       <use xlink:href="#Helvetica-30" x="139.013672"/>
      </g>
     </g>
    </g>
    <g id="ytick_2">
     <g id="line2d_8">
      <g>
       <use xlink:href="#m47a86717c1" x="126" y="152.64" style="stroke: #000000; stroke-width: 0.8"/>
      </g>
     </g>
     <g id="text_9">
      <!-- 0.25 -->
      <g transform="translate(87.308594 158.020078) scale(0.15 -0.15)">
       <defs>
        <path id="Helvetica-35" d="M 791 1141 
Q 847 659 1238 475 
Q 1438 381 1700 381 
Q 2200 381 2440 700 
Q 2681 1019 2681 1406 
Q 2681 1875 2395 2131 
Q 2109 2388 1709 2388 
Q 1419 2388 1211 2275 
Q 1003 2163 856 1963 
L 369 1991 
L 709 4400 
L 3034 4400 
L 3034 3856 
L 1131 3856 
L 941 2613 
Q 1097 2731 1238 2791 
Q 1488 2894 1816 2894 
Q 2431 2894 2859 2497 
Q 3288 2100 3288 1491 
Q 3288 856 2895 371 
Q 2503 -113 1644 -113 
Q 1097 -113 676 195 
Q 256 503 206 1141 
L 791 1141 
z
" transform="scale(0.015625)"/>
       </defs>
       <use xlink:href="#Helvetica-30"/>
       <use xlink:href="#Helvetica-2e" x="55.615234"/>
       <use xlink:href="#Helvetica-32" x="83.398438"/>
       <use xlink:href="#Helvetica-35" x="139.013672"/>
      </g>
     </g>
    </g>
    <g id="ytick_3">
     <g id="line2d_9">
      <g>
       <use xlink:href="#m47a86717c1" x="126" y="113.04" style="stroke: #000000; stroke-width: 0.8"/>
      </g>
     </g>
     <g id="text_10">
      <!-- 0.50 -->
      <g transform="translate(87.308594 118.420078) scale(0.15 -0.15)">
       <use xlink:href="#Helvetica-30"/>
       <use xlink:href="#Helvetica-2e" x="55.615234"/>
       <use xlink:href="#Helvetica-35" x="83.398438"/>
       <use xlink:href="#Helvetica-30" x="139.013672"/>
      </g>
     </g>
    </g>
    <g id="ytick_4">
     <g id="line2d_10">
      <g>
       <use xlink:href="#m47a86717c1" x="126" y="73.44" style="stroke: #000000; stroke-width: 0.8"/>
      </g>
     </g>
     <g id="text_11">
      <!-- 0.75 -->
      <g transform="translate(87.308594 78.820078) scale(0.15 -0.15)">
       <defs>
        <path id="Helvetica-37" d="M 3347 4400 
L 3347 3909 
Q 3131 3700 2773 3181 
Q 2416 2663 2141 2063 
Q 1869 1478 1728 997 
Q 1638 688 1494 0 
L 872 0 
Q 1084 1281 1809 2550 
Q 2238 3294 2709 3834 
L 234 3834 
L 234 4400 
L 3347 4400 
z
" transform="scale(0.015625)"/>
       </defs>
       <use xlink:href="#Helvetica-30"/>
       <use xlink:href="#Helvetica-2e" x="55.615234"/>
       <use xlink:href="#Helvetica-37" x="83.398438"/>
       <use xlink:href="#Helvetica-35" x="139.013672"/>
      </g>
     </g>
    </g>
    <g id="ytick_5">
     <g id="line2d_11">
      <g>
       <use xlink:href="#m47a86717c1" x="126" y="33.84" style="stroke: #000000; stroke-width: 0.8"/>
      </g>
     </g>
     <g id="text_12">
      <!-- 1.00 -->
      <g transform="translate(87.308594 39.220078) scale(0.15 -0.15)">
       <use xlink:href="#Helvetica-31"/>
       <use xlink:href="#Helvetica-2e" x="55.615234"/>
       <use xlink:href="#Helvetica-30" x="83.398438"/>
       <use xlink:href="#Helvetica-30" x="139.013672"/>
      </g>
     </g>
    </g>
    <g id="text_13">
     <!-- Frequency -->
     <g transform="translate(79.449844 151.597969) rotate(-90) scale(0.18 -0.18)">
      <defs>
       <path id="Helvetica-46" d="M 547 4591 
L 3731 4591 
L 3731 4028 
L 1169 4028 
L 1169 2634 
L 3422 2634 
L 3422 2088 
L 1169 2088 
L 1169 0 
L 547 0 
L 547 4591 
z
" transform="scale(0.015625)"/>
       <path id="Helvetica-71" d="M 775 1628 
Q 775 1194 897 900 
Q 1113 378 1669 378 
Q 2256 378 2478 928 
Q 2600 1231 2600 1703 
Q 2600 2138 2466 2428 
Q 2238 2925 1663 2925 
Q 1297 2925 1036 2608 
Q 775 2291 775 1628 
z
M 1606 3422 
Q 2022 3422 2306 3213 
Q 2463 3100 2606 2881 
L 2606 3347 
L 3141 3347 
L 3141 -1334 
L 2575 -1334 
L 2575 384 
Q 2434 159 2186 26 
Q 1938 -106 1566 -106 
Q 1031 -106 609 312 
Q 188 731 188 1588 
Q 188 2391 583 2906 
Q 978 3422 1606 3422 
z
" transform="scale(0.015625)"/>
       <path id="Helvetica-75" d="M 975 3347 
L 975 1125 
Q 975 869 1056 706 
Q 1206 406 1616 406 
Q 2203 406 2416 931 
Q 2531 1213 2531 1703 
L 2531 3347 
L 3094 3347 
L 3094 0 
L 2563 0 
L 2569 494 
Q 2459 303 2297 172 
Q 1975 -91 1516 -91 
Q 800 -91 541 388 
Q 400 644 400 1072 
L 400 3347 
L 975 3347 
z
M 1747 3428 
L 1747 3428 
z
" transform="scale(0.015625)"/>
       <path id="Helvetica-63" d="M 1703 3444 
Q 2269 3444 2623 3169 
Q 2978 2894 3050 2222 
L 2503 2222 
Q 2453 2531 2275 2736 
Q 2097 2941 1703 2941 
Q 1166 2941 934 2416 
Q 784 2075 784 1575 
Q 784 1072 996 728 
Q 1209 384 1666 384 
Q 2016 384 2220 598 
Q 2425 813 2503 1184 
L 3050 1184 
Q 2956 519 2581 211 
Q 2206 -97 1622 -97 
Q 966 -97 575 383 
Q 184 863 184 1581 
Q 184 2463 612 2953 
Q 1041 3444 1703 3444 
z
M 1616 3428 
L 1616 3428 
z
" transform="scale(0.015625)"/>
       <path id="Helvetica-79" d="M 2503 3347 
L 3125 3347 
Q 3006 3025 2597 1878 
Q 2291 1016 2084 472 
Q 1597 -809 1397 -1090 
Q 1197 -1372 709 -1372 
Q 591 -1372 527 -1362 
Q 463 -1353 369 -1328 
L 369 -816 
Q 516 -856 581 -865 
Q 647 -875 697 -875 
Q 853 -875 926 -823 
Q 1000 -772 1050 -697 
Q 1066 -672 1162 -440 
Q 1259 -209 1303 -97 
L 66 3347 
L 703 3347 
L 1600 622 
L 2503 3347 
z
M 1597 3428 
L 1597 3428 
z
" transform="scale(0.015625)"/>
      </defs>
      <use xlink:href="#Helvetica-46"/>
      <use xlink:href="#Helvetica-72" x="61.083984"/>
      <use xlink:href="#Helvetica-65" x="94.384766"/>
      <use xlink:href="#Helvetica-71" x="150"/>
      <use xlink:href="#Helvetica-75" x="205.615234"/>
      <use xlink:href="#Helvetica-65" x="261.230469"/>
      <use xlink:href="#Helvetica-6e" x="316.845703"/>
      <use xlink:href="#Helvetica-63" x="372.460938"/>
      <use xlink:href="#Helvetica-79" x="422.460938"/>
     </g>
    </g>
   </g>
   <g id="patch_3">
    <path d="M 126 192.24 
L 126 25.92 
" style="fill: none; stroke: #000000; stroke-width: 0.8; stroke-linejoin: miter; stroke-linecap: square"/>
   </g>
   <g id="patch_4">
    <path d="M 126 192.24 
L 907.2 192.24 
" style="fill: none; stroke: #000000; stroke-width: 0.8; stroke-linejoin: miter; stroke-linecap: square"/>
   </g>
   <g id="text_14">
    <!-- Relative fitness: 0.2 -->
    <g transform="translate(438.065156 19.92) scale(0.18 -0.18)">
     <defs>
      <path id="Helvetica-52" d="M 2622 2488 
Q 3059 2488 3314 2663 
Q 3569 2838 3569 3294 
Q 3569 3784 3213 3963 
Q 3022 4056 2703 4056 
L 1184 4056 
L 1184 2488 
L 2622 2488 
z
M 563 4591 
L 2688 4591 
Q 3213 4591 3553 4438 
Q 4200 4144 4200 3353 
Q 4200 2941 4029 2678 
Q 3859 2416 3553 2256 
Q 3822 2147 3958 1969 
Q 4094 1791 4109 1391 
L 4131 775 
Q 4141 513 4175 384 
Q 4231 166 4375 103 
L 4375 0 
L 3613 0 
Q 3581 59 3562 153 
Q 3544 247 3531 516 
L 3494 1281 
Q 3472 1731 3159 1884 
Q 2981 1969 2600 1969 
L 1184 1969 
L 1184 0 
L 563 0 
L 563 4591 
z
" transform="scale(0.015625)"/>
      <path id="Helvetica-6c" d="M 428 4591 
L 991 4591 
L 991 0 
L 428 0 
L 428 4591 
z
" transform="scale(0.015625)"/>
      <path id="Helvetica-76" d="M 688 3347 
L 1581 622 
L 2516 3347 
L 3131 3347 
L 1869 0 
L 1269 0 
L 34 3347 
L 688 3347 
z
" transform="scale(0.015625)"/>
      <path id="Helvetica-20" transform="scale(0.015625)"/>
      <path id="Helvetica-66" d="M 553 3856 
Q 566 4206 675 4369 
Q 872 4656 1434 4656 
Q 1488 4656 1544 4653 
Q 1600 4650 1672 4644 
L 1672 4131 
Q 1584 4138 1545 4139 
Q 1506 4141 1472 4141 
Q 1216 4141 1166 4008 
Q 1116 3875 1116 3331 
L 1672 3331 
L 1672 2888 
L 1109 2888 
L 1109 0 
L 553 0 
L 553 2888 
L 88 2888 
L 88 3331 
L 553 3331 
L 553 3856 
z
" transform="scale(0.015625)"/>
      <path id="Helvetica-73" d="M 747 1050 
Q 772 769 888 619 
Q 1100 347 1625 347 
Q 1938 347 2175 483 
Q 2413 619 2413 903 
Q 2413 1119 2222 1231 
Q 2100 1300 1741 1391 
L 1294 1503 
Q 866 1609 663 1741 
Q 300 1969 300 2372 
Q 300 2847 642 3140 
Q 984 3434 1563 3434 
Q 2319 3434 2653 2991 
Q 2863 2709 2856 2384 
L 2325 2384 
Q 2309 2575 2191 2731 
Q 1997 2953 1519 2953 
Q 1200 2953 1036 2831 
Q 872 2709 872 2509 
Q 872 2291 1088 2159 
Q 1213 2081 1456 2022 
L 1828 1931 
Q 2434 1784 2641 1647 
Q 2969 1431 2969 969 
Q 2969 522 2630 197 
Q 2291 -128 1597 -128 
Q 850 -128 539 211 
Q 228 550 206 1050 
L 747 1050 
z
M 1578 3428 
L 1578 3428 
z
" transform="scale(0.015625)"/>
      <path id="Helvetica-3a" d="M 709 3303 
L 1363 3303 
L 1363 2622 
L 709 2622 
L 709 3303 
z
M 709 681 
L 1363 681 
L 1363 0 
L 709 0 
L 709 681 
z
" transform="scale(0.015625)"/>
     </defs>
     <use xlink:href="#Helvetica-52"/>
     <use xlink:href="#Helvetica-65" x="72.216797"/>
     <use xlink:href="#Helvetica-6c" x="127.832031"/>
     <use xlink:href="#Helvetica-61" x="150.048828"/>
     <use xlink:href="#Helvetica-74" x="205.664062"/>
     <use xlink:href="#Helvetica-69" x="233.447266"/>
     <use xlink:href="#Helvetica-76" x="255.664062"/>
     <use xlink:href="#Helvetica-65" x="305.664062"/>
     <use xlink:href="#Helvetica-20" x="361.279297"/>
     <use xlink:href="#Helvetica-66" x="389.0625"/>
     <use xlink:href="#Helvetica-69" x="416.845703"/>
     <use xlink:href="#Helvetica-74" x="439.0625"/>
     <use xlink:href="#Helvetica-6e" x="466.845703"/>
     <use xlink:href="#Helvetica-65" x="522.460938"/>
     <use xlink:href="#Helvetica-73" x="578.076172"/>
     <use xlink:href="#Helvetica-73" x="628.076172"/>
     <use xlink:href="#Helvetica-3a" x="678.076172"/>
     <use xlink:href="#Helvetica-20" x="705.859375"/>
     <use xlink:href="#Helvetica-30" x="733.642578"/>
     <use xlink:href="#Helvetica-2e" x="789.257812"/>
     <use xlink:href="#Helvetica-32" x="817.041016"/>
    </g>
   </g>
  </g>
 </g>
 <defs>
  <clipPath id="p4cbf5794d0">
   <rect x="126" y="25.92" width="781.2" height="166.32"/>
  </clipPath>
 </defs>
</svg>
