<?xml version="1.0" encoding="utf-8" standalone="no"?>
<!DOCTYPE svg PUBLIC "-//W3C//DTD SVG 1.1//EN"
  "http://www.w3.org/Graphics/SVG/1.1/DTD/svg11.dtd">
<svg xmlns:xlink="http://www.w3.org/1999/xlink" width="720pt" height="432pt" viewBox="0 0 720 432" xmlns="http://www.w3.org/2000/svg" version="1.1">
 <metadata>
  <rdf:RDF xmlns:dc="http://purl.org/dc/elements/1.1/" xmlns:cc="http://creativecommons.org/ns#" xmlns:rdf="http://www.w3.org/1999/02/22-rdf-syntax-ns#">
   <cc:Work>
    <dc:type rdf:resource="http://purl.org/dc/dcmitype/StillImage"/>
    <dc:date>2024-03-11T12:37:50.602683</dc:date>
    <dc:format>image/svg+xml</dc:format>
    <dc:creator>
     <cc:Agent>
      <dc:title>Matplotlib v3.7.2, https://matplotlib.org/</dc:title>
     </cc:Agent>
    </dc:creator>
   </cc:Work>
  </rdf:RDF>
 </metadata>
 <defs>
  <style type="text/css">*{stroke-linejoin: round; stroke-linecap: butt}</style>
 </defs>
 <g id="figure_1">
  <g id="patch_1">
   <path d="M 0 432 
L 720 432 
L 720 0 
L 0 0 
z
" style="fill: #ffffff"/>
  </g>
  <g id="axes_1">
   <g id="patch_2">
    <path d="M 90 384.48 
L 648 384.48 
L 648 51.84 
L 90 51.84 
z
" style="fill: #ffffff"/>
   </g>
   <g id="PolyCollection_1">
    <defs>
     <path id="m228bfd4bf9" d="M 115.363636 -81.163708 
L 115.363636 -74.498557 
L 128.370629 -77.011415 
L 141.377622 -79.977839 
L 154.384615 -83.487388 
L 167.391608 -87.67256 
L 180.398601 -92.653942 
L 193.405594 -98.614011 
L 206.412587 -105.421033 
L 219.41958 -113.317127 
L 232.426573 -122.182212 
L 245.433566 -132.069823 
L 258.440559 -143.495072 
L 271.447552 -155.63002 
L 284.454545 -168.677105 
L 297.461538 -182.321465 
L 310.468531 -196.751069 
L 323.475524 -211.801408 
L 336.482517 -225.734169 
L 349.48951 -239.691956 
L 362.496503 -253.534639 
L 375.503497 -266.264187 
L 388.51049 -278.22492 
L 401.517483 -289.216659 
L 414.524476 -299.435564 
L 427.531469 -308.417397 
L 440.538462 -316.422449 
L 453.545455 -323.34654 
L 466.552448 -329.443777 
L 479.559441 -334.746442 
L 492.566434 -339.316774 
L 505.573427 -343.28819 
L 518.58042 -346.742377 
L 531.587413 -349.672178 
L 544.594406 -352.095979 
L 557.601399 -354.198513 
L 570.608392 -355.941909 
L 583.615385 -357.391687 
L 596.622378 -358.638546 
L 609.629371 -359.658946 
L 622.636364 -360.530374 
L 622.636364 -362.418128 
L 622.636364 -362.418128 
L 609.629371 -361.838192 
L 596.622378 -361.12455 
L 583.615385 -360.282953 
L 570.608392 -359.256118 
L 557.601399 -358.027644 
L 544.594406 -356.508382 
L 531.587413 -354.70235 
L 518.58042 -352.495167 
L 505.573427 -349.837625 
L 492.566434 -346.656166 
L 479.559441 -342.851422 
L 466.552448 -338.258523 
L 453.545455 -333.132191 
L 440.538462 -326.975455 
L 427.531469 -319.967191 
L 414.524476 -311.868754 
L 401.517483 -302.456497 
L 388.51049 -292.260844 
L 375.503497 -281.142447 
L 362.496503 -269.078272 
L 349.48951 -255.953466 
L 336.482517 -242.461556 
L 323.475524 -228.642161 
L 310.468531 -214.705155 
L 297.461538 -200.234897 
L 284.454545 -186.674386 
L 271.447552 -173.098113 
L 258.440559 -160.636922 
L 245.433566 -148.719502 
L 232.426573 -138.0172 
L 219.41958 -128.156121 
L 206.412587 -119.500981 
L 193.405594 -111.365188 
L 180.398601 -104.557653 
L 167.391608 -98.324638 
L 154.384615 -93.07026 
L 141.377622 -88.455783 
L 128.370629 -84.48916 
L 115.363636 -81.163708 
z
" style="stroke: #800080; stroke-opacity: 0.4"/>
    </defs>
    <g clip-path="url(#p549150a3f7)">
     <use xlink:href="#m228bfd4bf9" x="0" y="432" style="fill: #800080; fill-opacity: 0.4; stroke: #800080; stroke-opacity: 0.4"/>
    </g>
   </g>
   <g id="PolyCollection_2">
    <defs>
     <path id="m3352895bd9" d="M 115.363636 -353.18143 
L 115.363636 -346.516296 
L 128.370629 -343.190822 
L 141.377622 -339.224201 
L 154.384615 -334.609745 
L 167.391608 -329.355349 
L 180.398601 -323.122352 
L 193.405594 -316.314807 
L 206.412587 -308.179006 
L 219.41958 -299.523866 
L 232.426573 -289.662818 
L 245.433566 -278.960498 
L 258.440559 -267.043078 
L 271.447552 -254.581896 
L 284.454545 -241.005596 
L 297.461538 -227.445103 
L 310.468531 -212.974827 
L 323.475524 -199.037839 
L 336.482517 -185.218435 
L 349.48951 -171.726525 
L 362.496503 -158.601755 
L 375.503497 -146.537553 
L 388.51049 -135.419179 
L 401.517483 -125.223494 
L 414.524476 -115.811242 
L 427.531469 -107.712805 
L 440.538462 -100.70454 
L 453.545455 -94.547827 
L 466.552448 -89.421497 
L 479.559441 -84.828587 
L 492.566434 -81.023826 
L 505.573427 -77.842381 
L 518.58042 -75.184841 
L 531.587413 -72.977639 
L 544.594406 -71.171631 
L 557.601399 -69.652359 
L 570.608392 -68.423871 
L 583.615385 -67.397067 
L 596.622378 -66.555442 
L 609.629371 -65.84182 
L 622.636364 -65.261869 
L 622.636364 -67.149626 
L 622.636364 -67.149626 
L 609.629371 -68.021039 
L 596.622378 -69.041474 
L 583.615385 -70.288315 
L 570.608392 -71.738106 
L 557.601399 -73.481476 
L 544.594406 -75.58401 
L 531.587413 -78.007814 
L 518.58042 -80.93764 
L 505.573427 -84.391796 
L 492.566434 -88.363226 
L 479.559441 -92.933565 
L 466.552448 -98.236221 
L 453.545455 -104.333483 
L 440.538462 -111.257551 
L 427.531469 -119.262599 
L 414.524476 -128.244441 
L 401.517483 -138.463341 
L 388.51049 -149.455071 
L 375.503497 -161.415831 
L 362.496503 -174.145351 
L 349.48951 -187.988044 
L 336.482517 -201.945813 
L 323.475524 -215.878601 
L 310.468531 -230.92894 
L 297.461538 -245.358535 
L 284.454545 -259.002877 
L 271.447552 -272.04998 
L 258.440559 -284.184937 
L 245.433566 -295.610182 
L 232.426573 -305.497779 
L 219.41958 -314.36285 
L 206.412587 -322.258963 
L 193.405594 -329.065984 
L 180.398601 -335.026073 
L 167.391608 -340.007453 
L 154.384615 -344.192585 
L 141.377622 -347.702161 
L 128.370629 -350.668588 
L 115.363636 -353.18143 
z
" style="stroke: #008000; stroke-opacity: 0.4"/>
    </defs>
    <g clip-path="url(#p549150a3f7)">
     <use xlink:href="#m3352895bd9" x="0" y="432" style="fill: #008000; fill-opacity: 0.4; stroke: #008000; stroke-opacity: 0.4"/>
    </g>
   </g>
   <g id="PathCollection_1">
    <defs>
     <path id="m5595631c00" d="M 0 3 
C 0.795609 3 1.55874 2.683901 2.12132 2.12132 
C 2.683901 1.55874 3 0.795609 3 0 
C 3 -0.795609 2.683901 -1.55874 2.12132 -2.12132 
C 1.55874 -2.683901 0.795609 -3 0 -3 
C -0.795609 -3 -1.55874 -2.683901 -2.12132 -2.12132 
C -2.683901 -1.55874 -3 -0.795609 -3 0 
C -3 0.795609 -2.683901 1.55874 -2.12132 2.12132 
C -1.55874 2.683901 -0.795609 3 0 3 
z
" style="stroke: #000000"/>
    </defs>
    <g clip-path="url(#p549150a3f7)">
     <use xlink:href="#m5595631c00" x="115.363636" y="369.36" style="fill: #800080; stroke: #000000"/>
     <use xlink:href="#m5595631c00" x="128.370629" y="369.36" style="fill: #800080; stroke: #000000"/>
     <use xlink:href="#m5595631c00" x="141.377622" y="352.56" style="fill: #800080; stroke: #000000"/>
     <use xlink:href="#m5595631c00" x="154.384615" y="344.159999" style="fill: #800080; stroke: #000000"/>
     <use xlink:href="#m5595631c00" x="167.391608" y="350.46" style="fill: #800080; stroke: #000000"/>
     <use xlink:href="#m5595631c00" x="180.398601" y="316.768695" style="fill: #800080; stroke: #000000"/>
     <use xlink:href="#m5595631c00" x="193.405594" y="336.96" style="fill: #800080; stroke: #000000"/>
     <use xlink:href="#m5595631c00" x="206.412587" y="326.159998" style="fill: #800080; stroke: #000000"/>
     <use xlink:href="#m5595631c00" x="219.41958" y="311.206153" style="fill: #800080; stroke: #000000"/>
     <use xlink:href="#m5595631c00" x="232.426573" y="301.076131" style="fill: #800080; stroke: #000000"/>
     <use xlink:href="#m5595631c00" x="245.433566" y="276.313843" style="fill: #800080; stroke: #000000"/>
     <use xlink:href="#m5595631c00" x="258.440559" y="300.24" style="fill: #800080; stroke: #000000"/>
     <use xlink:href="#m5595631c00" x="271.447552" y="254.656553" style="fill: #800080; stroke: #000000"/>
     <use xlink:href="#m5595631c00" x="284.454545" y="272.160001" style="fill: #800080; stroke: #000000"/>
     <use xlink:href="#m5595631c00" x="297.461538" y="192.960006" style="fill: #800080; stroke: #000000"/>
     <use xlink:href="#m5595631c00" x="310.468531" y="252.301939" style="fill: #800080; stroke: #000000"/>
     <use xlink:href="#m5595631c00" x="323.475524" y="232.792262" style="fill: #800080; stroke: #000000"/>
     <use xlink:href="#m5595631c00" x="336.482517" y="181.663456" style="fill: #800080; stroke: #000000"/>
     <use xlink:href="#m5595631c00" x="349.48951" y="151.350702" style="fill: #800080; stroke: #000000"/>
     <use xlink:href="#m5595631c00" x="362.496503" y="177.594149" style="fill: #800080; stroke: #000000"/>
     <use xlink:href="#m5595631c00" x="375.503497" y="214.643719" style="fill: #800080; stroke: #000000"/>
     <use xlink:href="#m5595631c00" x="388.51049" y="96.462447" style="fill: #800080; stroke: #000000"/>
     <use xlink:href="#m5595631c00" x="401.517483" y="115.997845" style="fill: #800080; stroke: #000000"/>
     <use xlink:href="#m5595631c00" x="414.524476" y="121.23692" style="fill: #800080; stroke: #000000"/>
     <use xlink:href="#m5595631c00" x="427.531469" y="123.220474" style="fill: #800080; stroke: #000000"/>
     <use xlink:href="#m5595631c00" x="440.538462" y="134.159996" style="fill: #800080; stroke: #000000"/>
     <use xlink:href="#m5595631c00" x="453.545455" y="122.665267" style="fill: #800080; stroke: #000000"/>
     <use xlink:href="#m5595631c00" x="466.552448" y="96.462447" style="fill: #800080; stroke: #000000"/>
     <use xlink:href="#m5595631c00" x="479.559441" y="90.833683" style="fill: #800080; stroke: #000000"/>
     <use xlink:href="#m5595631c00" x="492.566434" y="81.711223" style="fill: #800080; stroke: #000000"/>
     <use xlink:href="#m5595631c00" x="505.573427" y="83.305954" style="fill: #800080; stroke: #000000"/>
     <use xlink:href="#m5595631c00" x="518.58042" y="82.875783" style="fill: #800080; stroke: #000000"/>
     <use xlink:href="#m5595631c00" x="531.587413" y="82.875783" style="fill: #800080; stroke: #000000"/>
     <use xlink:href="#m5595631c00" x="544.594406" y="72.665656" style="fill: #800080; stroke: #000000"/>
     <use xlink:href="#m5595631c00" x="557.601399" y="85.287273" style="fill: #800080; stroke: #000000"/>
     <use xlink:href="#m5595631c00" x="570.608392" y="73.394042" style="fill: #800080; stroke: #000000"/>
     <use xlink:href="#m5595631c00" x="583.615385" y="66.96" style="fill: #800080; stroke: #000000"/>
     <use xlink:href="#m5595631c00" x="596.622378" y="72.775389" style="fill: #800080; stroke: #000000"/>
     <use xlink:href="#m5595631c00" x="609.629371" y="72.559997" style="fill: #800080; stroke: #000000"/>
     <use xlink:href="#m5595631c00" x="622.636364" y="66.96" style="fill: #800080; stroke: #000000"/>
    </g>
   </g>
   <g id="PathCollection_2">
    <defs>
     <path id="mecdff54283" d="M 0 3 
C 0.795609 3 1.55874 2.683901 2.12132 2.12132 
C 2.683901 1.55874 3 0.795609 3 0 
C 3 -0.795609 2.683901 -1.55874 2.12132 -2.12132 
C 1.55874 -2.683901 0.795609 -3 0 -3 
C -0.795609 -3 -1.55874 -2.683901 -2.12132 -2.12132 
C -2.683901 -1.55874 -3 -0.795609 -3 0 
C -3 0.795609 -2.683901 1.55874 -2.12132 2.12132 
C -1.55874 2.683901 -0.795609 3 0 3 
z
" style="stroke: #000000"/>
    </defs>
    <g clip-path="url(#p549150a3f7)">
     <use xlink:href="#mecdff54283" x="115.363636" y="66.96" style="fill: #008000; stroke: #000000"/>
     <use xlink:href="#mecdff54283" x="128.370629" y="66.96" style="fill: #008000; stroke: #000000"/>
     <use xlink:href="#mecdff54283" x="141.377622" y="83.760008" style="fill: #008000; stroke: #000000"/>
     <use xlink:href="#mecdff54283" x="154.384615" y="92.159994" style="fill: #008000; stroke: #000000"/>
     <use xlink:href="#mecdff54283" x="167.391608" y="85.86" style="fill: #008000; stroke: #000000"/>
     <use xlink:href="#mecdff54283" x="180.398601" y="119.55131" style="fill: #008000; stroke: #000000"/>
     <use xlink:href="#mecdff54283" x="193.405594" y="99.360003" style="fill: #008000; stroke: #000000"/>
     <use xlink:href="#mecdff54283" x="206.412587" y="110.159997" style="fill: #008000; stroke: #000000"/>
     <use xlink:href="#mecdff54283" x="219.41958" y="125.113852" style="fill: #008000; stroke: #000000"/>
     <use xlink:href="#mecdff54283" x="232.426573" y="135.243878" style="fill: #008000; stroke: #000000"/>
     <use xlink:href="#mecdff54283" x="245.433566" y="160.006148" style="fill: #008000; stroke: #000000"/>
     <use xlink:href="#mecdff54283" x="258.440559" y="136.079996" style="fill: #008000; stroke: #000000"/>
     <use xlink:href="#mecdff54283" x="271.447552" y="181.663456" style="fill: #008000; stroke: #000000"/>
     <use xlink:href="#mecdff54283" x="284.454545" y="164.160008" style="fill: #008000; stroke: #000000"/>
     <use xlink:href="#mecdff54283" x="297.461538" y="243.360003" style="fill: #008000; stroke: #000000"/>
     <use xlink:href="#mecdff54283" x="310.468531" y="184.018061" style="fill: #008000; stroke: #000000"/>
     <use xlink:href="#mecdff54283" x="323.475524" y="203.527738" style="fill: #008000; stroke: #000000"/>
     <use xlink:href="#mecdff54283" x="336.482517" y="254.656553" style="fill: #008000; stroke: #000000"/>
     <use xlink:href="#mecdff54283" x="349.48951" y="284.969298" style="fill: #008000; stroke: #000000"/>
     <use xlink:href="#mecdff54283" x="362.496503" y="258.725851" style="fill: #008000; stroke: #000000"/>
     <use xlink:href="#mecdff54283" x="375.503497" y="221.676281" style="fill: #008000; stroke: #000000"/>
     <use xlink:href="#mecdff54283" x="388.51049" y="339.857562" style="fill: #008000; stroke: #000000"/>
     <use xlink:href="#mecdff54283" x="401.517483" y="320.322164" style="fill: #008000; stroke: #000000"/>
     <use xlink:href="#mecdff54283" x="414.524476" y="315.083076" style="fill: #008000; stroke: #000000"/>
     <use xlink:href="#mecdff54283" x="427.531469" y="313.099535" style="fill: #008000; stroke: #000000"/>
     <use xlink:href="#mecdff54283" x="440.538462" y="302.159999" style="fill: #008000; stroke: #000000"/>
     <use xlink:href="#mecdff54283" x="453.545455" y="313.654738" style="fill: #008000; stroke: #000000"/>
     <use xlink:href="#mecdff54283" x="466.552448" y="339.857562" style="fill: #008000; stroke: #000000"/>
     <use xlink:href="#mecdff54283" x="479.559441" y="345.486317" style="fill: #008000; stroke: #000000"/>
     <use xlink:href="#mecdff54283" x="492.566434" y="354.608781" style="fill: #008000; stroke: #000000"/>
     <use xlink:href="#mecdff54283" x="505.573427" y="353.014054" style="fill: #008000; stroke: #000000"/>
     <use xlink:href="#mecdff54283" x="518.58042" y="353.44421" style="fill: #008000; stroke: #000000"/>
     <use xlink:href="#mecdff54283" x="531.587413" y="353.44421" style="fill: #008000; stroke: #000000"/>
     <use xlink:href="#mecdff54283" x="544.594406" y="363.65434" style="fill: #008000; stroke: #000000"/>
     <use xlink:href="#mecdff54283" x="557.601399" y="351.032727" style="fill: #008000; stroke: #000000"/>
     <use xlink:href="#mecdff54283" x="570.608392" y="362.925958" style="fill: #008000; stroke: #000000"/>
     <use xlink:href="#mecdff54283" x="583.615385" y="369.36" style="fill: #008000; stroke: #000000"/>
     <use xlink:href="#mecdff54283" x="596.622378" y="363.544615" style="fill: #008000; stroke: #000000"/>
     <use xlink:href="#mecdff54283" x="609.629371" y="363.76" style="fill: #008000; stroke: #000000"/>
     <use xlink:href="#mecdff54283" x="622.636364" y="369.36" style="fill: #008000; stroke: #000000"/>
    </g>
   </g>
   <g id="matplotlib.axis_1">
    <g id="xtick_1">
     <g id="line2d_1">
      <defs>
       <path id="m7a29345b89" d="M 0 0 
L 0 3.5 
" style="stroke: #000000; stroke-width: 0.8"/>
      </defs>
      <g>
       <use xlink:href="#m7a29345b89" x="115.363636" y="384.48" style="stroke: #000000; stroke-width: 0.8"/>
      </g>
     </g>
     <g id="text_1">
      <!-- Jan 01 -->
      <g transform="translate(92.84723 404.740156) scale(0.15 -0.15)">
       <defs>
        <path id="Helvetica-4a" d="M 2741 1369 
Q 2741 788 2569 466 
Q 2250 -122 1356 -122 
Q 841 -122 475 158 
Q 109 438 109 1153 
L 109 1481 
L 694 1481 
L 694 1153 
Q 694 778 861 589 
Q 1028 400 1381 400 
Q 1878 400 2031 741 
Q 2125 950 2125 1531 
L 2125 4591 
L 2741 4591 
L 2741 1369 
z
" transform="scale(0.015625)"/>
        <path id="Helvetica-61" d="M 844 891 
Q 844 647 1022 506 
Q 1200 366 1444 366 
Q 1741 366 2019 503 
Q 2488 731 2488 1250 
L 2488 1703 
Q 2384 1638 2221 1594 
Q 2059 1550 1903 1531 
L 1563 1488 
Q 1256 1447 1103 1359 
Q 844 1213 844 891 
z
M 2206 2028 
Q 2400 2053 2466 2191 
Q 2503 2266 2503 2406 
Q 2503 2694 2298 2823 
Q 2094 2953 1713 2953 
Q 1272 2953 1088 2716 
Q 984 2584 953 2325 
L 428 2325 
Q 444 2944 830 3186 
Q 1216 3428 1725 3428 
Q 2316 3428 2684 3203 
Q 3050 2978 3050 2503 
L 3050 575 
Q 3050 488 3086 434 
Q 3122 381 3238 381 
Q 3275 381 3322 386 
Q 3369 391 3422 400 
L 3422 -16 
Q 3291 -53 3222 -62 
Q 3153 -72 3034 -72 
Q 2744 -72 2613 134 
Q 2544 244 2516 444 
Q 2344 219 2022 53 
Q 1700 -113 1313 -113 
Q 847 -113 551 170 
Q 256 453 256 878 
Q 256 1344 547 1600 
Q 838 1856 1309 1916 
L 2206 2028 
z
M 1741 3428 
L 1741 3428 
z
" transform="scale(0.015625)"/>
        <path id="Helvetica-6e" d="M 413 3347 
L 947 3347 
L 947 2872 
Q 1184 3166 1450 3294 
Q 1716 3422 2041 3422 
Q 2753 3422 3003 2925 
Q 3141 2653 3141 2147 
L 3141 0 
L 2569 0 
L 2569 2109 
Q 2569 2416 2478 2603 
Q 2328 2916 1934 2916 
Q 1734 2916 1606 2875 
Q 1375 2806 1200 2600 
Q 1059 2434 1017 2257 
Q 975 2081 975 1753 
L 975 0 
L 413 0 
L 413 3347 
z
M 1734 3428 
L 1734 3428 
z
" transform="scale(0.015625)"/>
        <path id="Helvetica-20" transform="scale(0.015625)"/>
        <path id="Helvetica-30" d="M 1731 4475 
Q 2600 4475 2988 3759 
Q 3288 3206 3288 2244 
Q 3288 1331 3016 734 
Q 2622 -122 1728 -122 
Q 922 -122 528 578 
Q 200 1163 200 2147 
Q 200 2909 397 3456 
Q 766 4475 1731 4475 
z
M 1725 391 
Q 2163 391 2422 778 
Q 2681 1166 2681 2222 
Q 2681 2984 2493 3476 
Q 2306 3969 1766 3969 
Q 1269 3969 1039 3501 
Q 809 3034 809 2125 
Q 809 1441 956 1025 
Q 1181 391 1725 391 
z
" transform="scale(0.015625)"/>
        <path id="Helvetica-31" d="M 613 3169 
L 613 3600 
Q 1222 3659 1462 3798 
Q 1703 3938 1822 4456 
L 2266 4456 
L 2266 0 
L 1666 0 
L 1666 3169 
L 613 3169 
z
" transform="scale(0.015625)"/>
       </defs>
       <use xlink:href="#Helvetica-4a"/>
       <use xlink:href="#Helvetica-61" x="50"/>
       <use xlink:href="#Helvetica-6e" x="105.615234"/>
       <use xlink:href="#Helvetica-20" x="161.230469"/>
       <use xlink:href="#Helvetica-30" x="189.013672"/>
       <use xlink:href="#Helvetica-31" x="244.628906"/>
      </g>
     </g>
    </g>
    <g id="xtick_2">
     <g id="line2d_2">
      <g>
       <use xlink:href="#m7a29345b89" x="375.503497" y="384.48" style="stroke: #000000; stroke-width: 0.8"/>
      </g>
     </g>
     <g id="text_2">
      <!-- Jan 21 -->
      <g transform="translate(352.98709 404.740156) scale(0.15 -0.15)">
       <defs>
        <path id="Helvetica-32" d="M 200 0 
Q 231 578 439 1006 
Q 647 1434 1250 1784 
L 1850 2131 
Q 2253 2366 2416 2531 
Q 2672 2791 2672 3125 
Q 2672 3516 2437 3745 
Q 2203 3975 1813 3975 
Q 1234 3975 1013 3538 
Q 894 3303 881 2888 
L 309 2888 
Q 319 3472 525 3841 
Q 891 4491 1816 4491 
Q 2584 4491 2939 4075 
Q 3294 3659 3294 3150 
Q 3294 2613 2916 2231 
Q 2697 2009 2131 1694 
L 1703 1456 
Q 1397 1288 1222 1134 
Q 909 863 828 531 
L 3272 531 
L 3272 0 
L 200 0 
z
" transform="scale(0.015625)"/>
       </defs>
       <use xlink:href="#Helvetica-4a"/>
       <use xlink:href="#Helvetica-61" x="50"/>
       <use xlink:href="#Helvetica-6e" x="105.615234"/>
       <use xlink:href="#Helvetica-20" x="161.230469"/>
       <use xlink:href="#Helvetica-32" x="189.013672"/>
       <use xlink:href="#Helvetica-31" x="244.628906"/>
      </g>
     </g>
    </g>
   </g>
   <g id="matplotlib.axis_2">
    <g id="ytick_1">
     <g id="line2d_3">
      <defs>
       <path id="medb6154c3f" d="M 0 0 
L -3.5 0 
" style="stroke: #000000; stroke-width: 0.8"/>
      </defs>
      <g>
       <use xlink:href="#medb6154c3f" x="90" y="369.36" style="stroke: #000000; stroke-width: 0.8"/>
      </g>
     </g>
     <g id="text_3">
      <!-- 0.0 -->
      <g transform="translate(59.65 374.740078) scale(0.15 -0.15)">
       <defs>
        <path id="Helvetica-2e" d="M 547 681 
L 1200 681 
L 1200 0 
L 547 0 
L 547 681 
z
" transform="scale(0.015625)"/>
       </defs>
       <use xlink:href="#Helvetica-30"/>
       <use xlink:href="#Helvetica-2e" x="55.615234"/>
       <use xlink:href="#Helvetica-30" x="83.398438"/>
      </g>
     </g>
    </g>
    <g id="ytick_2">
     <g id="line2d_4">
      <g>
       <use xlink:href="#medb6154c3f" x="90" y="308.88" style="stroke: #000000; stroke-width: 0.8"/>
      </g>
     </g>
     <g id="text_4">
      <!-- 0.2 -->
      <g transform="translate(59.65 314.260078) scale(0.15 -0.15)">
       <use xlink:href="#Helvetica-30"/>
       <use xlink:href="#Helvetica-2e" x="55.615234"/>
       <use xlink:href="#Helvetica-32" x="83.398438"/>
      </g>
     </g>
    </g>
    <g id="ytick_3">
     <g id="line2d_5">
      <g>
       <use xlink:href="#medb6154c3f" x="90" y="248.4" style="stroke: #000000; stroke-width: 0.8"/>
      </g>
     </g>
     <g id="text_5">
      <!-- 0.4 -->
      <g transform="translate(59.65 253.780078) scale(0.15 -0.15)">
       <defs>
        <path id="Helvetica-34" d="M 2116 1584 
L 2116 3613 
L 681 1584 
L 2116 1584 
z
M 2125 0 
L 2125 1094 
L 163 1094 
L 163 1644 
L 2213 4488 
L 2688 4488 
L 2688 1584 
L 3347 1584 
L 3347 1094 
L 2688 1094 
L 2688 0 
L 2125 0 
z
" transform="scale(0.015625)"/>
       </defs>
       <use xlink:href="#Helvetica-30"/>
       <use xlink:href="#Helvetica-2e" x="55.615234"/>
       <use xlink:href="#Helvetica-34" x="83.398438"/>
      </g>
     </g>
    </g>
    <g id="ytick_4">
     <g id="line2d_6">
      <g>
       <use xlink:href="#medb6154c3f" x="90" y="187.92" style="stroke: #000000; stroke-width: 0.8"/>
      </g>
     </g>
     <g id="text_6">
      <!-- 0.6 -->
      <g transform="translate(59.65 193.300078) scale(0.15 -0.15)">
       <defs>
        <path id="Helvetica-36" d="M 1872 4494 
Q 2622 4494 2917 4105 
Q 3213 3716 3213 3303 
L 2656 3303 
Q 2606 3569 2497 3719 
Q 2294 4000 1881 4000 
Q 1409 4000 1131 3564 
Q 853 3128 822 2316 
Q 1016 2600 1309 2741 
Q 1578 2866 1909 2866 
Q 2472 2866 2890 2506 
Q 3309 2147 3309 1434 
Q 3309 825 2912 354 
Q 2516 -116 1781 -116 
Q 1153 -116 697 361 
Q 241 838 241 1966 
Q 241 2800 444 3381 
Q 834 4494 1872 4494 
z
M 1831 384 
Q 2275 384 2495 682 
Q 2716 981 2716 1388 
Q 2716 1731 2519 2042 
Q 2322 2353 1803 2353 
Q 1441 2353 1167 2112 
Q 894 1872 894 1388 
Q 894 963 1142 673 
Q 1391 384 1831 384 
z
" transform="scale(0.015625)"/>
       </defs>
       <use xlink:href="#Helvetica-30"/>
       <use xlink:href="#Helvetica-2e" x="55.615234"/>
       <use xlink:href="#Helvetica-36" x="83.398438"/>
      </g>
     </g>
    </g>
    <g id="ytick_5">
     <g id="line2d_7">
      <g>
       <use xlink:href="#medb6154c3f" x="90" y="127.44" style="stroke: #000000; stroke-width: 0.8"/>
      </g>
     </g>
     <g id="text_7">
      <!-- 0.8 -->
      <g transform="translate(59.65 132.820078) scale(0.15 -0.15)">
       <defs>
        <path id="Helvetica-38" d="M 1741 2600 
Q 2113 2600 2322 2808 
Q 2531 3016 2531 3303 
Q 2531 3553 2331 3762 
Q 2131 3972 1722 3972 
Q 1316 3972 1134 3762 
Q 953 3553 953 3272 
Q 953 2956 1187 2778 
Q 1422 2600 1741 2600 
z
M 1775 384 
Q 2166 384 2423 595 
Q 2681 806 2681 1225 
Q 2681 1659 2415 1884 
Q 2150 2109 1734 2109 
Q 1331 2109 1076 1879 
Q 822 1650 822 1244 
Q 822 894 1055 639 
Q 1288 384 1775 384 
z
M 975 2384 
Q 741 2484 609 2619 
Q 363 2869 363 3269 
Q 363 3769 725 4128 
Q 1088 4488 1753 4488 
Q 2397 4488 2762 4148 
Q 3128 3809 3128 3356 
Q 3128 2938 2916 2678 
Q 2797 2531 2547 2391 
Q 2825 2263 2984 2097 
Q 3281 1784 3281 1284 
Q 3281 694 2884 283 
Q 2488 -128 1763 -128 
Q 1109 -128 657 226 
Q 206 581 206 1256 
Q 206 1653 400 1942 
Q 594 2231 975 2384 
z
" transform="scale(0.015625)"/>
       </defs>
       <use xlink:href="#Helvetica-30"/>
       <use xlink:href="#Helvetica-2e" x="55.615234"/>
       <use xlink:href="#Helvetica-38" x="83.398438"/>
      </g>
     </g>
    </g>
    <g id="ytick_6">
     <g id="line2d_8">
      <g>
       <use xlink:href="#medb6154c3f" x="90" y="66.96" style="stroke: #000000; stroke-width: 0.8"/>
      </g>
     </g>
     <g id="text_8">
      <!-- 1.0 -->
      <g transform="translate(59.65 72.340078) scale(0.15 -0.15)">
       <use xlink:href="#Helvetica-31"/>
       <use xlink:href="#Helvetica-2e" x="55.615234"/>
       <use xlink:href="#Helvetica-30" x="83.398438"/>
      </g>
     </g>
    </g>
    <g id="text_9">
     <!-- Variant frequency -->
     <g transform="translate(51.79125 288.696094) rotate(-90) scale(0.18 -0.18)">
      <defs>
       <path id="Helvetica-56" d="M 850 4591 
L 2169 681 
L 3472 4591 
L 4169 4591 
L 2494 0 
L 1834 0 
L 163 4591 
L 850 4591 
z
" transform="scale(0.015625)"/>
       <path id="Helvetica-72" d="M 428 3347 
L 963 3347 
L 963 2769 
Q 1028 2938 1284 3180 
Q 1541 3422 1875 3422 
Q 1891 3422 1928 3419 
Q 1966 3416 2056 3406 
L 2056 2813 
Q 2006 2822 1964 2825 
Q 1922 2828 1872 2828 
Q 1447 2828 1219 2554 
Q 991 2281 991 1925 
L 991 0 
L 428 0 
L 428 3347 
z
" transform="scale(0.015625)"/>
       <path id="Helvetica-69" d="M 413 3331 
L 984 3331 
L 984 0 
L 413 0 
L 413 3331 
z
M 413 4591 
L 984 4591 
L 984 3953 
L 413 3953 
L 413 4591 
z
" transform="scale(0.015625)"/>
       <path id="Helvetica-74" d="M 525 4281 
L 1094 4281 
L 1094 3347 
L 1628 3347 
L 1628 2888 
L 1094 2888 
L 1094 703 
Q 1094 528 1213 469 
Q 1278 434 1431 434 
Q 1472 434 1519 436 
Q 1566 438 1628 444 
L 1628 0 
Q 1531 -28 1426 -40 
Q 1322 -53 1200 -53 
Q 806 -53 665 148 
Q 525 350 525 672 
L 525 2888 
L 72 2888 
L 72 3347 
L 525 3347 
L 525 4281 
z
" transform="scale(0.015625)"/>
       <path id="Helvetica-66" d="M 553 3856 
Q 566 4206 675 4369 
Q 872 4656 1434 4656 
Q 1488 4656 1544 4653 
Q 1600 4650 1672 4644 
L 1672 4131 
Q 1584 4138 1545 4139 
Q 1506 4141 1472 4141 
Q 1216 4141 1166 4008 
Q 1116 3875 1116 3331 
L 1672 3331 
L 1672 2888 
L 1109 2888 
L 1109 0 
L 553 0 
L 553 2888 
L 88 2888 
L 88 3331 
L 553 3331 
L 553 3856 
z
" transform="scale(0.015625)"/>
       <path id="Helvetica-65" d="M 1806 3422 
Q 2163 3422 2497 3255 
Q 2831 3088 3006 2822 
Q 3175 2569 3231 2231 
Q 3281 2000 3281 1494 
L 828 1494 
Q 844 984 1069 676 
Q 1294 369 1766 369 
Q 2206 369 2469 659 
Q 2619 828 2681 1050 
L 3234 1050 
Q 3213 866 3089 639 
Q 2966 413 2813 269 
Q 2556 19 2178 -69 
Q 1975 -119 1719 -119 
Q 1094 -119 659 336 
Q 225 791 225 1609 
Q 225 2416 662 2919 
Q 1100 3422 1806 3422 
z
M 2703 1941 
Q 2669 2306 2544 2525 
Q 2313 2931 1772 2931 
Q 1384 2931 1121 2651 
Q 859 2372 844 1941 
L 2703 1941 
z
M 1753 3428 
L 1753 3428 
z
" transform="scale(0.015625)"/>
       <path id="Helvetica-71" d="M 775 1628 
Q 775 1194 897 900 
Q 1113 378 1669 378 
Q 2256 378 2478 928 
Q 2600 1231 2600 1703 
Q 2600 2138 2466 2428 
Q 2238 2925 1663 2925 
Q 1297 2925 1036 2608 
Q 775 2291 775 1628 
z
M 1606 3422 
Q 2022 3422 2306 3213 
Q 2463 3100 2606 2881 
L 2606 3347 
L 3141 3347 
L 3141 -1334 
L 2575 -1334 
L 2575 384 
Q 2434 159 2186 26 
Q 1938 -106 1566 -106 
Q 1031 -106 609 312 
Q 188 731 188 1588 
Q 188 2391 583 2906 
Q 978 3422 1606 3422 
z
" transform="scale(0.015625)"/>
       <path id="Helvetica-75" d="M 975 3347 
L 975 1125 
Q 975 869 1056 706 
Q 1206 406 1616 406 
Q 2203 406 2416 931 
Q 2531 1213 2531 1703 
L 2531 3347 
L 3094 3347 
L 3094 0 
L 2563 0 
L 2569 494 
Q 2459 303 2297 172 
Q 1975 -91 1516 -91 
Q 800 -91 541 388 
Q 400 644 400 1072 
L 400 3347 
L 975 3347 
z
M 1747 3428 
L 1747 3428 
z
" transform="scale(0.015625)"/>
       <path id="Helvetica-63" d="M 1703 3444 
Q 2269 3444 2623 3169 
Q 2978 2894 3050 2222 
L 2503 2222 
Q 2453 2531 2275 2736 
Q 2097 2941 1703 2941 
Q 1166 2941 934 2416 
Q 784 2075 784 1575 
Q 784 1072 996 728 
Q 1209 384 1666 384 
Q 2016 384 2220 598 
Q 2425 813 2503 1184 
L 3050 1184 
Q 2956 519 2581 211 
Q 2206 -97 1622 -97 
Q 966 -97 575 383 
Q 184 863 184 1581 
Q 184 2463 612 2953 
Q 1041 3444 1703 3444 
z
M 1616 3428 
L 1616 3428 
z
" transform="scale(0.015625)"/>
       <path id="Helvetica-79" d="M 2503 3347 
L 3125 3347 
Q 3006 3025 2597 1878 
Q 2291 1016 2084 472 
Q 1597 -809 1397 -1090 
Q 1197 -1372 709 -1372 
Q 591 -1372 527 -1362 
Q 463 -1353 369 -1328 
L 369 -816 
Q 516 -856 581 -865 
Q 647 -875 697 -875 
Q 853 -875 926 -823 
Q 1000 -772 1050 -697 
Q 1066 -672 1162 -440 
Q 1259 -209 1303 -97 
L 66 3347 
L 703 3347 
L 1600 622 
L 2503 3347 
z
M 1597 3428 
L 1597 3428 
z
" transform="scale(0.015625)"/>
      </defs>
      <use xlink:href="#Helvetica-56"/>
      <use xlink:href="#Helvetica-61" x="66.699219"/>
      <use xlink:href="#Helvetica-72" x="122.314453"/>
      <use xlink:href="#Helvetica-69" x="155.615234"/>
      <use xlink:href="#Helvetica-61" x="177.832031"/>
      <use xlink:href="#Helvetica-6e" x="233.447266"/>
      <use xlink:href="#Helvetica-74" x="289.0625"/>
      <use xlink:href="#Helvetica-20" x="316.845703"/>
      <use xlink:href="#Helvetica-66" x="344.628906"/>
      <use xlink:href="#Helvetica-72" x="372.412109"/>
      <use xlink:href="#Helvetica-65" x="405.712891"/>
      <use xlink:href="#Helvetica-71" x="461.328125"/>
      <use xlink:href="#Helvetica-75" x="516.943359"/>
      <use xlink:href="#Helvetica-65" x="572.558594"/>
      <use xlink:href="#Helvetica-6e" x="628.173828"/>
      <use xlink:href="#Helvetica-63" x="683.789062"/>
      <use xlink:href="#Helvetica-79" x="733.789062"/>
     </g>
    </g>
   </g>
   <g id="line2d_9">
    <path d="M 115.363636 354.667116 
L 128.370629 351.790215 
L 141.377622 348.322923 
L 154.384615 344.173979 
L 167.391608 339.31162 
L 180.398601 333.681786 
L 193.405594 327.284133 
L 206.412587 319.892637 
L 219.41958 311.57519 
L 232.426573 302.081886 
L 245.433566 291.675094 
L 258.440559 280.154356 
L 271.447552 267.865632 
L 284.454545 254.585005 
L 297.461538 240.814041 
L 310.468531 226.620296 
L 323.475524 212.022605 
L 336.482517 197.78542 
L 349.48951 183.642684 
L 362.496503 170.233723 
L 375.503497 157.648587 
L 388.51049 145.817233 
L 401.517483 135.119023 
L 414.524476 125.7247 
L 427.531469 117.189747 
L 440.538462 109.599419 
L 453.545455 103.202147 
L 466.552448 97.607991 
L 479.559441 92.736794 
L 492.566434 88.633656 
L 505.573427 85.05218 
L 518.58042 82.052588 
L 531.587413 79.552382 
L 544.594406 77.475245 
L 557.601399 75.704163 
L 570.608392 74.210657 
L 583.615385 72.974108 
L 596.622378 71.954213 
L 609.629371 71.098358 
L 622.636364 70.384608 
" clip-path="url(#p549150a3f7)" style="fill: none; stroke: #800080; stroke-width: 5; stroke-linecap: square"/>
   </g>
   <g id="line2d_10">
    <path d="M 115.363636 81.652878 
L 128.370629 84.529778 
L 141.377622 87.997068 
L 154.384615 92.146025 
L 167.391608 97.008371 
L 180.398601 102.638198 
L 193.405594 109.035867 
L 206.412587 116.427367 
L 219.41958 124.744819 
L 232.426573 134.238132 
L 245.433566 144.644924 
L 258.440559 156.165644 
L 271.447552 168.454368 
L 284.454545 181.734977 
L 297.461538 195.505959 
L 310.468531 209.699704 
L 323.475524 224.297395 
L 336.482517 238.53458 
L 349.48951 252.677316 
L 362.496503 266.086286 
L 375.503497 278.671422 
L 388.51049 290.502767 
L 401.517483 301.200995 
L 414.524476 310.595327 
L 427.531469 319.130244 
L 440.538462 326.720599 
L 453.545455 333.117866 
L 466.552448 338.712023 
L 479.559441 343.583197 
L 492.566434 347.686338 
L 505.573427 351.267822 
L 518.58042 354.267407 
L 531.587413 356.767622 
L 544.594406 358.844745 
L 557.601399 360.61585 
L 570.608392 362.109352 
L 583.615385 363.345904 
L 596.622378 364.365783 
L 609.629371 365.221623 
L 622.636364 365.935381 
" clip-path="url(#p549150a3f7)" style="fill: none; stroke: #008000; stroke-width: 5; stroke-linecap: square"/>
   </g>
   <g id="patch_3">
    <path d="M 90 384.48 
L 90 51.84 
" style="fill: none; stroke: #000000; stroke-width: 0.8; stroke-linejoin: miter; stroke-linecap: square"/>
   </g>
   <g id="patch_4">
    <path d="M 90 384.48 
L 648 384.48 
" style="fill: none; stroke: #000000; stroke-width: 0.8; stroke-linejoin: miter; stroke-linecap: square"/>
   </g>
  </g>
 </g>
 <defs>
  <clipPath id="p549150a3f7">
   <rect x="90" y="51.84" width="558" height="332.64"/>
  </clipPath>
 </defs>
</svg>
